<svg width="594" height="593" viewBox="0 0 594 593" fill="none" xmlns="http://www.w3.org/2000/svg">
<path fill-rule="evenodd" clip-rule="evenodd" d="M298.039 39C439.413 39 554.02 153.607 554.02 294.98V297.54C554.02 374.088 520.419 442.787 467.163 489.696L479.529 520.771C460.725 520.865 441.92 520.944 423.115 520.944C386.138 541.684 343.452 553.521 298.039 553.521H295.479C249.928 553.521 207.156 541.621 170.1 520.763C153.06 520.763 136.02 520.771 118.979 520.771L130.067 492.904C74.6656 445.949 39.499 375.851 39.499 297.54V294.98C39.499 153.607 154.106 39 295.479 39H298.039Z" fill="white"/>
<path d="M298.039 0C460.952 0 593.02 132.068 593.02 294.98V297.54C593.02 375.681 562.595 446.753 513.038 499.497L515.766 506.351C520.533 518.331 519.071 531.894 511.859 542.583C504.648 553.272 492.619 559.706 479.725 559.771C464.166 559.848 448.56 559.912 432.935 559.934C392.476 580.762 346.565 592.521 298.039 592.521H295.479C246.814 592.521 200.809 580.704 160.271 559.765C155.031 559.765 149.79 559.766 144.548 559.767C136.028 559.768 127.504 559.771 118.979 559.771C106.051 559.771 93.9629 553.363 86.7051 542.664C79.4472 531.965 77.9634 518.364 82.7432 506.352L84.0029 503.184C32.3689 450.087 0.499023 377.52 0.499023 297.54V294.98C0.499023 132.068 132.567 1.90109e-05 295.479 0H298.039ZM295.479 39C154.106 39 39.499 153.607 39.499 294.98V297.54C39.499 375.851 74.6656 445.949 130.067 492.904L118.979 520.771C136.02 520.771 153.06 520.763 170.1 520.763C207.156 541.621 249.928 553.521 295.479 553.521H298.039C343.452 553.521 386.138 541.684 423.115 520.944C441.92 520.944 460.725 520.865 479.529 520.771L467.163 489.696C520.419 442.787 554.02 374.088 554.02 297.54V294.98C554.02 153.607 439.413 39 298.039 39H295.479Z" fill="white"/>
<path d="M296.299 39.3835H296.289C155.175 39.3835 40.7793 153.779 40.7793 294.894V294.904C40.7793 436.018 155.175 550.414 296.289 550.414H296.299C437.414 550.414 551.809 436.018 551.809 294.904V294.894C551.809 153.779 437.414 39.3835 296.299 39.3835Z" fill="white"/>
<path d="M234.309 127.044C234.459 127.654 235.109 128.074 235.789 127.894L243.089 125.924C243.709 125.754 244.109 125.054 243.939 124.444L239.709 108.794L243.959 107.644L256.499 121.714C256.689 121.924 257.149 122.134 257.629 121.994L265.809 119.794C266.839 119.514 266.999 118.414 266.369 117.734L253.749 104.414C258.499 100.824 261.019 95.2739 259.499 89.6239C257.539 82.3139 249.909 77.9839 242.549 79.9739L224.189 84.9239C223.519 85.1139 223.169 85.7939 223.339 86.4039L234.309 127.044ZM244.119 88.9639C246.629 88.2939 249.339 89.7939 250.039 92.3739C250.729 94.9539 249.209 97.8639 246.689 98.5439L237.619 100.994L235.019 91.4239L244.119 88.9639Z" fill="black"/>
<path d="M268.339 84.1537L277.419 83.5537L279.659 117.424C279.689 118.054 280.309 118.594 280.939 118.554L288.549 118.044C289.189 118.004 289.709 117.394 289.669 116.764L287.439 82.8937L296.499 82.2937C297.209 82.2437 297.669 81.6437 297.629 81.0037L297.169 74.0937C297.129 73.4637 296.589 72.9237 295.879 72.9737L267.729 74.8337C267.039 74.8737 266.559 75.4837 266.609 76.1137L267.059 83.0337C267.109 83.6637 267.649 84.2037 268.339 84.1537Z" fill="black"/>
<path d="M194.979 148.164L201.149 144.894C202.279 144.294 202.539 143.294 202.459 142.474L202.089 136.914L217.379 128.814L221.749 132.174C222.829 132.974 223.439 133.074 224.459 132.544L230.689 129.234C231.539 128.794 231.609 127.824 230.879 127.274L193.269 98.7836C192.919 98.5336 192.379 98.4636 191.979 98.6736L191.419 98.9636C191.019 99.1736 190.789 99.6636 190.799 100.094L193.249 147.214C193.299 148.124 194.129 148.614 194.979 148.164ZM200.779 115.954L209.959 122.964L201.419 127.484L200.729 115.984L200.779 115.954Z" fill="black"/>
<path d="M150.669 137.754C151.069 138.254 151.819 138.384 152.369 137.944L159.479 132.294L180.589 158.894C180.979 159.394 181.799 159.484 182.299 159.094L188.269 154.344C188.769 153.954 188.859 153.144 188.459 152.654L167.369 126.054L174.479 120.404C175.039 119.964 175.079 119.204 174.669 118.704L170.379 113.274C169.979 112.774 169.229 112.644 168.669 113.084L146.559 130.624C146.019 131.064 145.959 131.824 146.369 132.324L150.669 137.754Z" fill="black"/>
<path d="M128.13 168.094C133.84 173.154 141.59 170.824 146.83 168.164C150.98 166.064 153.98 165.744 155.98 167.514C157.63 168.994 157.61 171.424 155.92 173.334C153.13 176.474 147.59 177.664 147.32 177.774C146.79 177.894 145.9 178.714 146.17 179.644L148.15 185.384C148.48 186.354 148.8 186.374 149.69 186.324C151.75 186.194 157.36 185.044 162.84 178.854C169.02 171.854 167.83 163.234 162.92 158.894C156.44 153.164 148.32 156.504 143.56 158.914C138.71 161.324 136.11 161.574 134.34 160.014C133.06 158.874 133.06 156.584 134.57 154.864C137.13 151.964 142.84 150.804 143.46 150.584C144.17 150.454 144.5 149.214 144.27 148.414L142.75 142.744C142.59 142.264 141.81 141.404 140.98 141.684C138.66 142.184 132.77 143.764 128.38 148.714C121.9 156.044 123.42 163.924 128.13 168.094Z" fill="black"/>
<path d="M402.409 153.044C410.499 158.984 421.809 157.334 427.519 149.544L443.049 128.364C443.419 127.854 443.299 127.054 442.789 126.674L436.479 122.054C435.919 121.644 435.169 121.804 434.789 122.314L419.569 143.074C416.939 146.664 412.119 147.544 408.419 144.834C404.779 142.174 404.209 137.344 406.839 133.754L422.079 112.994C422.459 112.484 422.379 111.714 421.819 111.304L415.499 106.684C414.999 106.304 414.189 106.424 413.819 106.944L398.299 128.114C392.589 135.904 394.359 147.144 402.409 153.044Z" fill="black"/>
<path d="M340.379 122.624L347.549 125.044C348.149 125.244 348.879 124.884 349.079 124.284L354.269 108.924L358.419 110.324L361.049 128.994C361.089 129.274 361.339 129.704 361.829 129.864L369.839 132.564C370.869 132.914 371.609 132.094 371.459 131.164L368.369 113.074C374.319 112.744 379.499 109.524 381.369 103.984C383.789 96.8139 379.859 88.9739 372.629 86.5339L354.619 80.4539C353.959 80.2339 353.289 80.6139 353.089 81.2139L339.629 121.094C339.419 121.694 339.709 122.394 340.379 122.624ZM360.019 91.8739L368.939 94.8839C371.409 95.7139 372.829 98.4739 371.959 101.004C371.119 103.534 368.229 105.114 365.769 104.284L356.839 101.274L360.019 91.8739Z" fill="black"/>
<path d="M98.1893 257.044C110.359 260.744 122.999 253.884 126.689 241.724C128.339 236.304 128.049 230.504 125.299 225.144C124.999 224.594 124.229 224.294 123.669 224.584L117.169 227.794C116.629 228.034 116.399 228.824 116.629 229.364C117.859 232.124 117.939 235.534 117.079 238.394C114.979 245.274 107.839 248.684 101.089 246.624C94.2793 244.554 90.0893 237.774 92.1893 230.904C93.0893 227.914 95.0893 225.274 97.7793 223.634C98.3393 223.334 98.5393 222.664 98.2293 222.114L94.7493 215.864C94.4193 215.234 93.6893 215.014 93.0393 215.414C87.9993 218.404 84.7493 222.334 82.9093 228.414C79.2093 240.574 86.0193 253.344 98.1893 257.044Z" fill="black"/>
<path d="M305.709 117.724L331.839 120.754C332.549 120.834 333.119 120.324 333.189 119.684L333.979 112.804C334.059 112.174 333.619 111.544 332.919 111.464L315.419 109.444L316.419 100.924L330.819 102.584C331.439 102.654 332.069 102.214 332.149 101.524L332.939 94.6437C333.019 94.0037 332.519 93.3737 331.879 93.3037L317.479 91.6337L318.399 83.8037L335.879 85.8337C336.579 85.9137 337.149 85.4037 337.229 84.7637L338.019 77.8837C338.089 77.2537 337.659 76.6237 336.959 76.5437L310.819 73.5237C310.119 73.4437 309.549 73.9537 309.479 74.5837L304.649 116.394C304.579 117.024 305.019 117.644 305.709 117.724Z" fill="black"/>
<path d="M456.999 176.974L459.689 141.874L458.669 140.644C458.269 140.154 457.499 140.044 457.019 140.444L424.069 167.724C423.579 168.124 423.499 168.934 423.909 169.424L428.709 175.254C429.169 175.794 429.919 175.824 430.419 175.424L448.709 160.324L448.749 160.374L445.269 195.804C445.249 195.984 445.419 196.494 445.549 196.644L446.189 197.434C446.589 197.924 447.359 198.034 447.839 197.634L480.839 170.404C481.329 170.004 481.409 169.194 480.999 168.704L476.149 162.824C475.689 162.284 474.939 162.254 474.439 162.654L457.049 177.024L456.999 176.974Z" fill="black"/>
<path d="M75.1286 274.054L116.879 279.364C117.499 279.444 118.149 278.954 118.229 278.324L119.189 270.754C119.279 270.124 118.779 269.484 118.149 269.404L76.3986 264.084C75.7686 264.004 75.1286 264.504 75.0486 265.134L74.0886 272.704C73.9986 273.334 74.4986 273.974 75.1286 274.054Z" fill="black"/>
<path d="M117.959 318.944L117.669 311.504C117.629 310.684 116.909 310.014 116.089 310.044L97.1594 310.774L116.539 295.324C116.709 295.194 116.939 294.614 116.939 294.164L116.589 285.404C116.549 284.194 115.119 283.544 114.189 284.284L93.7294 301.304L74.5494 287.164C73.5694 286.494 72.1894 287.184 72.2294 288.394L72.5494 296.404C72.5494 296.784 72.8994 297.344 73.2294 297.584L91.3794 311.004L74.6694 311.654C73.8394 311.684 73.1694 312.404 73.2094 313.234L73.4794 320.664C73.5194 321.554 74.2494 322.164 75.0794 322.134L116.499 320.524C117.319 320.494 117.999 319.834 117.959 318.944Z" fill="black"/>
<path d="M296.749 494.474C204.869 494.474 127.269 432.164 103.979 347.584H100.869C124.249 433.834 203.189 497.474 296.749 497.474C390.309 497.474 469.249 433.834 492.629 347.584H489.519C466.229 432.164 388.629 494.474 296.749 494.474Z" fill="black"/>
<path d="M95.769 200.624L131.709 221.254C132.439 221.664 133.359 221.464 133.799 220.684L137.499 214.234C137.919 213.524 137.659 212.564 136.939 212.154L120.499 202.724L145.129 199.924C145.359 199.904 145.869 199.534 146.089 199.154L150.439 191.544C151.059 190.494 150.189 189.194 148.999 189.324L122.629 192.884L113.879 170.704C113.409 169.624 111.879 169.484 111.279 170.524L107.289 177.474C107.089 177.804 107.089 178.464 107.229 178.834L115.479 199.844L100.979 191.524C100.269 191.114 99.3189 191.374 98.8989 192.084L95.189 198.534C94.749 199.314 95.049 200.214 95.769 200.624Z" fill="black"/>
<path d="M296.749 135.524C209.879 135.524 139.059 205.514 137.689 292.064V297.184C137.959 314.464 140.999 331.094 146.389 346.634L148.149 351.434C154.229 367.284 162.769 381.914 173.309 394.874L176.589 398.794C187.589 411.464 200.569 422.384 215.019 431.074L219.449 433.634C233.929 441.724 249.809 447.614 266.609 450.844L271.649 451.734C279.829 453.034 288.209 453.724 296.749 453.724C305.289 453.724 313.679 453.034 321.859 451.734L326.899 450.844C343.699 447.614 359.569 441.724 374.059 433.634L378.489 431.074C392.939 422.384 405.909 411.464 416.919 398.794L420.199 394.874C430.739 381.914 439.279 367.284 445.359 351.434L447.109 346.634C452.499 331.094 455.549 314.464 455.819 297.184V292.064C454.449 205.514 383.629 135.524 296.749 135.524ZM142.799 297.184H282.249L151.199 344.884C146.009 329.894 143.079 313.854 142.799 297.184ZM152.959 349.684L283.999 301.984L177.229 391.584C167.069 379.084 158.829 364.964 152.959 349.684ZM217.579 426.644C203.639 418.254 191.129 407.724 180.509 395.504L287.289 305.904L217.579 426.644ZM267.499 445.814C251.289 442.684 235.979 437.004 222.009 429.204L291.719 308.464L267.499 445.814ZM296.749 448.604C288.519 448.604 280.429 447.954 272.539 446.694L296.749 309.344L320.969 446.694C313.079 447.954 304.989 448.604 296.749 448.604ZM326.009 445.814L301.789 308.464L371.499 429.204C357.529 437.004 342.219 442.684 326.009 445.814ZM375.929 426.644L306.219 305.904L412.999 395.504C402.379 407.724 389.869 418.254 375.929 426.644ZM416.279 391.584L309.509 301.984L440.549 349.684C434.679 364.964 426.439 379.084 416.279 391.584ZM442.309 344.884L311.249 297.184H450.709C450.429 313.854 447.499 329.894 442.309 344.884ZM142.799 292.064C144.169 208.334 212.699 140.644 296.749 140.644C380.799 140.644 449.329 208.334 450.709 292.064H142.799Z" fill="black"/>
<path d="M393.499 211.844C393.049 210.144 391.299 209.144 389.619 209.594L365.579 215.984C364.999 216.134 364.479 216.454 364.069 216.894L349.839 232.224C349.579 232.024 349.359 231.794 349.079 231.624L299.169 199.284C296.569 197.584 293.229 197.424 290.459 198.874L267.269 210.994C266.479 211.414 265.499 211.324 264.799 210.794C264.299 210.414 263.979 209.874 263.899 209.254C263.819 208.644 263.979 208.024 264.359 207.534L275.279 193.334C277.129 190.924 279.799 189.294 282.789 188.734L295.589 186.354C302.659 185.044 309.809 185.124 316.839 186.604L330.459 189.464C332.149 189.814 333.879 189.664 335.479 189.024C335.709 188.924 335.939 188.794 336.159 188.644L363.229 169.054C364.629 168.034 364.959 166.044 363.919 164.624C362.909 163.204 360.919 162.884 359.499 163.914L332.819 183.234C332.479 183.324 332.119 183.324 331.769 183.254L318.149 180.394C310.299 178.744 302.319 178.654 294.419 180.124L281.629 182.504C278.119 183.154 274.909 184.794 272.339 187.194L260.409 185.294C260.249 185.274 260.089 185.234 259.939 185.174L233.879 164.024C232.519 162.924 230.519 163.124 229.419 164.494C228.309 165.844 228.519 167.844 229.879 168.954L256.249 190.344C256.419 190.474 256.589 190.594 256.789 190.694C257.619 191.124 258.499 191.414 259.419 191.564L267.629 192.864L259.329 203.674C257.919 205.514 257.309 207.794 257.619 210.104C257.919 212.404 259.119 214.444 260.959 215.854C263.629 217.854 267.249 218.164 270.209 216.614L293.399 204.494C294.129 204.104 295.019 204.154 295.729 204.604L345.629 236.944C346.729 237.664 347.499 238.764 347.749 240.054C348.039 241.344 347.779 242.654 347.059 243.754C345.609 245.944 342.709 246.604 340.459 245.254L313.459 229.104C311.959 228.204 310.019 228.694 309.119 230.204C308.209 231.704 308.709 233.644 310.209 234.554L331.799 247.464L334.399 249.024C335.129 249.464 335.649 250.164 335.839 251.004C336.019 251.834 335.869 252.684 335.399 253.404C333.769 255.874 330.459 256.704 327.859 255.284L306.749 243.784C305.229 242.954 303.299 243.514 302.459 245.054C301.619 246.594 302.169 248.524 303.709 249.354L318.959 257.664L322.709 259.954C323.409 260.384 323.879 261.064 324.039 261.874C324.189 262.684 323.999 263.494 323.519 264.154C323.479 264.224 323.419 264.284 323.379 264.344C321.939 266.604 319.059 267.384 316.669 266.174L300.339 257.884C298.779 257.094 296.859 257.714 296.069 259.274C295.279 260.834 295.899 262.744 297.459 263.534L311.049 270.434C308.279 272.164 304.959 272.894 301.609 272.384L289.329 270.504L290.209 269.254C292.959 265.314 292.229 259.844 288.569 256.744C288.539 256.714 288.499 256.694 288.459 256.664C287.309 255.714 285.939 255.104 284.499 254.784C285.629 250.894 284.419 246.534 281.129 243.874C279.399 242.464 277.229 241.694 275.019 241.614C275.069 240.774 275.039 239.934 274.869 239.084C274.319 236.344 272.729 233.994 270.379 232.474C265.769 229.464 259.499 230.694 256.339 235.204C255.539 233.984 254.479 232.924 253.159 232.104C249.129 229.614 243.999 230.274 240.709 233.464L229.149 218.204C228.749 217.684 228.209 217.304 227.579 217.104L204.019 209.634C202.359 209.094 200.579 210.034 200.049 211.694C199.519 213.364 200.439 215.144 202.119 215.674L224.709 222.844L236.779 238.764L233.419 243.574C230.229 248.134 231.329 254.474 235.859 257.704L236.039 257.834C237.729 259.044 239.709 259.684 241.769 259.714C241.749 262.964 243.279 266.174 246.129 268.174C247.879 269.414 249.919 270.054 252.019 270.054C252.649 270.054 253.269 270.004 253.899 269.884C254.459 269.784 255.019 269.604 255.559 269.414C256.419 271.704 258.059 273.644 260.229 274.814C261.789 275.654 263.459 276.054 265.129 276.054C266.689 276.054 268.229 275.684 269.649 274.994C270.659 276.884 272.279 278.384 274.309 279.224C275.479 279.704 276.709 279.944 277.909 279.944C280.729 279.944 283.439 278.634 285.249 276.294L300.649 278.654C301.689 278.814 302.729 278.894 303.769 278.894C309.079 278.894 314.129 276.794 317.939 273.024C318.309 273.064 318.669 273.094 319.039 273.094C322.819 273.094 326.479 271.224 328.669 267.844C329.839 266.234 330.439 264.274 330.409 262.304C330.459 262.304 330.499 262.304 330.559 262.304C334.519 262.304 338.409 260.364 340.689 256.874C341.629 255.464 342.109 253.874 342.189 252.244C342.459 252.264 342.709 252.294 342.979 252.294C346.629 252.294 350.189 250.504 352.339 247.234C354.019 244.714 354.589 241.704 353.959 238.744C353.879 238.314 353.709 237.914 353.579 237.494L368.089 221.864L391.249 215.714C392.939 215.264 393.939 213.524 393.499 211.834V211.844ZM244.849 252.014C244.279 252.694 243.499 253.154 242.619 253.314C241.599 253.494 240.559 253.264 239.719 252.664L239.539 252.544C237.829 251.324 237.409 248.924 238.619 247.204L244.659 238.574C245.389 237.514 246.569 236.944 247.789 236.944C248.499 236.944 249.229 237.134 249.899 237.544C250.799 238.104 251.409 238.984 251.639 240.014C251.839 240.964 251.669 241.914 251.179 242.744L244.849 252.014ZM256.639 259.904C256.469 260.154 256.359 260.424 256.209 260.684L255.319 261.984C254.719 262.864 253.809 263.454 252.759 263.644C251.709 263.834 250.649 263.604 249.769 262.984C248.009 261.744 247.559 259.294 248.769 257.514L250.069 255.614C250.159 255.494 250.259 255.404 250.339 255.284C252.219 252.554 254.429 249.294 256.309 246.524C256.359 246.454 256.379 246.374 256.429 246.304L261.499 238.874C262.259 237.764 263.519 237.154 264.789 237.154C265.529 237.154 266.269 237.364 266.929 237.784C267.829 238.374 268.439 239.274 268.649 240.334C268.859 241.384 268.649 242.454 268.039 243.334L266.309 245.884C266.269 245.944 266.209 245.984 266.169 246.034L256.639 259.904ZM270.189 265.214C270.029 265.444 269.939 265.694 269.799 265.934L268.389 267.994C267.239 269.654 265.029 270.194 263.239 269.234C262.239 268.694 261.539 267.784 261.269 266.674C261.069 265.854 261.139 265.014 261.449 264.254L271.529 249.484C272.159 248.654 273.059 248.114 274.089 247.964C274.289 247.934 274.479 247.924 274.669 247.924C275.569 247.924 276.439 248.224 277.149 248.804C278.749 250.094 279.089 252.434 277.919 254.124L275.049 258.294C274.989 258.384 274.899 258.454 274.839 258.544L270.189 265.214ZM284.999 265.634L280.359 272.294C279.539 273.464 278.049 273.904 276.729 273.354C275.879 273.004 275.239 272.294 274.979 271.414C274.789 270.764 274.819 270.094 275.059 269.474L280.269 261.904C280.739 261.364 281.379 261.004 282.109 260.904C282.249 260.884 282.389 260.874 282.529 260.874C283.199 260.874 283.849 261.094 284.379 261.514C284.399 261.534 284.419 261.554 284.439 261.564C285.649 262.564 285.899 264.344 284.999 265.634Z" fill="black"/>
<path d="M452.049 207.194L455.749 213.864C456.059 214.424 456.829 214.644 457.379 214.334L494.189 193.934C494.749 193.634 494.979 192.854 494.669 192.294L490.959 185.624C490.669 185.064 489.879 184.844 489.329 185.154L452.519 205.544C451.959 205.854 451.729 206.634 452.049 207.194Z" fill="black"/>
<path d="M492.319 207.604L495.559 216.094L463.859 228.224C463.249 228.444 462.919 229.184 463.159 229.784L465.879 236.904C466.109 237.504 466.839 237.834 467.439 237.604L499.149 225.474L502.399 233.974C502.649 234.624 503.369 234.894 503.959 234.664L510.419 232.194C511.019 231.964 511.379 231.284 511.129 230.634L501.049 204.264C500.799 203.614 500.079 203.344 499.479 203.564L493.019 206.044C492.419 206.274 492.069 206.954 492.319 207.604Z" fill="black"/>
<path d="M471.209 253.174L475.939 279.064C476.069 279.754 476.729 280.144 477.339 280.034L484.169 278.784C484.799 278.674 485.269 278.064 485.129 277.384L481.979 260.054L490.419 258.514L493.019 272.774C493.129 273.394 493.729 273.874 494.419 273.744L501.249 272.494C501.869 272.384 502.329 271.714 502.209 271.094L499.609 256.834L507.369 255.414L510.519 272.734C510.659 273.424 511.309 273.824 511.939 273.704L518.749 272.464C519.379 272.344 519.839 271.744 519.729 271.054L514.979 245.164C514.869 244.474 514.209 244.084 513.589 244.194L472.189 251.764C471.559 251.884 471.089 252.484 471.209 253.174Z" fill="black"/>
<path d="M470.329 121.054C423.959 74.6936 362.319 49.1536 296.749 49.1536C231.179 49.1536 169.549 74.6936 123.179 121.054C76.8191 167.414 51.2891 229.054 51.2891 294.624C51.2891 360.194 76.8191 421.834 123.179 468.194C169.549 514.554 231.189 540.094 296.749 540.094C362.309 540.094 423.959 514.554 470.329 468.194C516.689 421.834 542.219 360.194 542.219 294.624C542.219 229.054 516.689 167.414 470.329 121.054ZM466.079 463.954C420.839 509.184 360.709 534.094 296.749 534.094C232.789 534.094 172.659 509.184 127.419 463.954C82.1891 418.724 57.2891 358.584 57.2891 294.624C57.2891 230.664 82.1891 170.524 127.419 125.294C172.659 80.0636 232.789 55.1536 296.749 55.1536C360.709 55.1536 420.839 80.0636 466.079 125.294C511.309 170.524 536.209 230.664 536.209 294.624C536.209 358.584 511.309 418.724 466.079 463.954Z" fill="black"/>
<path d="M520.109 288.104L478.049 286.504C477.419 286.484 476.819 286.964 476.799 287.604L476.209 303.104C475.729 315.364 485.339 325.784 497.659 326.244C509.859 326.714 520.209 317.054 520.669 304.794L521.269 289.294C521.299 288.654 520.729 288.124 520.109 288.104ZM511.369 303.804C511.089 310.984 505.229 315.974 498.059 315.704C490.819 315.424 485.369 310.004 485.629 302.824L485.869 296.724L511.589 297.704L511.369 303.804Z" fill="black"/>
<path d="M296.759 550.434C228.429 550.434 164.189 523.824 115.869 475.504C67.5494 427.184 40.9395 362.944 40.9395 294.614C40.9395 226.284 67.5494 162.044 115.869 113.724C164.189 65.4037 228.429 38.7937 296.759 38.7937C365.089 38.7937 429.329 65.4037 477.649 113.724C525.969 162.044 552.579 226.284 552.579 294.614C552.579 362.944 525.969 427.184 477.649 475.504C429.329 523.824 365.089 550.434 296.759 550.434ZM296.759 44.8137C230.029 44.8137 167.299 70.7937 120.119 117.984C72.9394 165.164 46.9494 227.904 46.9494 294.624C46.9494 361.344 72.9394 424.084 120.119 471.264C167.299 518.444 230.039 544.434 296.759 544.434C363.479 544.434 426.219 518.444 473.399 471.264C520.579 424.084 546.569 361.344 546.569 294.624C546.569 227.904 520.579 165.164 473.399 117.984C426.219 70.8037 363.479 44.8137 296.759 44.8137Z" fill="black"/>
<path d="M442.649 499.434L432.579 511.224V499.434H442.649Z" fill="white"/>
<path d="M456.479 485.224L468.449 515.304H434.949L448.509 499.444V455.144H468.449L456.479 485.224Z" fill="white"/>
<path d="M155.039 499.434V511.224L144.969 499.434H155.039Z" fill="white"/>
<path d="M119.169 515.304L131.129 485.224L119.169 455.144H139.119V499.434H139.169L139.129 499.474L152.669 515.304H119.169Z" fill="white"/>
<path d="M444.68 431.774H142.93V495.614H444.68V431.774Z" fill="white"/>
<path d="M474.079 451.334H448.509V427.964H139.109V451.334H113.539L127.029 485.234L113.539 519.134H158.859V499.444H428.769V519.134H474.089L460.599 485.234L474.089 451.334H474.079ZM119.159 515.304L131.129 485.224L119.159 455.144H139.109V499.424H139.159L139.119 499.464L152.659 515.294H119.159V515.304ZM155.029 511.224L144.959 499.434H155.029V511.224ZM142.929 495.614V431.774H444.679V495.614H142.929ZM432.579 499.434H442.649L432.579 511.224V499.434ZM468.449 515.304H434.949L448.509 499.444V455.144H468.459L456.479 485.224L468.459 515.304H468.449Z" fill="black"/>
<path d="M195.46 445.644C205.64 445.644 213.79 453.844 213.79 464.024C213.79 474.204 205.65 482.304 195.46 482.304C185.27 482.304 177.18 474.214 177.18 464.024C177.18 453.834 185.27 445.644 195.46 445.644ZM195.46 474.144C201.06 474.144 205.64 469.564 205.64 464.014C205.64 458.464 201.06 453.784 195.46 453.784C189.86 453.784 185.33 458.414 185.33 464.014C185.33 469.614 189.91 474.144 195.46 474.144Z" fill="black"/>
<path d="M219.949 447.114C219.949 446.604 220.359 446.144 220.919 446.144H233.189C239.449 446.144 244.589 451.234 244.589 457.394C244.589 463.554 239.449 468.844 233.239 468.844H227.889V480.804C227.889 481.314 227.429 481.774 226.919 481.774H220.909C220.349 481.774 219.939 481.314 219.939 480.804V447.104L219.949 447.114ZM232.729 461.424C234.919 461.424 236.749 459.694 236.749 457.404C236.749 455.264 234.919 453.634 232.729 453.634H227.889V461.424H232.729Z" fill="black"/>
<path d="M249.789 447.114C249.789 446.604 250.199 446.144 250.759 446.144H271.839C272.399 446.144 272.809 446.604 272.809 447.114V452.664C272.809 453.174 272.399 453.634 271.839 453.634H257.739V459.944H269.349C269.859 459.944 270.319 460.404 270.319 460.914V466.464C270.319 467.024 269.859 467.434 269.349 467.434H257.739V474.304H271.839C272.399 474.304 272.809 474.764 272.809 475.274V480.824C272.809 481.334 272.399 481.794 271.839 481.794H250.759C250.199 481.794 249.789 481.334 249.789 480.824V447.124V447.114Z" fill="black"/>
<path d="M279.629 447.114C279.629 446.604 280.089 446.144 280.599 446.144H286.709C287.219 446.144 287.679 446.604 287.679 447.114V480.814C287.679 481.324 287.219 481.784 286.709 481.784H280.599C280.089 481.784 279.629 481.324 279.629 480.814V447.114Z" fill="black"/>
<path d="M295.919 447.114C295.919 446.604 296.379 446.144 296.889 446.144H303.149C303.709 446.144 304.119 446.604 304.119 447.114V467.734C304.119 471.294 306.769 474.144 310.379 474.144C313.989 474.144 316.739 471.294 316.739 467.734V447.114C316.739 446.604 317.149 446.144 317.709 446.144H323.969C324.479 446.144 324.939 446.604 324.939 447.114V468.134C324.939 475.874 318.419 482.284 310.379 482.284C302.339 482.284 295.919 475.874 295.919 468.134V447.114Z" fill="black"/>
<path d="M347.089 457.904H342.199C341.689 457.904 341.289 457.444 341.289 456.934V453.724C341.289 453.524 341.439 453.114 341.589 452.964L349.019 447.164H353.699C354.209 447.164 354.619 447.624 354.619 448.134V480.814C354.619 481.324 354.209 481.784 353.699 481.784H348.049C347.489 481.784 347.079 481.324 347.079 480.814V457.904H347.089Z" fill="black"/>
<path d="M361.6 476.334L364.81 473.174C365.12 472.864 365.62 472.764 366.03 473.024C366.03 473.024 369.64 475.464 372.09 475.464C374.84 475.464 376.93 473.424 376.93 470.624C376.93 467.824 375 465.684 371.69 465.684H363.85C362.83 465.684 362.27 464.714 362.27 463.904V448.124C362.27 447.614 362.68 447.154 363.24 447.154H379.63C380.19 447.154 380.6 447.614 380.6 448.124V452.604C380.6 453.114 380.19 453.574 379.63 453.574H369.14V459.024H372.75C379.78 459.024 384.36 463.964 384.36 470.634C384.36 477.304 378.91 482.294 371.79 482.294C366.5 482.294 362.98 479.594 361.71 478.064C361.05 477.304 361 476.944 361.61 476.334H361.6Z" fill="black"/>
<path d="M387.459 476.494L390.669 473.284C391.029 472.924 391.539 472.874 391.939 473.184C391.939 473.184 395.099 475.524 397.539 475.524C399.729 475.524 401.969 473.694 401.969 471.454C401.969 469.214 399.679 467.334 395.909 467.334H393.059C392.549 467.334 392.089 466.874 392.089 466.364V462.134C392.089 461.574 392.549 461.164 393.059 461.164H395.909C399.469 461.164 401.359 459.434 401.359 457.244C401.359 455.054 399.479 453.424 397.289 453.424C395.099 453.424 393.619 454.594 392.859 455.464C392.499 455.874 391.889 455.874 391.489 455.514L388.379 452.464C387.969 452.104 388.019 451.494 388.379 451.144C388.379 451.144 392.549 446.664 398.099 446.664C404.009 446.664 409.099 450.274 409.099 455.984C409.099 459.904 406.149 462.804 403.859 463.874V464.024C406.249 465.044 410.019 468.194 410.019 472.574C410.019 478.124 405.179 482.294 398.159 482.294C391.749 482.294 388.489 479.134 387.419 477.764C387.109 477.404 387.169 476.844 387.469 476.494H387.459Z" fill="black"/>
</svg>
