<svg width="928" height="928" viewBox="0 0 928 928" fill="none" xmlns="http://www.w3.org/2000/svg">
<circle cx="464" cy="464" r="380.724" fill="#231F20"/>
<circle cx="464" cy="464" r="356.198" fill="#231F20" stroke="white" stroke-width="9.85851"/>
<path d="M195.939 472.268L160.819 481.744C160.088 481.944 159.571 481.522 159.579 480.792L159.644 474.696C159.648 474.279 160.017 473.866 160.383 473.766L178.095 469.472L178.097 469.264L159.841 460.993C159.53 460.833 159.273 460.518 159.277 460.101L159.287 459.163C159.292 458.694 159.556 458.384 159.87 458.283L178.297 450.401L178.299 450.193L160.683 445.524C160.319 445.416 159.959 444.995 159.963 444.579L160.028 438.482C160.036 437.753 160.561 437.341 161.289 437.557L196.2 447.778C196.615 447.886 196.924 448.306 196.919 448.723L196.91 449.557C196.906 449.922 196.642 450.284 196.328 450.437L174.915 459.746L174.913 459.902L196.124 469.612C196.435 469.771 196.692 470.139 196.688 470.504L196.679 471.337C196.674 471.754 196.357 472.168 195.939 472.268ZM196.169 434.366L162.034 429.388C161.518 429.313 161.114 428.833 161.197 428.266L164.31 406.918C164.392 406.351 164.917 406.006 165.432 406.081L171.053 406.901C171.568 406.976 171.972 407.456 171.89 408.024L169.807 422.307L176.201 423.239L177.915 411.483C177.99 410.967 178.522 410.571 179.038 410.646L184.658 411.465C185.225 411.548 185.57 412.072 185.495 412.588L183.781 424.345L190.742 425.36L192.824 411.076C192.907 410.509 193.431 410.164 193.947 410.24L199.568 411.059C200.083 411.134 200.487 411.615 200.404 412.182L197.291 433.529C197.209 434.096 196.684 434.441 196.169 434.366ZM200.017 398.084C199.371 398.439 199.127 398.531 198.543 397.927L195.074 394.367C194.54 393.777 194.917 392.856 195.269 392.578C195.427 392.407 199.127 389.576 200.088 386.274C200.67 384.272 199.841 382.458 198.09 381.948C195.988 381.337 193.878 382.622 191.537 385.632C188.584 389.44 183.66 393.868 177.656 392.122C172.702 390.681 168.819 385.373 171.061 377.667C172.575 372.464 176.391 369.232 177.928 368.051C178.453 367.553 179.325 367.915 179.617 368.217L182.727 371.889C183.176 372.4 183.364 373.431 182.883 373.78C182.502 374.157 178.687 377.009 177.799 380.062C177.275 381.863 178.083 383.563 179.434 383.956C181.285 384.495 183.123 383.401 185.874 379.914C188.56 376.463 193.417 371.146 200.222 373.125C205.376 374.625 209.284 380.591 207.144 387.947C205.252 394.451 201.503 397.268 200.017 398.084ZM212.455 367.315L186.563 357.12L183.833 364.053C183.623 364.587 183.034 364.803 182.549 364.612L177.264 362.531C176.779 362.34 176.496 361.78 176.706 361.247L185.183 339.719C185.393 339.186 185.982 338.97 186.467 339.161L191.752 341.242C192.237 341.433 192.52 341.992 192.31 342.526L189.58 349.459L215.471 359.655C215.956 359.846 216.221 360.454 216.03 360.939L213.739 366.757C213.548 367.242 212.939 367.506 212.455 367.315ZM218.604 354.592C218.244 355.286 217.451 355.345 216.993 354.756L193.357 324.141C193.151 323.859 193.088 323.415 193.256 323.091L193.495 322.629C193.663 322.305 194.062 322.101 194.412 322.106L233.053 323.756C233.799 323.79 234.208 324.471 233.849 325.165L231.188 330.301C230.757 331.134 230.287 331.36 229.192 331.321L224.674 331.093L218.154 343.679L220.993 347.262C221.428 347.781 221.72 348.577 221.24 349.503L218.604 354.592ZM213.3 337.642L216.943 330.61L207.487 330.171L207.463 330.217L213.3 337.642ZM234.948 322.187L206.164 302.153C205.737 301.855 205.663 301.232 205.962 300.805L206.708 299.737L235.017 294.144L235.047 294.102L219.879 283.511C219.452 283.213 219.306 282.603 219.634 282.133L223.214 277.006C223.512 276.579 224.165 276.463 224.592 276.761L253.347 296.837C253.774 297.136 253.847 297.759 253.549 298.186L253.072 298.87C252.982 298.998 252.615 299.25 252.47 299.276L223.725 304.309L223.695 304.352L239.632 315.479C240.059 315.778 240.205 316.388 239.877 316.858L236.327 321.942C236.028 322.369 235.375 322.485 234.948 322.187ZM257.374 291.159L232.069 267.714C231.687 267.36 231.626 266.735 231.981 266.353L240.622 257.026C247.457 249.649 259.054 249.17 266.393 255.969C273.809 262.84 274.214 274.44 267.379 281.817L258.738 291.144C258.384 291.526 257.756 291.513 257.374 291.159ZM257.968 280.627L261.368 276.958C265.37 272.638 264.872 266.352 260.514 262.315C256.195 258.313 249.889 258.295 245.887 262.615L242.487 266.284L257.968 280.627ZM295.408 255.435L266.618 233.201C266.015 232.74 266.039 232.073 266.625 231.638L271.519 228.002C271.853 227.753 272.405 227.797 272.707 228.028L286.84 239.534L287.007 239.41L282.55 219.87C282.489 219.525 282.585 219.13 282.919 218.881L283.672 218.322C284.048 218.042 284.455 218.065 284.725 218.254L302.148 228.159L302.315 228.035L295.376 211.183C295.243 210.828 295.36 210.286 295.694 210.038L300.588 206.402C301.173 205.966 301.819 206.136 302.087 206.846L315.067 240.827C315.232 241.224 315.084 241.724 314.749 241.972L314.08 242.47C313.787 242.687 313.339 242.696 313.027 242.538L292.661 231.118L292.536 231.212L297.635 253.975C297.696 254.319 297.558 254.746 297.266 254.963L296.596 255.461C296.262 255.709 295.741 255.707 295.408 255.435ZM325.651 232.608L308.237 202.83C307.974 202.38 308.142 201.738 308.592 201.475L313.99 198.319C314.44 198.056 315.081 198.224 315.345 198.674L332.759 228.452C333.022 228.902 332.854 229.543 332.404 229.806L327.006 232.963C326.556 233.226 325.914 233.058 325.651 232.608ZM343.137 223.183L330.931 198.176L324.235 201.445C323.72 201.696 323.139 201.458 322.911 200.989L320.419 195.885C320.191 195.417 320.36 194.813 320.875 194.561L341.667 184.413C342.182 184.161 342.763 184.4 342.991 184.868L345.482 189.973C345.711 190.441 345.542 191.045 345.027 191.297L338.33 194.565L350.536 219.572C350.764 220.04 350.549 220.667 350.08 220.896L344.461 223.639C343.993 223.867 343.365 223.651 343.137 223.183ZM361.221 214.946L349.81 182.391C349.638 181.9 349.925 181.302 350.417 181.13L356.269 179.078C356.81 178.889 357.359 179.193 357.531 179.685L361.875 192.077L375.939 187.148L371.595 174.755C371.423 174.264 371.661 173.683 372.202 173.494L378.054 171.442C378.546 171.27 379.144 171.557 379.316 172.049L390.727 204.604C390.899 205.095 390.612 205.693 390.12 205.865L384.268 207.917C383.727 208.106 383.179 207.802 383.006 207.31L378.473 194.377L364.409 199.306L368.942 212.24C369.114 212.731 368.876 213.312 368.335 213.501L362.483 215.553C361.991 215.725 361.394 215.438 361.221 214.946ZM406.64 200.443L400.943 166.949C400.829 166.281 401.247 165.629 401.966 165.506L407.976 164.484C408.644 164.37 409.305 164.839 409.419 165.507L411.717 179.018L420.701 162.848C420.863 162.556 421.281 162.221 421.59 162.168L428.062 161.067C429.039 160.901 429.744 161.944 429.31 162.811L419.85 179.907L435.851 194.734C436.547 195.409 436.174 196.635 435.198 196.801L428.109 198.007C427.749 198.068 427.252 197.941 427.123 197.805L412.512 183.693L415.116 199.001C415.23 199.669 414.761 200.33 414.093 200.444L408.083 201.466C407.363 201.589 406.754 201.111 406.64 200.443ZM439.309 195.555L436.548 161.17C436.506 160.65 436.936 160.145 437.456 160.104L443.689 159.603C444.208 159.562 444.713 159.991 444.755 160.511L447.516 194.897C447.557 195.416 447.127 195.921 446.608 195.963L440.375 196.463C439.855 196.505 439.35 196.075 439.309 195.555ZM451.982 177.523C452.081 167.102 460.55 158.792 470.971 158.891C476.182 158.941 480.023 160.592 483.535 163.857C484 164.278 483.994 164.903 483.574 165.316L479.469 169.498C479.101 169.86 478.528 169.854 478.166 169.486C476.255 167.748 473.71 166.786 471.157 166.762C465.269 166.706 460.898 171.563 460.843 177.399C460.788 183.183 465.119 188.018 471.007 188.074C473.456 188.097 476.122 187.237 478.013 185.639C478.381 185.33 479.058 185.336 479.368 185.704L483.391 190.067C483.752 190.436 483.694 191.113 483.326 191.474C479.75 194.879 475.253 196.452 470.616 196.408C460.194 196.309 451.884 187.945 451.982 177.523ZM487.548 195.349L491.981 161.664C492.069 160.992 492.661 160.492 493.384 160.587L499.429 161.383C500.1 161.471 500.594 162.114 500.506 162.786L498.717 176.373L512.07 163.572C512.311 163.341 512.81 163.144 513.12 163.184L519.629 164.041C520.611 164.17 520.978 165.375 520.308 166.075L506.226 179.622L517.143 198.508C517.61 199.357 516.892 200.419 515.91 200.29L508.78 199.352C508.419 199.304 507.981 199.036 507.898 198.868L498.099 181.075L496.073 196.471C495.984 197.142 495.341 197.636 494.669 197.547L488.625 196.752C487.901 196.657 487.46 196.02 487.548 195.349ZM519.032 197.55C518.65 196.92 518.549 196.68 519.128 196.071L522.541 192.458C523.108 191.901 524.045 192.239 524.336 192.579C524.514 192.73 527.495 196.31 530.835 197.133C532.858 197.632 534.637 196.729 535.074 194.959C535.598 192.834 534.227 190.778 531.123 188.564C527.196 185.77 522.568 181.033 524.065 174.962C525.3 169.953 530.444 165.854 538.235 167.776C543.497 169.073 546.883 172.753 548.126 174.24C548.646 174.744 548.32 175.63 548.031 175.934L544.49 179.194C543.998 179.663 542.975 179.893 542.607 179.427C542.214 179.062 539.207 175.368 536.121 174.607C534.3 174.158 532.634 175.036 532.297 176.402C531.836 178.274 533.004 180.064 536.602 182.669C540.161 185.211 545.674 189.844 543.977 196.725C542.692 201.936 536.892 206.087 529.455 204.253C522.877 202.631 519.908 199.001 519.032 197.55ZM550.289 208.699L559.384 182.401L552.342 179.965C551.8 179.778 551.559 179.198 551.729 178.706L553.586 173.338C553.756 172.846 554.304 172.539 554.845 172.726L576.711 180.288C577.253 180.475 577.493 181.055 577.323 181.547L575.467 186.915C575.296 187.408 574.749 187.715 574.207 187.527L567.165 185.092L558.07 211.39C557.9 211.882 557.303 212.172 556.811 212.002L550.901 209.958C550.408 209.788 550.118 209.191 550.289 208.699ZM563.26 214.307C562.552 213.976 562.461 213.186 563.03 212.704L592.645 187.827C592.919 187.61 593.359 187.528 593.69 187.682L594.162 187.903C594.493 188.057 594.713 188.447 594.722 188.797L594.666 227.474C594.663 228.22 593.998 228.657 593.29 228.326L588.049 225.88C587.199 225.483 586.954 225.023 586.948 223.928L586.989 219.404L574.146 213.408L570.683 216.392C570.182 216.848 569.398 217.172 568.454 216.732L563.26 214.307ZM579.977 208.309L587.154 211.66L587.203 202.194L587.155 202.172L579.977 208.309ZM596.328 229.261L614.611 200.008C614.887 199.566 615.489 199.39 615.975 199.693L629.188 207.951C634.49 211.265 636.142 218.258 632.855 223.517C630.315 227.582 625.575 229.167 620.764 228.311L619.803 243.319C619.754 244.086 619.002 244.6 618.251 244.131L612.374 240.457C612.021 240.236 611.893 239.85 611.916 239.618L613.357 224.235L610.308 222.329L603.266 233.597C602.989 234.039 602.343 234.188 601.901 233.912L596.643 230.625C596.157 230.322 596.052 229.703 596.328 229.261ZM613.816 216.717L620.356 220.804C622.167 221.937 624.763 221.224 625.923 219.368C627.083 217.512 626.476 215.043 624.664 213.911L618.124 209.824L613.816 216.717ZM627.649 249.993L644.822 228.098L638.959 223.499C638.508 223.146 638.469 222.519 638.791 222.109L642.296 217.64C642.618 217.23 643.235 217.118 643.686 217.472L661.891 231.751C662.342 232.105 662.381 232.731 662.059 233.141L658.554 237.61C658.232 238.02 657.615 238.132 657.163 237.778L651.3 233.179L634.127 255.074C633.806 255.484 633.147 255.564 632.737 255.242L627.817 251.383C627.407 251.061 627.327 250.403 627.649 249.993ZM642.999 262.596L666.84 237.664C667.2 237.287 667.826 237.236 668.24 237.632L683.832 252.542C684.246 252.938 684.223 253.565 683.863 253.942L679.938 258.047C679.578 258.423 678.952 258.474 678.538 258.078L668.106 248.102L663.64 252.772L672.227 260.983C672.604 261.344 672.618 262.007 672.258 262.383L668.333 266.488C667.937 266.903 667.31 266.88 666.933 266.52L658.346 258.309L653.484 263.393L663.917 273.369C664.331 273.765 664.308 274.392 663.948 274.769L660.023 278.874C659.662 279.25 659.037 279.301 658.623 278.905L643.031 263.996C642.616 263.599 642.639 262.972 642.999 262.596ZM663.256 282.675L689.762 260.598C690.163 260.264 690.79 260.285 691.157 260.725L701.128 272.697C705.13 277.502 704.515 284.66 699.75 288.629C696.066 291.697 691.069 291.723 686.766 289.407L681.165 303.363C680.878 304.077 680.004 304.33 679.437 303.649L675.001 298.324C674.735 298.004 674.735 297.597 674.828 297.383L681.003 283.22L678.702 280.458L668.492 288.962C668.092 289.295 667.431 289.235 667.098 288.835L663.129 284.07C662.762 283.629 662.856 283.009 663.256 282.675ZM683.787 276.222L688.723 282.148C690.09 283.79 692.779 283.924 694.461 282.523C696.142 281.122 696.336 278.587 694.969 276.945L690.033 271.02L683.787 276.222ZM700.109 309.07L718.648 298.14C719.097 297.875 719.739 298.041 720.004 298.49L723.259 304.011C723.55 304.505 723.358 305.102 722.909 305.367L704.73 316.085C701.587 317.938 700.45 321.754 702.329 324.941C704.234 328.173 708.151 329.07 711.293 327.218L729.473 316.499C729.922 316.235 730.537 316.355 730.828 316.849L734.084 322.371C734.348 322.819 734.183 323.462 733.734 323.726L715.195 334.656C708.372 338.679 699.328 336.268 695.147 329.176C690.992 322.128 693.286 313.093 700.109 309.07ZM706.709 347.038L739.053 333.482C739.534 333.282 740.099 333.554 740.3 334.035L740.802 335.237L730.344 362.132L730.364 362.18L747.435 355.055C747.916 354.854 748.51 355.058 748.73 355.587L751.139 361.358C751.34 361.838 751.087 362.452 750.607 362.653L718.243 376.16C717.762 376.361 717.197 376.089 716.996 375.608L716.675 374.838C716.614 374.694 716.598 374.249 716.654 374.113L727.818 347.15L727.797 347.102L709.86 354.588C709.379 354.789 708.786 354.585 708.565 354.056L706.177 348.333C705.976 347.852 706.228 347.239 706.709 347.038ZM721.025 382.524L754.037 372.514C754.536 372.362 755.121 372.675 755.272 373.174L757.087 379.158C757.238 379.656 756.925 380.241 756.426 380.393L723.415 390.403C722.916 390.555 722.331 390.242 722.18 389.743L720.365 383.759C720.214 383.261 720.527 382.676 721.025 382.524ZM726.145 401.716L753.291 395.6L751.653 388.33C751.527 387.771 751.893 387.261 752.401 387.147L757.942 385.899C758.451 385.784 759 386.088 759.126 386.647L764.211 409.218C764.337 409.777 763.971 410.287 763.462 410.401L757.921 411.649C757.413 411.764 756.864 411.46 756.738 410.901L755.1 403.632L727.954 409.747C727.446 409.862 726.885 409.508 726.771 408.999L725.396 402.899C725.282 402.391 725.636 401.83 726.145 401.716ZM730.069 421.186L764.309 416.994C764.826 416.931 765.343 417.288 765.412 417.857L768.034 439.27C768.103 439.839 767.688 440.31 767.171 440.373L761.533 441.063C761.016 441.127 760.5 440.77 760.43 440.201L758.676 425.874L752.263 426.659L753.706 438.452C753.77 438.969 753.361 439.491 752.844 439.555L747.206 440.245C746.637 440.314 746.166 439.9 746.103 439.382L744.659 427.589L737.677 428.444L739.431 442.772C739.5 443.341 739.085 443.811 738.568 443.875L732.93 444.565C732.413 444.628 731.897 444.271 731.827 443.702L729.206 422.289C729.136 421.72 729.551 421.249 730.069 421.186ZM732.983 449.564L767.479 449.59C768 449.59 768.469 450.008 768.469 450.529L768.459 463.243C768.452 473.3 760.264 481.528 750.259 481.52C740.15 481.513 731.975 473.273 731.983 463.216L731.992 450.501C731.993 449.98 732.462 449.564 732.983 449.564ZM739.699 457.698L739.695 462.701C739.691 468.589 744.325 472.865 750.266 472.87C756.154 472.874 760.795 468.605 760.799 462.716L760.803 457.714L739.699 457.698Z" fill="white"/>
<path d="M463.986 220.471C332.371 220.471 225.073 326.512 222.997 457.642V465.399C223.406 491.58 228.012 516.775 236.178 540.32L238.845 547.592C248.056 571.606 260.995 593.772 276.964 613.407L281.934 619.346C298.599 638.542 318.265 655.087 340.158 668.253L346.87 672.132C368.808 684.389 392.868 693.312 418.321 698.206L425.957 699.555C438.35 701.524 451.047 702.57 463.986 702.57C476.924 702.57 489.636 701.524 502.029 699.555L509.665 698.206C535.118 693.312 559.163 684.389 581.116 672.132L587.828 668.253C609.721 655.087 629.371 638.542 646.052 619.346L651.022 613.407C666.991 593.772 679.93 571.606 689.141 547.592L691.793 540.32C699.959 516.775 704.58 491.58 704.989 465.399V457.642C702.913 326.512 595.616 220.471 463.986 220.471ZM230.739 465.399H442.017L243.466 537.668C235.603 514.957 231.163 490.655 230.739 465.399ZM246.132 544.941L444.668 472.671L282.903 608.423C267.51 589.484 255.026 568.091 246.132 544.941ZM344.037 661.541C322.917 648.83 303.963 632.876 287.873 614.362L449.653 478.611L344.037 661.541ZM419.669 690.585C395.11 685.843 371.914 677.237 350.749 665.42L456.365 482.489L419.669 690.585ZM463.986 694.812C451.516 694.812 439.259 693.828 427.305 691.919L463.986 483.822L500.681 691.919C488.727 693.828 476.47 694.812 463.986 694.812ZM508.317 690.585L471.621 482.489L577.238 665.42C556.072 677.237 532.876 685.843 508.317 690.585ZM583.949 661.541L478.333 478.611L640.113 614.362C624.023 632.876 605.07 648.83 583.949 661.541ZM645.083 608.423L483.318 472.671L681.854 544.941C672.96 568.091 660.476 589.484 645.083 608.423ZM684.52 537.668L485.954 465.399H697.247C696.823 490.655 692.384 514.957 684.52 537.668ZM230.739 457.642C232.815 330.784 336.643 228.229 463.986 228.229C591.328 228.229 695.156 330.784 697.247 457.642H230.739Z" fill="white"/>
<path d="M610.569 336.103C609.887 333.527 607.236 332.012 604.69 332.694L568.268 342.375C567.389 342.602 566.601 343.087 565.98 343.754L544.421 366.98C544.027 366.677 543.693 366.328 543.269 366.071L467.652 317.073C463.712 314.497 458.652 314.255 454.455 316.452L419.321 334.815C418.124 335.451 416.639 335.315 415.578 334.512C414.821 333.936 414.336 333.118 414.215 332.178C414.094 331.254 414.336 330.315 414.912 329.573L431.456 308.058C434.259 304.407 438.304 301.937 442.835 301.089L462.228 297.483C472.939 295.498 483.772 295.62 494.423 297.862L515.058 302.195C517.619 302.725 520.24 302.498 522.664 301.528C523.013 301.377 523.361 301.18 523.694 300.953L564.708 271.272C566.829 269.727 567.329 266.712 565.753 264.56C564.223 262.409 561.208 261.924 559.056 263.485L518.634 292.756C518.119 292.892 517.573 292.892 517.043 292.786L496.408 288.453C484.514 285.953 472.424 285.817 460.455 288.044L441.077 291.65C435.759 292.635 430.896 295.12 427.002 298.756L408.927 295.877C408.685 295.847 408.442 295.786 408.215 295.695L368.732 263.651C366.672 261.985 363.641 262.288 361.975 264.364C360.293 266.409 360.611 269.439 362.672 271.121L402.624 303.528C402.882 303.725 403.14 303.907 403.443 304.059C404.7 304.71 406.033 305.149 407.427 305.377L419.866 307.346L407.291 323.724C405.155 326.512 404.23 329.966 404.7 333.466C405.155 336.951 406.973 340.042 409.76 342.178C413.806 345.208 419.29 345.678 423.775 343.329L458.91 324.967C460.016 324.376 461.364 324.452 462.44 325.133L538.042 374.131C539.709 375.222 540.875 376.888 541.254 378.843C541.693 380.797 541.3 382.782 540.209 384.449C538.012 387.767 533.618 388.767 530.209 386.721L489.302 362.253C487.029 360.889 484.09 361.632 482.727 363.919C481.348 366.192 482.105 369.131 484.378 370.51L517.089 390.07L521.028 392.433C522.134 393.1 522.922 394.16 523.21 395.433C523.482 396.691 523.255 397.978 522.543 399.069C520.073 402.811 515.058 404.069 511.119 401.918L479.136 384.494C476.833 383.237 473.909 384.085 472.636 386.418C471.364 388.751 472.197 391.676 474.53 392.933L497.635 405.523L503.317 408.993C504.377 409.644 505.089 410.675 505.332 411.902C505.559 413.129 505.271 414.356 504.544 415.356C504.483 415.462 504.392 415.553 504.332 415.644C502.15 419.068 497.786 420.25 494.165 418.417L469.424 405.857C467.061 404.66 464.152 405.599 462.955 407.963C461.758 410.326 462.697 413.22 465.061 414.417L485.651 424.871C481.454 427.492 476.424 428.598 471.348 427.825L452.743 424.977L454.076 423.083C458.243 417.114 457.137 408.826 451.592 404.13C451.546 404.084 451.486 404.054 451.425 404.008C449.683 402.569 447.607 401.645 445.425 401.16C447.137 395.266 445.304 388.661 440.32 384.63C437.698 382.494 434.411 381.328 431.062 381.206C431.138 379.934 431.093 378.661 430.835 377.373C430.002 373.222 427.593 369.662 424.032 367.359C417.048 362.798 407.548 364.662 402.761 371.495C401.549 369.646 399.943 368.04 397.943 366.798C391.837 363.025 384.065 364.025 379.08 368.859L361.566 345.738C360.96 344.951 360.142 344.375 359.187 344.072L323.492 332.754C320.977 331.936 318.28 333.36 317.477 335.875C316.674 338.405 318.068 341.102 320.613 341.905L354.839 352.768L373.126 376.888L368.035 384.176C363.202 391.085 364.869 400.69 371.732 405.584L372.005 405.781C374.565 407.614 377.565 408.584 380.686 408.629C380.656 413.553 382.974 418.417 387.292 421.447C389.943 423.326 393.034 424.295 396.216 424.295C397.17 424.295 398.109 424.22 399.064 424.038C399.912 423.886 400.761 423.613 401.579 423.326C402.882 426.795 405.367 429.734 408.654 431.507C411.018 432.78 413.548 433.386 416.078 433.386C418.442 433.386 420.775 432.825 422.926 431.78C424.457 434.643 426.911 436.916 429.987 438.189C431.759 438.916 433.623 439.279 435.441 439.279C439.714 439.279 443.819 437.295 446.562 433.749L469.894 437.325C471.47 437.567 473.045 437.689 474.621 437.689C482.666 437.689 490.317 434.507 496.09 428.795C496.65 428.856 497.196 428.901 497.756 428.901C503.483 428.901 509.028 426.068 512.346 420.947C514.119 418.508 515.028 415.538 514.983 412.553C515.058 412.553 515.119 412.553 515.21 412.553C521.21 412.553 527.103 409.614 530.558 404.327C531.982 402.19 532.709 399.781 532.83 397.312C533.239 397.342 533.618 397.387 534.027 397.387C539.557 397.387 544.951 394.675 548.208 389.721C550.754 385.903 551.617 381.343 550.663 376.858C550.542 376.207 550.284 375.601 550.087 374.964L572.071 351.284L607.16 341.966C609.721 341.284 611.236 338.648 610.569 336.087V336.103ZM385.352 396.963C384.489 397.994 383.307 398.69 381.974 398.933C380.429 399.206 378.853 398.857 377.58 397.948L377.307 397.766C374.717 395.918 374.08 392.282 375.914 389.676L385.065 376.601C386.171 374.995 387.958 374.131 389.807 374.131C390.883 374.131 391.989 374.419 393.004 375.04C394.367 375.889 395.291 377.222 395.64 378.782C395.943 380.222 395.685 381.661 394.943 382.918L385.352 396.963ZM403.215 408.917C402.958 409.296 402.791 409.705 402.564 410.099L401.215 412.069C400.306 413.402 398.928 414.296 397.337 414.584C395.746 414.871 394.14 414.523 392.807 413.584C390.14 411.705 389.458 407.993 391.292 405.296L393.261 402.418C393.398 402.236 393.549 402.099 393.67 401.918C396.519 397.781 399.867 392.842 402.715 388.645C402.791 388.539 402.821 388.418 402.897 388.312L410.579 377.055C411.73 375.373 413.639 374.449 415.563 374.449C416.684 374.449 417.805 374.767 418.805 375.404C420.169 376.298 421.093 377.661 421.411 379.267C421.73 380.858 421.411 382.479 420.487 383.812L417.866 387.676C417.806 387.767 417.715 387.827 417.654 387.903L403.215 408.917ZM423.745 416.962C423.502 417.311 423.366 417.69 423.154 418.053L421.017 421.174C419.275 423.689 415.927 424.507 413.215 423.053C411.7 422.235 410.639 420.856 410.23 419.174C409.927 417.932 410.033 416.659 410.503 415.508L425.775 393.13C426.729 391.873 428.093 391.054 429.653 390.827C429.956 390.782 430.244 390.767 430.532 390.767C431.896 390.767 433.214 391.221 434.29 392.1C436.714 394.054 437.229 397.6 435.456 400.16L431.108 406.478C431.017 406.614 430.881 406.72 430.79 406.857L423.745 416.962ZM446.183 417.599L439.153 427.689C437.911 429.462 435.653 430.128 433.653 429.295C432.365 428.765 431.396 427.689 431.002 426.356C430.714 425.371 430.759 424.356 431.123 423.417L439.017 411.947C439.729 411.129 440.698 410.584 441.804 410.432C442.016 410.402 442.229 410.387 442.441 410.387C443.456 410.387 444.441 410.72 445.244 411.357C445.274 411.387 445.304 411.417 445.334 411.432C447.168 412.947 447.547 415.644 446.183 417.599Z" fill="white"/>
<path d="M685.035 625.501L669.778 643.364V625.501H685.035Z" fill="#231F20"/>
<path d="M705.989 603.972L724.124 649.546H673.369L693.914 625.516V558.398H724.124L705.989 603.972Z" fill="#231F20"/>
<path d="M249.283 625.501V643.364L234.026 625.501H249.283Z" fill="#231F20"/>
<path d="M194.938 649.546L213.058 603.972L194.938 558.398H225.163V625.501H225.239L225.178 625.562L245.693 649.546H194.938Z" fill="#231F20"/>
<path d="M688.111 522.991H230.936V619.713H688.111V522.991Z" fill="#231F20"/>
<path d="M732.654 552.626H693.913V517.219H225.148V552.626H186.407L206.846 603.987L186.407 655.349H255.071V625.517H664.006V655.349H732.669L712.231 603.987L732.669 552.626H732.654ZM194.922 649.546L213.057 603.972L194.922 558.399H225.148V625.486H225.224L225.163 625.547L245.677 649.531H194.922V649.546ZM249.268 643.364L234.011 625.501H249.268V643.364ZM230.935 619.714V522.991H688.11V619.714H230.935ZM669.778 625.501H685.035L669.778 643.364V625.501ZM724.124 649.546H673.369L693.913 625.517V558.399H724.139L705.988 603.972L724.139 649.546H724.124Z" fill="white"/>
<path d="M310.524 544.005C325.947 544.005 338.295 556.429 338.295 571.853C338.295 587.276 325.962 599.548 310.524 599.548C295.085 599.548 282.828 587.291 282.828 571.853C282.828 556.414 295.085 544.005 310.524 544.005ZM310.524 587.185C319.008 587.185 325.947 580.246 325.947 571.837C325.947 563.429 319.008 556.338 310.524 556.338C302.039 556.338 295.176 563.353 295.176 571.837C295.176 580.322 302.115 587.185 310.524 587.185Z" fill="white"/>
<path d="M347.628 546.232C347.628 545.46 348.25 544.763 349.098 544.763H367.688C377.172 544.763 384.96 552.474 384.96 561.807C384.96 571.14 377.172 579.155 367.764 579.155H359.658V597.275C359.658 598.048 358.961 598.745 358.189 598.745H349.083C348.234 598.745 347.613 598.048 347.613 597.275V546.217L347.628 546.232ZM366.991 567.913C370.309 567.913 373.082 565.292 373.082 561.822C373.082 558.58 370.309 556.111 366.991 556.111H359.658V567.913H366.991Z" fill="white"/>
<path d="M392.838 546.232C392.838 545.46 393.459 544.763 394.308 544.763H426.245C427.094 544.763 427.715 545.46 427.715 546.232V554.641C427.715 555.414 427.094 556.111 426.245 556.111H404.883V565.671H422.473C423.246 565.671 423.942 566.368 423.942 567.14V575.549C423.942 576.398 423.246 577.019 422.473 577.019H404.883V587.427H426.245C427.094 587.427 427.715 588.124 427.715 588.897V597.306C427.715 598.078 427.094 598.775 426.245 598.775H394.308C393.459 598.775 392.838 598.078 392.838 597.306V546.247V546.232Z" fill="white"/>
<path d="M438.047 546.232C438.047 545.46 438.744 544.763 439.517 544.763H448.774C449.546 544.763 450.243 545.46 450.243 546.232V597.291C450.243 598.063 449.546 598.76 448.774 598.76H439.517C438.744 598.76 438.047 598.063 438.047 597.291V546.232Z" fill="white"/>
<path d="M462.728 546.232C462.728 545.46 463.424 544.763 464.197 544.763H473.682C474.53 544.763 475.151 545.46 475.151 546.232V577.473C475.151 582.867 479.166 587.185 484.636 587.185C490.105 587.185 494.271 582.867 494.271 577.473V546.232C494.271 545.46 494.893 544.763 495.741 544.763H505.225C505.998 544.763 506.695 545.46 506.695 546.232V578.079C506.695 589.806 496.817 599.518 484.636 599.518C472.454 599.518 462.728 589.806 462.728 578.079V546.232Z" fill="white"/>
<path d="M540.255 562.581H532.847C532.074 562.581 531.468 561.884 531.468 561.111V556.248C531.468 555.944 531.695 555.323 531.922 555.096L543.179 546.309H550.27C551.043 546.309 551.664 547.006 551.664 547.778V597.291C551.664 598.064 551.043 598.761 550.27 598.761H541.71C540.861 598.761 540.24 598.064 540.24 597.291V562.581H540.255Z" fill="white"/>
<path d="M562.238 590.503L567.101 585.716C567.571 585.246 568.328 585.095 568.949 585.489C568.949 585.489 574.419 589.185 578.131 589.185C582.297 589.185 585.464 586.095 585.464 581.852C585.464 577.61 582.54 574.368 577.525 574.368H565.647C564.101 574.368 563.253 572.898 563.253 571.671V547.763C563.253 546.99 563.874 546.293 564.722 546.293H589.555C590.403 546.293 591.024 546.99 591.024 547.763V554.551C591.024 555.323 590.403 556.02 589.555 556.02H573.661V564.277H579.131C589.782 564.277 596.721 571.762 596.721 581.868C596.721 591.973 588.464 599.533 577.676 599.533C569.662 599.533 564.328 595.443 562.404 593.125C561.404 591.973 561.329 591.428 562.253 590.503H562.238Z" fill="white"/>
<path d="M601.419 590.746L606.282 585.882C606.828 585.337 607.6 585.261 608.207 585.731C608.207 585.731 612.994 589.276 616.691 589.276C620.009 589.276 623.403 586.503 623.403 583.11C623.403 579.716 619.933 576.867 614.221 576.867H609.903C609.131 576.867 608.434 576.17 608.434 575.398V568.989C608.434 568.141 609.131 567.519 609.903 567.519H614.221C619.615 567.519 622.479 564.898 622.479 561.58C622.479 558.262 619.63 555.793 616.312 555.793C612.994 555.793 610.752 557.565 609.6 558.883C609.055 559.505 608.131 559.505 607.525 558.959L602.813 554.338C602.192 553.793 602.267 552.869 602.813 552.338C602.813 552.338 609.131 545.551 617.539 545.551C626.494 545.551 634.205 551.02 634.205 559.671C634.205 565.61 629.736 570.004 626.266 571.625V571.853C629.887 573.398 635.599 578.17 635.599 584.806C635.599 593.215 628.266 599.533 617.63 599.533C607.919 599.533 602.98 594.745 601.358 592.67C600.889 592.124 600.98 591.276 601.434 590.746H601.419Z" fill="white"/>
<path d="M247.52 672.105C247.151 671.752 247.171 671.192 247.493 670.857L250.899 667.297L276.081 664.444C276.278 664.439 276.476 664.435 276.778 664.724L279.195 667.038C279.531 667.359 279.576 667.917 279.223 668.287L266.081 682.085L268.734 684.624C269.103 684.977 269.115 685.503 268.793 685.839L266.126 688.625C265.805 688.961 265.247 689.006 264.878 688.653L262.225 686.114L258.306 690.276C257.985 690.612 257.393 690.625 257.058 690.304L253.465 686.865C253.129 686.544 253.116 685.953 253.437 685.617L257.358 681.52L247.52 672.105ZM256.138 672.376L261.477 677.485L267.454 671.24L256.138 672.376ZM265.7 696.807L284.65 672.569C284.937 672.203 285.487 672.102 285.853 672.388L294.787 679.373C301.853 684.898 303.144 695.169 297.648 702.199C292.094 709.302 281.815 710.527 274.748 705.003L265.815 698.018C265.449 697.731 265.413 697.173 265.7 696.807ZM275.104 696.549L278.619 699.298C282.756 702.532 288.306 701.621 291.57 697.447C294.805 693.31 294.35 687.704 290.213 684.469L286.698 681.721L275.104 696.549ZM297.317 720.881L305.881 689.589C306.057 688.935 306.615 688.728 307.173 689.064L311.833 691.865C312.152 692.057 312.303 692.527 312.215 692.854L307.522 708.416L307.682 708.512L322.285 698.203C322.548 698.036 322.907 697.981 323.226 698.172L323.943 698.603C324.301 698.819 324.42 699.162 324.356 699.449L322.101 717.181L322.26 717.277L333.804 705.833C334.051 705.602 334.537 705.515 334.856 705.707L339.516 708.509C340.074 708.844 340.153 709.434 339.658 709.896L316.038 732.136C315.767 732.407 315.304 732.455 314.986 732.263L314.348 731.88C314.07 731.712 313.91 731.345 313.935 731.035L316.44 710.361L316.32 710.289L299.277 722.222C299.013 722.389 298.615 722.421 298.336 722.253L297.699 721.87C297.38 721.678 297.205 721.248 297.317 720.881ZM333.593 741.113L337.798 708.943C337.883 708.272 338.407 707.991 339.005 708.247L344.005 710.385C344.347 710.531 344.561 710.976 344.518 711.312L341.998 727.37L342.169 727.443L355.225 715.234C355.463 715.033 355.811 714.929 356.153 715.075L356.922 715.404C357.306 715.568 357.471 715.892 357.447 716.185L357.638 734.059L357.809 734.132L367.679 721.218C367.892 720.955 368.362 720.802 368.704 720.948L373.704 723.087C374.302 723.342 374.461 723.916 374.034 724.441L353.677 749.703C353.445 750.008 352.993 750.118 352.652 749.972L351.968 749.68C351.669 749.552 351.461 749.21 351.442 748.899L351.097 728.077L350.969 728.022L335.717 742.173C335.479 742.375 335.089 742.461 334.79 742.333L334.106 742.04C333.764 741.894 333.532 741.492 333.593 741.113ZM370.853 749.14C368.334 748.318 366.906 745.505 367.727 742.987C368.592 740.336 371.42 738.863 373.938 739.685C376.589 740.55 378.048 743.421 377.183 746.072C376.361 748.591 373.504 750.005 370.853 749.14ZM388.863 760.57L395.628 730.555C395.73 730.102 396.185 729.776 396.683 729.888L402.079 731.104C402.532 731.206 402.848 731.706 402.746 732.16L397.289 756.371L408.08 758.803C408.579 758.915 408.849 759.405 408.747 759.858L407.633 764.8C407.531 765.253 407.077 765.58 406.578 765.467L389.531 761.625C389.032 761.513 388.761 761.023 388.863 760.57ZM412.006 765.524L416.831 735.138C416.904 734.679 417.383 734.332 417.842 734.405L423.35 735.279C423.809 735.352 424.156 735.831 424.084 736.29L419.258 766.676C419.185 767.135 418.706 767.483 418.247 767.41L412.739 766.535C412.28 766.462 411.933 765.984 412.006 765.524ZM437.333 769.367L425.591 736.952C425.366 736.326 425.788 735.756 426.483 735.816L432.641 736.351C433.011 736.383 433.311 736.689 433.384 736.928L439.557 754.492L439.835 754.516L448.941 738.278C449.054 738.055 449.402 737.805 449.773 737.837L455.931 738.372C456.625 738.432 456.944 739.066 456.613 739.644L439.371 769.543C439.208 769.809 438.91 770.017 438.539 769.984L438.076 769.944C437.706 769.912 437.448 769.657 437.333 769.367ZM451.741 770.606C451.044 770.612 450.667 770.011 450.941 769.404L465.239 738.011C465.376 737.731 465.7 737.496 466.025 737.494L466.49 737.49C466.815 737.488 467.143 737.717 467.284 737.995L482.079 769.157C482.363 769.759 481.996 770.366 481.299 770.371L476.14 770.412C475.304 770.419 474.93 770.143 474.504 769.263L472.802 765.605L460.161 765.706L458.517 769.437C458.29 769.997 457.783 770.558 456.853 770.566L451.741 770.606ZM462.899 759.363L469.963 759.307L466.37 751.667L466.324 751.667L462.899 759.363ZM485.779 769.077L482.613 738.473C482.566 738.011 482.892 737.557 483.401 737.504L494.172 736.39C499.627 735.826 504.499 739.106 505.001 743.96C505.369 747.52 502.447 750.439 500.394 751.819C502.949 752.583 506.928 754.461 507.368 758.714C507.904 763.892 503.714 768.11 498.213 768.679L486.748 769.865C486.24 769.917 485.827 769.539 485.779 769.077ZM491.092 749.978L494.698 749.605C496.455 749.423 497.781 747.791 497.59 745.942C497.399 744.093 495.785 742.951 494.029 743.133L490.423 743.506L491.092 749.978ZM492.398 762.599L496.605 762.163C498.408 761.977 499.78 760.34 499.584 758.444C499.393 756.595 497.262 755.414 495.459 755.6L491.714 755.988L492.398 762.599ZM513.951 765.823L508.187 735.601C508.1 735.145 508.386 734.664 508.889 734.568L514.321 733.532C514.778 733.445 515.267 733.778 515.354 734.234L520.004 758.613L530.869 756.54C531.371 756.445 531.815 756.786 531.902 757.242L532.851 762.219C532.938 762.675 532.651 763.156 532.149 763.251L514.984 766.525C514.482 766.621 514.038 766.28 513.951 765.823ZM537.112 761.066L528.819 731.438C528.694 730.99 528.939 730.487 529.431 730.349L547.96 725.163C548.452 725.025 548.923 725.327 549.049 725.775L550.414 730.653C550.539 731.101 550.294 731.604 549.802 731.742L537.404 735.212L538.958 740.762L549.162 737.905C549.61 737.78 550.125 738.07 550.25 738.518L551.616 743.396C551.754 743.888 551.451 744.359 551.004 744.484L540.799 747.341L542.491 753.383L554.888 749.913C555.38 749.775 555.851 750.077 555.976 750.525L557.342 755.403C557.467 755.851 557.222 756.354 556.729 756.492L538.201 761.678C537.708 761.816 537.238 761.513 537.112 761.066ZM578.39 748.136L557.71 723.137C557.277 722.617 557.428 722.042 558.023 721.778L562.995 719.576C563.335 719.426 563.807 719.573 564.024 719.832L574.059 732.619L574.229 732.544L574.19 714.669C574.205 714.357 574.365 714.032 574.705 713.881L575.47 713.542C575.853 713.373 576.202 713.473 576.4 713.69L589.611 725.731L589.781 725.655L587.055 709.631C587.009 709.296 587.217 708.848 587.557 708.697L592.529 706.495C593.124 706.232 593.652 706.506 593.745 707.176L598.362 739.29C598.427 739.667 598.2 740.073 597.86 740.223L597.181 740.525C596.883 740.656 596.492 740.576 596.251 740.377L580.777 726.441L580.649 726.498L580.613 747.303C580.599 747.615 580.395 747.959 580.098 748.091L579.418 748.392C579.078 748.543 578.625 748.438 578.39 748.136ZM606.633 735.754C606.032 736.107 605.405 735.775 605.339 735.113L602.009 700.779C601.988 700.468 602.15 700.102 602.43 699.937L602.831 699.702C603.111 699.537 603.51 699.572 603.771 699.741L632.174 719.317C632.721 719.696 632.707 720.406 632.106 720.759L627.66 723.376C626.94 723.801 626.478 723.749 625.669 723.2L622.365 720.885L611.471 727.297L611.915 731.35C611.998 731.949 611.84 732.689 611.039 733.16L606.633 735.754ZM610.667 720.436L616.755 716.852L609.821 712.035L609.781 712.059L610.667 720.436ZM624.121 706.538C618.613 699.051 620.196 688.655 627.646 683.174C630.791 680.861 635.199 679.637 639.37 679.973C639.9 679.988 640.267 680.409 640.188 680.929L639.544 686.249C639.437 686.732 639.026 687.035 638.561 687.03C636.174 686.767 634.169 687.492 632.335 688.841C628.254 691.843 627.493 697.711 630.523 701.829C633.525 705.91 639.335 706.828 643.416 703.826C644.501 703.027 645.514 702.051 646.307 700.776L644.71 698.605L642.351 700.34C641.939 700.643 641.419 700.563 641.144 700.189L638.418 696.483C638.115 696.071 638.194 695.551 638.606 695.248L646.13 689.713C646.505 689.437 647.052 689.554 647.328 689.928L654.773 699.971C654.911 700.158 654.982 700.568 654.915 700.791C654.915 700.791 652.849 706.061 647.42 710.054C639.97 715.534 629.629 714.026 624.121 706.538ZM661.04 697.939L640.471 675.058C640.161 674.713 640.157 674.153 640.538 673.811L654.847 660.948C655.227 660.606 655.783 660.668 656.094 661.014L659.48 664.781C659.791 665.127 659.794 665.687 659.414 666.028L649.84 674.635L653.693 678.921L661.573 671.837C661.919 671.526 662.51 671.557 662.82 671.903L666.207 675.67C666.549 676.051 666.486 676.607 666.141 676.917L658.26 684.002L662.455 688.668L672.029 680.061C672.409 679.719 672.965 679.782 673.276 680.127L676.663 683.895C676.973 684.24 676.977 684.8 676.596 685.142L662.287 698.005C661.907 698.347 661.351 698.284 661.04 697.939Z" fill="white"/>
</svg>
