<svg width="928" height="928" viewBox="0 0 928 928" fill="none" xmlns="http://www.w3.org/2000/svg">
<circle cx="464.001" cy="464" r="380.724" fill="white"/>
<circle cx="463.999" cy="464" r="356.198" fill="white" stroke="#231F20" stroke-width="9.85851"/>
<path d="M195.938 472.267L160.818 481.743C160.087 481.944 159.57 481.522 159.578 480.792L159.643 474.696C159.647 474.279 160.016 473.866 160.382 473.766L178.094 469.472L178.096 469.264L159.84 460.992C159.529 460.833 159.272 460.517 159.276 460.1L159.286 459.163C159.291 458.694 159.555 458.384 159.869 458.283L178.296 450.401L178.298 450.193L160.682 445.524C160.318 445.416 159.958 444.995 159.963 444.578L160.027 438.482C160.035 437.752 160.561 437.341 161.288 437.557L196.199 447.777C196.614 447.886 196.923 448.306 196.918 448.723L196.909 449.557C196.905 449.921 196.641 450.283 196.327 450.436L174.914 459.745L174.912 459.902L196.123 469.612C196.434 469.771 196.691 470.139 196.687 470.503L196.678 471.337C196.673 471.754 196.356 472.168 195.938 472.267ZM196.168 434.366L162.033 429.388C161.517 429.313 161.113 428.833 161.196 428.266L164.309 406.918C164.391 406.351 164.916 406.006 165.431 406.081L171.052 406.901C171.567 406.976 171.971 407.456 171.889 408.023L169.806 422.307L176.2 423.239L177.914 411.482C177.989 410.967 178.521 410.57 179.037 410.646L184.657 411.465C185.224 411.548 185.569 412.072 185.494 412.588L183.78 424.344L190.741 425.359L192.824 411.076C192.906 410.509 193.43 410.164 193.946 410.239L199.567 411.059C200.082 411.134 200.486 411.614 200.403 412.182L197.29 433.529C197.208 434.096 196.684 434.441 196.168 434.366ZM200.016 398.084C199.37 398.439 199.126 398.531 198.542 397.926L195.073 394.367C194.539 393.777 194.916 392.856 195.268 392.578C195.426 392.407 199.126 389.576 200.087 386.274C200.669 384.272 199.84 382.457 198.089 381.948C195.987 381.337 193.877 382.622 191.536 385.632C188.583 389.44 183.659 393.868 177.655 392.122C172.701 390.681 168.818 385.373 171.06 377.667C172.574 372.464 176.39 369.232 177.927 368.051C178.452 367.553 179.324 367.915 179.616 368.217L182.726 371.889C183.175 372.4 183.363 373.431 182.882 373.78C182.501 374.157 178.686 377.009 177.798 380.062C177.274 381.863 178.082 383.563 179.433 383.956C181.284 384.495 183.122 383.401 185.873 379.914C188.559 376.462 193.416 371.146 200.221 373.125C205.375 374.625 209.283 380.591 207.144 387.947C205.251 394.451 201.502 397.268 200.016 398.084ZM212.454 367.315L186.562 357.12L183.832 364.053C183.622 364.587 183.033 364.803 182.548 364.612L177.263 362.531C176.778 362.34 176.495 361.78 176.705 361.247L185.182 339.719C185.392 339.186 185.981 338.97 186.466 339.161L191.751 341.242C192.236 341.433 192.519 341.992 192.309 342.526L189.579 349.459L215.47 359.655C215.955 359.846 216.22 360.454 216.029 360.939L213.738 366.757C213.547 367.242 212.938 367.506 212.454 367.315ZM218.603 354.592C218.243 355.286 217.45 355.345 216.992 354.755L193.356 324.141C193.15 323.859 193.087 323.415 193.255 323.091L193.494 322.628C193.662 322.304 194.061 322.1 194.411 322.105L233.052 323.755C233.798 323.789 234.207 324.471 233.848 325.165L231.187 330.301C230.756 331.134 230.286 331.36 229.192 331.321L224.673 331.093L218.153 343.678L220.992 347.262C221.427 347.781 221.719 348.577 221.239 349.503L218.603 354.592ZM213.299 337.642L216.943 330.609L207.486 330.171L207.463 330.217L213.299 337.642ZM234.947 322.187L206.163 302.153C205.736 301.855 205.663 301.232 205.961 300.805L206.707 299.736L235.016 294.144L235.046 294.101L219.878 283.511C219.451 283.213 219.305 282.603 219.633 282.133L223.213 277.006C223.511 276.578 224.164 276.462 224.592 276.761L253.346 296.837C253.773 297.135 253.846 297.759 253.548 298.186L253.071 298.869C252.981 298.998 252.615 299.25 252.469 299.276L223.724 304.309L223.694 304.352L239.631 315.479C240.058 315.777 240.204 316.388 239.876 316.858L236.326 321.942C236.028 322.369 235.375 322.485 234.947 322.187ZM257.373 291.159L232.069 267.714C231.686 267.36 231.626 266.735 231.98 266.353L240.621 257.026C247.456 249.649 259.053 249.17 266.392 255.969C273.808 262.84 274.214 274.44 267.378 281.817L258.737 291.144C258.383 291.526 257.755 291.513 257.373 291.159ZM257.967 280.627L261.367 276.958C265.369 272.638 264.871 266.352 260.513 262.315C256.194 258.313 249.888 258.295 245.886 262.614L242.486 266.284L257.967 280.627ZM295.408 255.435L266.617 233.201C266.015 232.74 266.038 232.073 266.624 231.638L271.518 228.002C271.852 227.753 272.404 227.797 272.706 228.028L286.839 239.534L287.006 239.41L282.549 219.87C282.488 219.525 282.584 219.13 282.918 218.881L283.671 218.322C284.048 218.042 284.454 218.065 284.724 218.253L302.147 228.159L302.314 228.035L295.376 211.183C295.242 210.828 295.359 210.286 295.693 210.038L300.587 206.401C301.173 205.966 301.818 206.136 302.086 206.846L315.066 240.827C315.231 241.224 315.083 241.724 314.748 241.972L314.079 242.469C313.786 242.687 313.338 242.695 313.026 242.538L292.66 231.118L292.535 231.212L297.634 253.975C297.695 254.319 297.558 254.746 297.265 254.963L296.596 255.461C296.261 255.709 295.74 255.707 295.408 255.435ZM325.651 232.608L308.236 202.83C307.973 202.38 308.141 201.738 308.591 201.475L313.989 198.319C314.439 198.056 315.081 198.224 315.344 198.674L332.758 228.452C333.021 228.902 332.853 229.543 332.403 229.806L327.005 232.963C326.555 233.226 325.914 233.058 325.651 232.608ZM343.136 223.183L330.931 198.176L324.234 201.445C323.719 201.696 323.139 201.458 322.91 200.989L320.419 195.885C320.19 195.417 320.359 194.812 320.874 194.561L341.666 184.413C342.181 184.161 342.762 184.4 342.99 184.868L345.482 189.973C345.71 190.441 345.541 191.045 345.026 191.297L338.33 194.565L350.535 219.572C350.763 220.04 350.548 220.667 350.079 220.896L344.46 223.639C343.992 223.867 343.364 223.651 343.136 223.183ZM361.22 214.946L349.809 182.391C349.637 181.9 349.925 181.302 350.416 181.129L356.268 179.078C356.809 178.889 357.358 179.193 357.53 179.685L361.874 192.077L375.938 187.148L371.594 174.755C371.422 174.264 371.66 173.683 372.201 173.494L378.053 171.442C378.545 171.27 379.143 171.557 379.315 172.049L390.726 204.604C390.898 205.095 390.611 205.693 390.119 205.865L384.267 207.917C383.726 208.106 383.178 207.802 383.005 207.31L378.472 194.377L364.408 199.306L368.941 212.24C369.113 212.731 368.875 213.312 368.334 213.501L362.482 215.553C361.99 215.725 361.393 215.438 361.22 214.946ZM406.639 200.443L400.942 166.949C400.828 166.281 401.246 165.629 401.965 165.506L407.975 164.484C408.643 164.37 409.304 164.839 409.418 165.507L411.716 179.018L420.7 162.848C420.862 162.556 421.28 162.221 421.589 162.168L428.061 161.067C429.038 160.901 429.743 161.944 429.309 162.811L419.849 179.907L435.85 194.734C436.546 195.409 436.173 196.635 435.197 196.801L428.108 198.007C427.748 198.068 427.251 197.941 427.122 197.805L412.511 183.693L415.115 199.001C415.229 199.669 414.76 200.33 414.092 200.444L408.082 201.466C407.362 201.589 406.753 201.111 406.639 200.443ZM439.308 195.555L436.547 161.17C436.505 160.65 436.935 160.145 437.455 160.104L443.688 159.603C444.207 159.562 444.712 159.991 444.754 160.511L447.515 194.897C447.556 195.416 447.126 195.921 446.607 195.963L440.374 196.463C439.854 196.505 439.349 196.075 439.308 195.555ZM451.981 177.523C452.08 167.102 460.549 158.792 470.97 158.891C476.181 158.941 480.022 160.592 483.534 163.857C483.999 164.278 483.993 164.903 483.573 165.316L479.468 169.498C479.1 169.86 478.527 169.854 478.166 169.486C476.254 167.748 473.71 166.786 471.156 166.762C465.268 166.706 460.897 171.563 460.842 177.399C460.787 183.183 465.118 188.018 471.006 188.074C473.455 188.097 476.121 187.237 478.012 185.639C478.38 185.33 479.057 185.336 479.367 185.704L483.39 190.067C483.751 190.436 483.693 191.113 483.325 191.474C479.749 194.879 475.252 196.452 470.615 196.408C460.193 196.309 451.883 187.945 451.981 177.523ZM487.547 195.349L491.98 161.664C492.068 160.992 492.66 160.492 493.383 160.587L499.428 161.383C500.099 161.471 500.593 162.114 500.505 162.786L498.716 176.373L512.069 163.572C512.31 163.341 512.809 163.144 513.119 163.184L519.628 164.041C520.61 164.17 520.977 165.375 520.307 166.075L506.225 179.622L517.142 198.508C517.609 199.357 516.891 200.419 515.909 200.29L508.78 199.352C508.418 199.304 507.98 199.036 507.897 198.868L498.098 181.075L496.072 196.471C495.983 197.142 495.34 197.636 494.669 197.547L488.624 196.752C487.901 196.657 487.459 196.02 487.547 195.349ZM519.031 197.55C518.65 196.92 518.548 196.68 519.127 196.071L522.54 192.458C523.107 191.901 524.044 192.239 524.336 192.579C524.513 192.73 527.494 196.31 530.834 197.133C532.857 197.632 534.636 196.729 535.073 194.959C535.597 192.834 534.226 190.778 531.122 188.564C527.195 185.77 522.567 181.033 524.064 174.962C525.299 169.953 530.443 165.854 538.234 167.776C543.496 169.073 546.882 172.753 548.125 174.24C548.645 174.744 548.319 175.63 548.03 175.934L544.489 179.194C543.997 179.663 542.974 179.893 542.606 179.427C542.213 179.062 539.206 175.368 536.12 174.607C534.299 174.158 532.633 175.036 532.296 176.402C531.835 178.274 533.003 180.064 536.601 182.669C540.16 185.211 545.673 189.844 543.976 196.725C542.691 201.936 536.891 206.087 529.454 204.253C522.876 202.631 519.907 199.001 519.031 197.55ZM550.288 208.699L559.383 182.401L552.341 179.965C551.799 179.778 551.558 179.198 551.729 178.706L553.585 173.338C553.755 172.846 554.303 172.539 554.844 172.726L576.71 180.288C577.252 180.475 577.492 181.055 577.322 181.547L575.466 186.915C575.295 187.408 574.748 187.715 574.206 187.527L567.164 185.092L558.069 211.39C557.899 211.882 557.302 212.172 556.81 212.002L550.9 209.958C550.407 209.788 550.118 209.191 550.288 208.699ZM563.259 214.307C562.551 213.976 562.46 213.186 563.029 212.704L592.644 187.827C592.918 187.61 593.358 187.528 593.689 187.682L594.161 187.903C594.492 188.057 594.712 188.447 594.721 188.797L594.665 227.474C594.662 228.22 593.997 228.657 593.289 228.326L588.048 225.88C587.198 225.483 586.953 225.023 586.946 223.928L586.988 219.404L574.145 213.408L570.682 216.392C570.181 216.848 569.397 217.172 568.453 216.732L563.259 214.307ZM579.976 208.309L587.153 211.66L587.202 202.194L587.154 202.172L579.976 208.309ZM596.327 229.261L614.61 200.008C614.886 199.566 615.488 199.39 615.974 199.693L629.187 207.951C634.489 211.265 636.141 218.258 632.854 223.517C630.314 227.582 625.574 229.167 620.763 228.311L619.802 243.319C619.753 244.086 619.001 244.6 618.25 244.131L612.373 240.457C612.02 240.236 611.892 239.85 611.915 239.618L613.356 224.235L610.307 222.329L603.265 233.597C602.988 234.039 602.342 234.188 601.9 233.912L596.642 230.625C596.156 230.322 596.051 229.703 596.327 229.261ZM613.815 216.717L620.355 220.804C622.166 221.937 624.762 221.224 625.922 219.368C627.082 217.512 626.475 215.043 624.663 213.911L618.123 209.824L613.815 216.717ZM627.648 249.993L644.821 228.098L638.958 223.499C638.507 223.146 638.468 222.519 638.79 222.109L642.295 217.64C642.617 217.23 643.234 217.118 643.685 217.472L661.89 231.751C662.341 232.105 662.38 232.731 662.058 233.141L658.553 237.61C658.231 238.02 657.614 238.132 657.163 237.778L651.299 233.179L634.126 255.074C633.805 255.484 633.146 255.564 632.736 255.242L627.816 251.383C627.406 251.061 627.326 250.403 627.648 249.993ZM642.998 262.596L666.839 237.663C667.199 237.287 667.825 237.236 668.239 237.632L683.831 252.542C684.245 252.938 684.222 253.565 683.862 253.941L679.937 258.047C679.577 258.423 678.951 258.474 678.537 258.078L668.105 248.102L663.639 252.772L672.226 260.983C672.602 261.344 672.617 262.007 672.257 262.383L668.332 266.488C667.936 266.903 667.309 266.88 666.932 266.52L658.345 258.309L653.483 263.393L663.916 273.369C664.33 273.765 664.307 274.392 663.947 274.769L660.021 278.874C659.661 279.25 659.036 279.301 658.622 278.905L643.03 263.996C642.615 263.599 642.638 262.972 642.998 262.596ZM663.255 282.675L689.761 260.598C690.162 260.264 690.789 260.285 691.156 260.725L701.127 272.697C705.129 277.502 704.514 284.66 699.749 288.629C696.065 291.697 691.068 291.723 686.765 289.406L681.164 303.363C680.877 304.077 680.003 304.33 679.436 303.649L675 298.324C674.734 298.004 674.734 297.597 674.827 297.383L681.002 283.22L678.701 280.457L668.491 288.962C668.091 289.295 667.43 289.235 667.097 288.835L663.128 284.07C662.761 283.629 662.855 283.009 663.255 282.675ZM683.786 276.222L688.722 282.148C690.089 283.79 692.778 283.924 694.46 282.523C696.141 281.122 696.335 278.587 694.968 276.945L690.032 271.019L683.786 276.222ZM700.108 309.07L718.647 298.14C719.096 297.875 719.738 298.041 720.003 298.49L723.258 304.011C723.549 304.505 723.357 305.102 722.908 305.367L704.728 316.085C701.586 317.938 700.449 321.754 702.328 324.941C704.233 328.173 708.15 329.07 711.292 327.218L729.472 316.499C729.921 316.234 730.536 316.355 730.827 316.849L734.083 322.37C734.347 322.819 734.181 323.461 733.733 323.726L715.194 334.656C708.371 338.679 699.327 336.268 695.146 329.176C690.991 322.128 693.285 313.093 700.108 309.07ZM706.708 347.038L739.052 333.482C739.533 333.282 740.098 333.554 740.299 334.035L740.801 335.237L730.343 362.132L730.363 362.18L747.434 355.055C747.915 354.854 748.509 355.058 748.729 355.587L751.138 361.358C751.339 361.838 751.086 362.452 750.606 362.653L718.242 376.16C717.761 376.361 717.196 376.089 716.995 375.608L716.674 374.838C716.614 374.694 716.597 374.249 716.653 374.113L727.817 347.15L727.796 347.102L709.859 354.588C709.378 354.789 708.785 354.585 708.564 354.056L706.176 348.333C705.975 347.852 706.227 347.239 706.708 347.038ZM721.024 382.524L754.036 372.514C754.535 372.362 755.12 372.675 755.271 373.174L757.086 379.158C757.237 379.656 756.924 380.241 756.425 380.393L723.414 390.403C722.915 390.555 722.33 390.242 722.179 389.743L720.364 383.759C720.213 383.261 720.526 382.676 721.024 382.524ZM726.144 401.716L753.29 395.6L751.652 388.33C751.526 387.771 751.892 387.261 752.4 387.147L757.941 385.898C758.45 385.784 758.999 386.088 759.125 386.647L764.21 409.218C764.336 409.777 763.97 410.286 763.461 410.401L757.92 411.649C757.412 411.764 756.863 411.46 756.737 410.901L755.099 403.632L727.953 409.747C727.445 409.862 726.884 409.508 726.77 408.999L725.395 402.899C725.281 402.391 725.635 401.83 726.144 401.716ZM730.068 421.186L764.308 416.994C764.826 416.931 765.342 417.288 765.411 417.857L768.033 439.27C768.102 439.839 767.687 440.31 767.17 440.373L761.532 441.063C761.015 441.126 760.499 440.77 760.429 440.201L758.675 425.873L752.262 426.658L753.705 438.451C753.769 438.969 753.36 439.491 752.843 439.554L747.205 440.245C746.636 440.314 746.165 439.899 746.102 439.382L744.658 427.589L737.676 428.444L739.43 442.771C739.499 443.34 739.084 443.811 738.567 443.874L732.929 444.565C732.412 444.628 731.896 444.271 731.826 443.702L729.205 422.289C729.135 421.72 729.55 421.249 730.068 421.186ZM732.982 449.564L767.478 449.59C767.999 449.59 768.468 450.008 768.468 450.529L768.458 463.243C768.451 473.3 760.263 481.528 750.258 481.52C740.149 481.513 731.974 473.273 731.982 463.216L731.991 450.501C731.992 449.98 732.461 449.564 732.982 449.564ZM739.698 457.698L739.694 462.701C739.69 468.589 744.324 472.865 750.265 472.87C756.153 472.874 760.794 468.605 760.799 462.716L760.802 457.714L739.698 457.698Z" fill="#231F20"/>
<path d="M463.985 220.471C332.37 220.471 225.072 326.512 222.996 457.642V465.399C223.405 491.58 228.011 516.775 236.177 540.32L238.844 547.592C248.055 571.606 260.994 593.772 276.963 613.407L281.933 619.346C298.599 638.542 318.264 655.087 340.157 668.253L346.869 672.132C368.807 684.389 392.867 693.312 418.32 698.206L425.956 699.555C438.349 701.524 451.046 702.57 463.985 702.57C476.923 702.57 489.635 701.524 502.028 699.555L509.664 698.206C535.117 693.312 559.162 684.389 581.115 672.132L587.827 668.253C609.72 655.087 629.37 638.542 646.052 619.346L651.021 613.407C666.99 593.772 679.929 571.606 689.14 547.592L691.792 540.32C699.958 516.775 704.579 491.58 704.988 465.399V457.642C702.912 326.512 595.615 220.471 463.985 220.471ZM230.738 465.399H442.016L243.465 537.668C235.602 514.957 231.162 490.655 230.738 465.399ZM246.131 544.941L444.667 472.671L282.902 608.423C267.509 589.484 255.025 568.091 246.131 544.941ZM344.036 661.541C322.916 648.83 303.962 632.876 287.872 614.362L449.652 478.611L344.036 661.541ZM419.668 690.585C395.109 685.843 371.913 677.237 350.748 665.42L456.364 482.489L419.668 690.585ZM463.985 694.812C451.515 694.812 439.258 693.828 427.304 691.919L463.985 483.822L500.68 691.919C488.726 693.828 476.469 694.812 463.985 694.812ZM508.316 690.585L471.621 482.489L577.237 665.42C556.071 677.237 532.875 685.843 508.316 690.585ZM583.948 661.541L478.332 478.611L640.112 614.362C624.022 632.876 605.069 648.83 583.948 661.541ZM645.082 608.423L483.317 472.671L681.853 544.941C672.959 568.091 660.475 589.484 645.082 608.423ZM684.519 537.668L485.953 465.399H697.246C696.822 490.655 692.383 514.957 684.519 537.668ZM230.738 457.642C232.814 330.784 336.642 228.229 463.985 228.229C591.327 228.229 695.155 330.784 697.246 457.642H230.738Z" fill="#231F20"/>
<path d="M610.569 336.103C609.887 333.527 607.236 332.012 604.69 332.694L568.268 342.375C567.389 342.602 566.601 343.087 565.98 343.754L544.421 366.98C544.027 366.677 543.693 366.328 543.269 366.071L467.652 317.073C463.712 314.497 458.652 314.255 454.455 316.452L419.321 334.815C418.124 335.451 416.639 335.315 415.578 334.512C414.821 333.936 414.336 333.118 414.215 332.178C414.094 331.254 414.336 330.315 414.912 329.573L431.456 308.058C434.259 304.407 438.304 301.937 442.835 301.089L462.228 297.483C472.939 295.498 483.772 295.62 494.423 297.862L515.058 302.195C517.619 302.725 520.24 302.498 522.664 301.528C523.013 301.377 523.361 301.18 523.694 300.953L564.708 271.272C566.829 269.727 567.329 266.712 565.753 264.56C564.223 262.409 561.208 261.924 559.056 263.485L518.634 292.756C518.119 292.892 517.573 292.892 517.043 292.786L496.408 288.453C484.514 285.953 472.424 285.817 460.455 288.044L441.077 291.65C435.759 292.635 430.896 295.12 427.002 298.756L408.927 295.877C408.685 295.847 408.442 295.786 408.215 295.695L368.732 263.651C366.672 261.985 363.641 262.288 361.975 264.364C360.293 266.409 360.611 269.439 362.672 271.121L402.624 303.528C402.882 303.725 403.14 303.907 403.443 304.059C404.7 304.71 406.033 305.149 407.427 305.377L419.866 307.346L407.291 323.724C405.155 326.512 404.23 329.966 404.7 333.466C405.155 336.951 406.973 340.042 409.76 342.178C413.806 345.208 419.29 345.678 423.775 343.329L458.91 324.967C460.016 324.376 461.364 324.452 462.44 325.133L538.042 374.131C539.709 375.222 540.875 376.888 541.254 378.843C541.693 380.797 541.3 382.782 540.209 384.449C538.012 387.767 533.618 388.767 530.209 386.721L489.302 362.253C487.029 360.889 484.09 361.632 482.727 363.919C481.348 366.192 482.105 369.131 484.378 370.51L517.089 390.07L521.028 392.433C522.134 393.1 522.922 394.16 523.21 395.433C523.482 396.691 523.255 397.978 522.543 399.069C520.073 402.811 515.058 404.069 511.119 401.918L479.136 384.494C476.833 383.237 473.909 384.085 472.636 386.418C471.364 388.751 472.197 391.676 474.53 392.933L497.635 405.523L503.317 408.993C504.377 409.644 505.089 410.675 505.332 411.902C505.559 413.129 505.271 414.356 504.544 415.356C504.483 415.462 504.392 415.553 504.332 415.644C502.15 419.068 497.786 420.25 494.165 418.417L469.424 405.857C467.061 404.66 464.152 405.599 462.955 407.963C461.758 410.326 462.697 413.22 465.061 414.417L485.651 424.871C481.454 427.492 476.424 428.598 471.348 427.825L452.743 424.977L454.076 423.083C458.243 417.114 457.137 408.826 451.592 404.13C451.546 404.084 451.486 404.054 451.425 404.008C449.683 402.569 447.607 401.645 445.425 401.16C447.137 395.266 445.304 388.661 440.32 384.63C437.698 382.494 434.411 381.328 431.062 381.206C431.138 379.934 431.093 378.661 430.835 377.373C430.002 373.222 427.593 369.662 424.032 367.359C417.048 362.798 407.548 364.662 402.761 371.495C401.549 369.646 399.943 368.04 397.943 366.798C391.837 363.025 384.065 364.025 379.08 368.859L361.566 345.738C360.96 344.951 360.142 344.375 359.187 344.072L323.492 332.754C320.977 331.936 318.28 333.36 317.477 335.875C316.674 338.405 318.068 341.102 320.613 341.905L354.839 352.768L373.126 376.888L368.035 384.176C363.202 391.085 364.869 400.69 371.732 405.584L372.005 405.781C374.565 407.614 377.565 408.584 380.686 408.629C380.656 413.553 382.974 418.417 387.292 421.447C389.943 423.326 393.034 424.295 396.216 424.295C397.17 424.295 398.109 424.22 399.064 424.038C399.912 423.886 400.761 423.613 401.579 423.326C402.882 426.795 405.367 429.734 408.654 431.507C411.018 432.78 413.548 433.386 416.078 433.386C418.442 433.386 420.775 432.825 422.926 431.78C424.457 434.643 426.911 436.916 429.987 438.189C431.759 438.916 433.623 439.279 435.441 439.279C439.714 439.279 443.819 437.295 446.562 433.749L469.894 437.325C471.47 437.567 473.045 437.689 474.621 437.689C482.666 437.689 490.317 434.507 496.09 428.795C496.65 428.856 497.196 428.901 497.756 428.901C503.483 428.901 509.028 426.068 512.346 420.947C514.119 418.508 515.028 415.538 514.983 412.553C515.058 412.553 515.119 412.553 515.21 412.553C521.21 412.553 527.103 409.614 530.558 404.327C531.982 402.19 532.709 399.781 532.83 397.312C533.239 397.342 533.618 397.387 534.027 397.387C539.557 397.387 544.951 394.675 548.208 389.721C550.754 385.903 551.617 381.343 550.663 376.858C550.542 376.207 550.284 375.601 550.087 374.964L572.071 351.284L607.16 341.966C609.721 341.284 611.236 338.648 610.569 336.087V336.103ZM385.352 396.963C384.489 397.994 383.307 398.69 381.974 398.933C380.429 399.206 378.853 398.857 377.58 397.948L377.307 397.766C374.717 395.918 374.08 392.282 375.914 389.676L385.065 376.601C386.171 374.995 387.958 374.131 389.807 374.131C390.883 374.131 391.989 374.419 393.004 375.04C394.367 375.889 395.291 377.222 395.64 378.782C395.943 380.222 395.685 381.661 394.943 382.918L385.352 396.963ZM403.215 408.917C402.958 409.296 402.791 409.705 402.564 410.099L401.215 412.069C400.306 413.402 398.928 414.296 397.337 414.584C395.746 414.871 394.14 414.523 392.807 413.584C390.14 411.705 389.458 407.993 391.292 405.296L393.261 402.418C393.398 402.236 393.549 402.099 393.67 401.918C396.519 397.781 399.867 392.842 402.715 388.645C402.791 388.539 402.821 388.418 402.897 388.312L410.579 377.055C411.73 375.373 413.639 374.449 415.563 374.449C416.684 374.449 417.805 374.767 418.805 375.404C420.169 376.298 421.093 377.661 421.411 379.267C421.73 380.858 421.411 382.479 420.487 383.812L417.866 387.676C417.806 387.767 417.715 387.827 417.654 387.903L403.215 408.917ZM423.745 416.962C423.502 417.311 423.366 417.69 423.154 418.053L421.017 421.174C419.275 423.689 415.927 424.507 413.215 423.053C411.7 422.235 410.639 420.856 410.23 419.174C409.927 417.932 410.033 416.659 410.503 415.508L425.775 393.13C426.729 391.873 428.093 391.054 429.653 390.827C429.956 390.782 430.244 390.767 430.532 390.767C431.896 390.767 433.214 391.221 434.29 392.1C436.714 394.054 437.229 397.6 435.456 400.16L431.108 406.478C431.017 406.614 430.881 406.72 430.79 406.857L423.745 416.962ZM446.183 417.599L439.153 427.689C437.911 429.462 435.653 430.128 433.653 429.295C432.365 428.765 431.396 427.689 431.002 426.356C430.714 425.371 430.759 424.356 431.123 423.417L439.017 411.947C439.729 411.129 440.698 410.584 441.804 410.432C442.016 410.402 442.229 410.387 442.441 410.387C443.456 410.387 444.441 410.72 445.244 411.357C445.274 411.387 445.304 411.417 445.334 411.432C447.168 412.947 447.547 415.644 446.183 417.599Z" fill="#231F20"/>
<path d="M685.034 625.501L669.777 643.364V625.501H685.034Z" fill="white"/>
<path d="M705.989 603.972L724.124 649.546H673.369L693.914 625.516V558.398H724.124L705.989 603.972Z" fill="white"/>
<path d="M249.282 625.501V643.364L234.025 625.501H249.282Z" fill="white"/>
<path d="M194.936 649.546L213.056 603.972L194.936 558.398H225.161V625.501H225.237L225.177 625.562L245.691 649.546H194.936Z" fill="white"/>
<path d="M688.111 522.991H230.936V619.713H688.111V522.991Z" fill="white"/>
<path d="M732.653 552.626H693.912V517.219H225.147V552.626H186.406L206.845 603.987L186.406 655.349H255.07V625.517H664.005V655.349H732.668L712.23 603.987L732.668 552.626H732.653ZM194.921 649.546L213.057 603.972L194.921 558.399H225.147V625.486H225.223L225.162 625.547L245.676 649.531H194.921V649.546ZM249.267 643.364L234.01 625.501H249.267V643.364ZM230.934 619.714V522.991H688.109V619.714H230.934ZM669.777 625.501H685.034L669.777 643.364V625.501ZM724.123 649.546H673.368L693.912 625.517V558.399H724.138L705.987 603.972L724.138 649.546H724.123Z" fill="#231F20"/>
<path d="M310.522 544.005C325.945 544.005 338.293 556.429 338.293 571.853C338.293 587.276 325.96 599.548 310.522 599.548C295.083 599.548 282.826 587.291 282.826 571.853C282.826 556.414 295.083 544.005 310.522 544.005ZM310.522 587.185C319.006 587.185 325.945 580.246 325.945 571.837C325.945 563.429 319.006 556.338 310.522 556.338C302.037 556.338 295.174 563.353 295.174 571.837C295.174 580.322 302.113 587.185 310.522 587.185Z" fill="#231F20"/>
<path d="M347.626 546.232C347.626 545.46 348.248 544.763 349.096 544.763H367.686C377.17 544.763 384.958 552.474 384.958 561.807C384.958 571.14 377.171 579.155 367.762 579.155H359.656V597.275C359.656 598.048 358.959 598.745 358.187 598.745H349.081C348.233 598.745 347.611 598.048 347.611 597.275V546.217L347.626 546.232ZM366.989 567.913C370.307 567.913 373.08 565.292 373.08 561.822C373.08 558.58 370.307 556.111 366.989 556.111H359.656V567.913H366.989Z" fill="#231F20"/>
<path d="M392.836 546.232C392.836 545.46 393.457 544.763 394.306 544.763H426.243C427.092 544.763 427.713 545.46 427.713 546.232V554.641C427.713 555.414 427.092 556.111 426.243 556.111H404.881V565.671H422.471C423.244 565.671 423.941 566.368 423.941 567.14V575.549C423.941 576.398 423.244 577.019 422.471 577.019H404.881V587.427H426.243C427.092 587.427 427.713 588.124 427.713 588.897V597.306C427.713 598.078 427.092 598.775 426.243 598.775H394.306C393.457 598.775 392.836 598.078 392.836 597.306V546.247V546.232Z" fill="#231F20"/>
<path d="M438.045 546.232C438.045 545.46 438.742 544.763 439.515 544.763H448.772C449.544 544.763 450.241 545.46 450.241 546.232V597.291C450.241 598.063 449.544 598.76 448.772 598.76H439.515C438.742 598.76 438.045 598.063 438.045 597.291V546.232Z" fill="#231F20"/>
<path d="M462.727 546.232C462.727 545.46 463.424 544.763 464.196 544.763H473.681C474.529 544.763 475.15 545.46 475.15 546.232V577.473C475.15 582.867 479.165 587.185 484.635 587.185C490.104 587.185 494.271 582.867 494.271 577.473V546.232C494.271 545.46 494.892 544.763 495.74 544.763H505.225C505.997 544.763 506.694 545.46 506.694 546.232V578.079C506.694 589.806 496.816 599.518 484.635 599.518C472.453 599.518 462.727 589.806 462.727 578.079V546.232Z" fill="#231F20"/>
<path d="M540.254 562.581H532.846C532.073 562.581 531.467 561.884 531.467 561.111V556.248C531.467 555.944 531.694 555.323 531.921 555.096L543.178 546.309H550.269C551.042 546.309 551.663 547.006 551.663 547.778V597.291C551.663 598.064 551.042 598.761 550.269 598.761H541.709C540.86 598.761 540.239 598.064 540.239 597.291V562.581H540.254Z" fill="#231F20"/>
<path d="M562.235 590.503L567.098 585.716C567.568 585.246 568.325 585.095 568.947 585.489C568.947 585.489 574.416 589.185 578.128 589.185C582.294 589.185 585.461 586.095 585.461 581.852C585.461 577.61 582.537 574.368 577.522 574.368H565.644C564.098 574.368 563.25 572.898 563.25 571.671V547.763C563.25 546.99 563.871 546.293 564.719 546.293H589.552C590.4 546.293 591.021 546.99 591.021 547.763V554.551C591.021 555.323 590.4 556.02 589.552 556.02H573.658V564.277H579.128C589.779 564.277 596.718 571.762 596.718 581.868C596.718 591.973 588.461 599.533 577.673 599.533C569.659 599.533 564.326 595.443 562.401 593.125C561.401 591.973 561.326 591.428 562.25 590.503H562.235Z" fill="#231F20"/>
<path d="M601.417 590.746L606.28 585.882C606.826 585.337 607.599 585.261 608.205 585.731C608.205 585.731 612.992 589.276 616.689 589.276C620.007 589.276 623.401 586.503 623.401 583.11C623.401 579.716 619.931 576.867 614.219 576.867H609.901C609.129 576.867 608.432 576.17 608.432 575.398V568.989C608.432 568.141 609.129 567.519 609.901 567.519H614.219C619.613 567.519 622.477 564.898 622.477 561.58C622.477 558.262 619.628 555.793 616.31 555.793C612.992 555.793 610.75 557.565 609.598 558.883C609.053 559.505 608.129 559.505 607.523 558.959L602.811 554.338C602.19 553.793 602.265 552.869 602.811 552.338C602.811 552.338 609.129 545.551 617.537 545.551C626.492 545.551 634.203 551.02 634.203 559.671C634.203 565.61 629.734 570.004 626.264 571.625V571.853C629.885 573.398 635.597 578.17 635.597 584.806C635.597 593.215 628.264 599.533 617.628 599.533C607.917 599.533 602.978 594.745 601.356 592.67C600.887 592.124 600.978 591.276 601.432 590.746H601.417Z" fill="#231F20"/>
<path d="M247.521 672.105C247.152 671.751 247.172 671.192 247.493 670.856L250.9 667.297L276.082 664.444C276.279 664.439 276.476 664.435 276.779 664.724L279.196 667.038C279.532 667.359 279.577 667.917 279.224 668.286L266.082 682.085L268.735 684.624C269.104 684.977 269.115 685.503 268.794 685.838L266.127 688.625C265.806 688.961 265.248 689.006 264.878 688.653L262.226 686.114L258.307 690.276C257.986 690.612 257.394 690.625 257.058 690.304L253.466 686.865C253.13 686.544 253.117 685.952 253.438 685.617L257.359 681.52L247.521 672.105ZM256.139 672.376L261.478 677.485L267.455 671.24L256.139 672.376ZM265.701 696.807L284.651 672.569C284.938 672.203 285.488 672.102 285.854 672.388L294.788 679.373C301.854 684.898 303.145 695.169 297.648 702.199C292.095 709.302 281.816 710.527 274.749 705.002L265.816 698.018C265.449 697.731 265.414 697.173 265.701 696.807ZM275.105 696.549L278.62 699.297C282.757 702.532 288.307 701.621 291.571 697.447C294.805 693.31 294.351 687.704 290.214 684.469L286.699 681.721L275.105 696.549ZM297.318 720.881L305.882 689.588C306.058 688.935 306.616 688.728 307.174 689.064L311.834 691.865C312.153 692.057 312.304 692.527 312.216 692.854L307.523 708.416L307.683 708.512L322.286 698.203C322.549 698.036 322.908 697.981 323.226 698.172L323.943 698.603C324.302 698.819 324.421 699.162 324.357 699.449L322.102 717.181L322.261 717.277L333.805 705.833C334.052 705.602 334.538 705.515 334.857 705.707L339.517 708.509C340.075 708.844 340.154 709.434 339.659 709.896L316.039 732.136C315.767 732.407 315.305 732.454 314.987 732.263L314.349 731.88C314.07 731.712 313.911 731.345 313.935 731.035L316.441 710.361L316.321 710.289L299.278 722.222C299.014 722.389 298.616 722.421 298.337 722.253L297.7 721.87C297.381 721.678 297.206 721.248 297.318 720.881ZM333.593 741.113L337.799 708.943C337.883 708.272 338.408 707.991 339.006 708.247L344.006 710.385C344.348 710.531 344.562 710.976 344.519 711.312L341.999 727.37L342.17 727.443L355.226 715.234C355.464 715.033 355.812 714.929 356.154 715.075L356.923 715.404C357.307 715.568 357.472 715.892 357.448 716.185L357.638 734.059L357.809 734.132L367.68 721.218C367.893 720.955 368.363 720.802 368.705 720.948L373.704 723.087C374.303 723.342 374.462 723.916 374.035 724.441L353.677 749.703C353.446 750.008 352.994 750.118 352.652 749.972L351.969 749.68C351.67 749.552 351.462 749.21 351.443 748.899L351.098 728.077L350.97 728.022L335.718 742.173C335.48 742.375 335.09 742.461 334.791 742.333L334.107 742.04C333.765 741.894 333.533 741.491 333.593 741.113ZM370.854 749.14C368.335 748.318 366.906 745.505 367.728 742.987C368.593 740.336 371.421 738.863 373.939 739.685C376.59 740.55 378.049 743.421 377.183 746.072C376.362 748.591 373.505 750.005 370.854 749.14ZM388.864 760.57L395.629 730.555C395.731 730.102 396.186 729.776 396.684 729.888L402.08 731.104C402.533 731.206 402.849 731.706 402.747 732.16L397.29 756.371L408.081 758.803C408.58 758.915 408.85 759.405 408.748 759.858L407.634 764.8C407.532 765.253 407.078 765.58 406.579 765.467L389.531 761.625C389.033 761.513 388.762 761.023 388.864 760.57ZM412.007 765.524L416.832 735.138C416.905 734.679 417.384 734.332 417.843 734.405L423.351 735.279C423.81 735.352 424.157 735.831 424.085 736.29L419.259 766.676C419.186 767.135 418.707 767.483 418.248 767.41L412.74 766.535C412.281 766.462 411.934 765.984 412.007 765.524ZM437.334 769.367L425.592 736.952C425.367 736.326 425.789 735.756 426.484 735.816L432.642 736.351C433.012 736.383 433.312 736.689 433.385 736.928L439.558 754.492L439.836 754.516L448.942 738.278C449.055 738.055 449.403 737.805 449.774 737.837L455.932 738.372C456.626 738.432 456.945 739.066 456.614 739.644L439.372 769.543C439.209 769.809 438.911 770.017 438.54 769.984L438.077 769.944C437.707 769.912 437.449 769.657 437.334 769.367ZM451.742 770.606C451.045 770.612 450.668 770.011 450.942 769.404L465.24 738.011C465.377 737.731 465.701 737.496 466.026 737.494L466.491 737.49C466.816 737.488 467.143 737.717 467.285 737.995L482.08 769.157C482.364 769.759 481.997 770.366 481.3 770.371L476.141 770.412C475.305 770.419 474.931 770.143 474.505 769.263L472.803 765.605L460.162 765.706L458.518 769.437C458.29 769.997 457.784 770.558 456.854 770.566L451.742 770.606ZM462.9 759.363L469.964 759.307L466.371 751.667L466.325 751.667L462.9 759.363ZM485.78 769.077L482.614 738.473C482.566 738.011 482.893 737.557 483.402 737.504L494.173 736.39C499.628 735.826 504.5 739.106 505.002 743.96C505.37 747.52 502.448 750.439 500.395 751.819C502.95 752.583 506.929 754.461 507.369 758.714C507.905 763.891 503.715 768.109 498.214 768.679L486.749 769.865C486.241 769.917 485.828 769.539 485.78 769.077ZM491.093 749.978L494.699 749.605C496.456 749.423 497.782 747.791 497.591 745.942C497.4 744.093 495.786 742.951 494.03 743.133L490.424 743.506L491.093 749.978ZM492.399 762.599L496.606 762.163C498.409 761.977 499.781 760.34 499.585 758.444C499.394 756.595 497.262 755.414 495.46 755.6L491.715 755.988L492.399 762.599ZM513.952 765.823L508.188 735.601C508.101 735.145 508.388 734.664 508.89 734.568L514.322 733.532C514.779 733.445 515.268 733.777 515.355 734.234L520.005 758.613L530.87 756.54C531.373 756.445 531.816 756.786 531.903 757.242L532.852 762.218C532.939 762.675 532.653 763.156 532.15 763.251L514.985 766.525C514.483 766.621 514.039 766.28 513.952 765.823ZM537.113 761.066L528.82 731.437C528.695 730.99 528.94 730.487 529.432 730.349L547.961 725.163C548.453 725.025 548.924 725.327 549.05 725.775L550.415 730.653C550.54 731.101 550.295 731.604 549.803 731.742L537.405 735.212L538.959 740.762L549.163 737.905C549.611 737.78 550.126 738.07 550.252 738.518L551.617 743.396C551.755 743.888 551.452 744.359 551.005 744.484L540.8 747.341L542.492 753.383L554.889 749.912C555.381 749.775 555.852 750.077 555.977 750.525L557.343 755.403C557.468 755.851 557.223 756.354 556.731 756.492L538.202 761.678C537.709 761.816 537.239 761.513 537.113 761.066ZM578.391 748.136L557.711 723.137C557.278 722.617 557.429 722.042 558.024 721.778L562.996 719.576C563.336 719.426 563.808 719.573 564.025 719.832L574.06 732.619L574.23 732.544L574.191 714.669C574.206 714.357 574.366 714.032 574.706 713.881L575.471 713.542C575.854 713.373 576.203 713.473 576.401 713.69L589.612 725.731L589.782 725.655L587.056 709.631C587.01 709.296 587.218 708.848 587.558 708.697L592.53 706.495C593.125 706.232 593.653 706.506 593.746 707.176L598.363 739.29C598.428 739.667 598.201 740.073 597.861 740.223L597.182 740.525C596.884 740.656 596.493 740.576 596.252 740.377L580.778 726.441L580.65 726.498L580.614 747.303C580.6 747.615 580.396 747.959 580.099 748.091L579.419 748.392C579.079 748.543 578.626 748.438 578.391 748.136ZM606.634 735.754C606.033 736.107 605.406 735.775 605.34 735.113L602.01 700.779C601.988 700.468 602.151 700.103 602.431 699.937L602.832 699.702C603.112 699.537 603.51 699.572 603.772 699.742L632.175 719.317C632.722 719.696 632.708 720.406 632.107 720.759L627.661 723.376C626.94 723.801 626.478 723.749 625.67 723.2L622.366 720.885L611.471 727.298L611.916 731.35C611.998 731.949 611.841 732.689 611.04 733.16L606.634 735.754ZM610.668 720.436L616.756 716.852L609.822 712.036L609.782 712.059L610.668 720.436ZM624.122 706.538C618.614 699.051 620.197 688.655 627.647 683.174C630.792 680.861 635.2 679.637 639.371 679.973C639.9 679.988 640.268 680.409 640.189 680.929L639.545 686.25C639.438 686.732 639.026 687.035 638.562 687.031C636.175 686.767 634.17 687.492 632.336 688.841C628.255 691.843 627.494 697.711 630.523 701.829C633.525 705.91 639.336 706.828 643.417 703.826C644.502 703.027 645.515 702.052 646.308 700.776L644.71 698.605L642.352 700.34C641.94 700.643 641.42 700.563 641.145 700.189L638.418 696.483C638.115 696.071 638.195 695.551 638.606 695.248L646.131 689.713C646.506 689.437 647.053 689.554 647.328 689.928L654.774 699.971C654.912 700.159 654.983 700.568 654.915 700.791C654.915 700.791 652.849 706.061 647.421 710.054C639.971 715.535 629.63 714.026 624.122 706.538ZM661.041 697.939L640.472 675.058C640.161 674.713 640.158 674.153 640.539 673.811L654.848 660.948C655.228 660.606 655.784 660.668 656.095 661.014L659.481 664.781C659.792 665.127 659.795 665.687 659.415 666.028L649.841 674.635L653.694 678.921L661.574 671.837C661.92 671.526 662.511 671.557 662.821 671.903L666.208 675.67C666.55 676.051 666.487 676.607 666.142 676.917L658.261 684.002L662.456 688.668L672.03 680.061C672.41 679.719 672.966 679.782 673.277 680.127L676.664 683.895C676.974 684.24 676.978 684.8 676.597 685.142L662.288 698.005C661.908 698.347 661.352 698.284 661.041 697.939Z" fill="#231F20"/>
</svg>
