<svg width="1104" height="241" viewBox="0 0 1104 241" fill="none" xmlns="http://www.w3.org/2000/svg">
<path d="M0.196289 0.0249023H1058.31C1076.16 0.0250926 1085.87 20.897 1074.37 34.5542L1011.6 109.073C1006.27 115.401 1006.27 124.649 1011.6 130.977L1074.37 205.496C1085.87 219.153 1076.16 240.025 1058.31 240.025H0.196289V0.0249023Z" fill="#222222"/>
<path d="M0.196289 0.0249023H1058.31C1076.16 0.0250926 1085.87 20.897 1074.37 34.5542L1011.6 109.073C1006.27 115.401 1006.27 124.649 1011.6 130.977L1074.37 205.496C1085.87 219.153 1076.16 240.025 1058.31 240.025H0.196289V0.0249023Z" stroke="white"/>
<path d="M39.436 126.277V80.4339C39.436 79.3239 40.435 78.3249 41.545 78.3249H55.198C56.419 78.3249 57.307 79.3239 57.307 80.4339V125.389C57.307 133.159 63.079 139.375 70.96 139.375C78.952 139.375 84.835 133.159 84.835 125.389V80.4339C84.835 79.3239 85.723 78.3249 86.944 78.3249H100.597C101.707 78.3249 102.706 79.3239 102.706 80.4339V126.277C102.706 143.149 88.498 157.135 70.96 157.135C53.533 157.135 39.436 143.149 39.436 126.277ZM120.544 153.916L120.433 79.2129C120.433 78.1029 121.432 77.2149 122.542 77.2149H125.317L169.606 119.839H169.717V80.4339C169.717 79.3239 170.605 78.3249 171.826 78.3249H185.146C186.256 78.3249 187.255 79.3239 187.255 80.4339V155.137C187.255 156.247 186.256 157.135 185.146 157.135H183.37C183.037 157.135 182.149 156.802 181.927 156.58L138.082 112.513H137.971V153.916C137.971 155.026 137.083 156.025 135.862 156.025H122.653C121.543 156.025 120.544 155.026 120.544 153.916ZM206.396 153.916V80.4339C206.396 79.3239 207.395 78.3249 208.505 78.3249H221.825C222.935 78.3249 223.934 79.3239 223.934 80.4339V153.916C223.934 155.026 222.935 156.025 221.825 156.025H208.505C207.395 156.025 206.396 155.026 206.396 153.916ZM253.024 153.916V94.6419H237.151C235.93 94.6419 235.042 93.6429 235.042 92.5329V80.4339C235.042 79.3239 235.93 78.3249 237.151 78.3249H286.435C287.656 78.3249 288.544 79.3239 288.544 80.4339V92.5329C288.544 93.6429 287.656 94.6419 286.435 94.6419H270.562V153.916C270.562 155.026 269.563 156.025 268.453 156.025H255.133C254.023 156.025 253.024 155.026 253.024 153.916ZM299.618 153.916V80.4339C299.618 79.3239 300.506 78.3249 301.727 78.3249H347.681C348.902 78.3249 349.79 79.3239 349.79 80.4339V92.5329C349.79 93.6429 348.902 94.6419 347.681 94.6419H316.934V108.406H342.242C343.352 108.406 344.351 109.405 344.351 110.515V122.614C344.351 123.835 343.352 124.723 342.242 124.723H316.934V139.708H347.681C348.902 139.708 349.79 140.707 349.79 141.817V153.916C349.79 155.026 348.902 156.025 347.681 156.025H301.727C300.506 156.025 299.618 155.026 299.618 153.916ZM364.657 153.916V80.4339C364.657 79.3239 365.545 78.3249 366.655 78.3249H393.739C415.162 78.3249 432.7 95.7519 432.7 117.064C432.7 138.598 415.162 156.025 393.739 156.025H366.655C365.545 156.025 364.657 155.026 364.657 153.916ZM381.973 139.597H392.629C405.172 139.597 414.274 129.718 414.274 117.064C414.274 104.521 405.172 94.6419 392.629 94.6419H381.973V139.597ZM484.876 155.581L463.897 80.9889C463.453 79.4349 464.341 78.3249 465.895 78.3249H478.882C479.77 78.3249 480.658 79.1019 480.88 79.8789L490.426 117.508H490.87L508.075 78.4359C508.408 77.7699 509.074 77.2149 509.962 77.2149H511.96C512.959 77.2149 513.625 77.7699 513.847 78.4359L531.052 117.508H531.496L541.042 79.8789C541.264 79.1019 542.152 78.3249 543.04 78.3249H556.027C557.581 78.3249 558.469 79.4349 558.025 80.9889L537.046 155.581C536.824 156.469 535.936 157.135 535.048 157.135H533.272C532.495 157.135 531.718 156.58 531.385 155.914L511.072 110.515H510.739L490.537 155.914C490.204 156.58 489.427 157.135 488.65 157.135H486.874C485.986 157.135 485.098 156.469 484.876 155.581ZM569.964 153.916V80.4339C569.964 79.3239 570.963 78.3249 572.073 78.3249H585.393C586.503 78.3249 587.502 79.3239 587.502 80.4339V153.916C587.502 155.026 586.503 156.025 585.393 156.025H572.073C570.963 156.025 569.964 155.026 569.964 153.916ZM616.593 153.916V94.6419H600.72C599.499 94.6419 598.611 93.6429 598.611 92.5329V80.4339C598.611 79.3239 599.499 78.3249 600.72 78.3249H650.004C651.225 78.3249 652.113 79.3239 652.113 80.4339V92.5329C652.113 93.6429 651.225 94.6419 650.004 94.6419H634.131V153.916C634.131 155.026 633.132 156.025 632.022 156.025H618.702C617.592 156.025 616.593 155.026 616.593 153.916ZM663.187 153.916V80.4339C663.187 79.3239 664.186 78.3249 665.296 78.3249H678.505C679.726 78.3249 680.614 79.3239 680.614 80.4339V108.406H712.36V80.4339C712.36 79.3239 713.248 78.3249 714.469 78.3249H727.678C728.788 78.3249 729.787 79.3239 729.787 80.4339V153.916C729.787 155.026 728.788 156.025 727.678 156.025H714.469C713.248 156.025 712.36 155.026 712.36 153.916V124.723H680.614V153.916C680.614 155.026 679.726 156.025 678.505 156.025H665.296C664.186 156.025 663.187 155.026 663.187 153.916Z" fill="white"/>
<path d="M876.349 17.0635H875.351C820.226 17.0635 775.538 62.057 775.538 117.559V118.564C775.538 174.067 820.226 219.06 875.351 219.06H876.349C931.475 219.06 976.163 174.067 976.163 118.564V117.559C976.163 62.057 931.475 17.0635 876.349 17.0635Z" fill="white"/>
<path d="M875.851 18.9756C821.499 18.9756 777.441 63.3386 777.441 118.062C777.441 172.786 821.499 217.148 875.851 217.148C930.202 217.148 974.264 172.786 974.264 118.062C974.264 63.3386 930.202 18.9756 875.851 18.9756ZM943.534 186.204C925.453 204.405 901.418 214.432 875.851 214.432C850.283 214.432 826.252 204.405 808.171 186.204C790.094 168.004 780.14 143.804 780.14 118.062C780.14 92.3197 790.094 68.1203 808.171 49.9197C826.252 31.7191 850.287 21.6923 875.851 21.6923C901.414 21.6923 925.453 31.7191 943.534 49.9197C961.611 68.1203 971.566 92.3197 971.566 118.062C971.566 143.804 961.611 168.004 943.534 186.204Z" fill="#231F20"/>
<path d="M858.078 97.694L855.609 101.333C855.387 101.6 855.083 101.781 854.74 101.844C854.342 101.914 853.936 101.824 853.609 101.589L853.539 101.541C852.872 101.062 852.708 100.12 853.18 99.445L855.535 96.0569C855.82 95.6408 856.28 95.417 856.756 95.417C857.033 95.417 857.317 95.4916 857.578 95.6526C857.929 95.8724 858.167 96.2179 858.257 96.6223C858.335 96.9952 858.269 97.3682 858.078 97.694Z" fill="#231F20"/>
<path d="M863.922 98.9857L860.206 104.431C860.139 104.529 860.097 104.635 860.038 104.737L859.691 105.248C859.457 105.593 859.102 105.825 858.693 105.899C858.283 105.974 857.87 105.884 857.527 105.64C856.841 105.153 856.665 104.192 857.137 103.493L857.644 102.747C857.679 102.7 857.718 102.664 857.749 102.617C858.482 101.545 859.344 100.266 860.077 99.1781C860.097 99.1506 860.104 99.1192 860.124 99.0917L862.101 96.1748C862.397 95.739 862.888 95.4995 863.384 95.4995C863.672 95.4995 863.961 95.582 864.218 95.7468C864.569 95.9785 864.807 96.3318 864.889 96.748C864.971 97.1602 864.889 97.5802 864.651 97.9257L863.976 98.9268C863.961 98.9504 863.937 98.9661 863.922 98.9857Z" fill="#231F20"/>
<path d="M867.385 103.799C867.361 103.835 867.326 103.862 867.303 103.897L865.49 106.516C865.427 106.606 865.392 106.704 865.338 106.799L864.788 107.607C864.34 108.259 863.478 108.471 862.78 108.094C862.39 107.882 862.117 107.525 862.012 107.089C861.934 106.767 861.961 106.437 862.082 106.139L866.012 100.34C866.258 100.015 866.609 99.8026 867.011 99.7437C867.089 99.732 867.163 99.728 867.237 99.728C867.588 99.728 867.927 99.8458 868.204 100.074C868.828 100.58 868.96 101.499 868.504 102.162L867.385 103.799Z" fill="#231F20"/>
<path d="M871.047 105.083C871.518 105.475 871.616 106.174 871.265 106.681L869.456 109.295C869.136 109.755 868.555 109.927 868.04 109.712C867.709 109.574 867.459 109.295 867.358 108.95C867.284 108.695 867.295 108.432 867.389 108.188L869.421 105.216C869.604 105.004 869.853 104.863 870.138 104.824C870.193 104.816 870.247 104.812 870.302 104.812C870.563 104.812 870.817 104.898 871.023 105.063C871.031 105.071 871.039 105.079 871.047 105.083Z" fill="#231F20"/>
<path d="M838.425 47.9175L838.406 47.9293L838.675 52.4441L842.005 50.6696L838.425 47.9175ZM838.425 47.9175L838.406 47.9293L838.675 52.4441L842.005 50.6696L838.425 47.9175ZM838.425 47.9175L838.406 47.9293L838.675 52.4441L842.005 50.6696L838.425 47.9175ZM857.637 38.6601C857.364 37.6473 856.307 37.0584 855.328 37.3214L851.78 38.2872L852.794 42.0443L856.33 41.0824C857.313 40.8155 857.906 39.673 857.637 38.6601ZM838.425 47.9175L838.406 47.9293L838.675 52.4441L842.005 50.6696L838.425 47.9175ZM857.637 38.6601C857.364 37.6473 856.307 37.0584 855.328 37.3214L851.78 38.2872L852.794 42.0443L856.33 41.0824C857.313 40.8155 857.906 39.673 857.637 38.6601ZM838.425 47.9175L838.406 47.9293L838.675 52.4441L842.005 50.6696L838.425 47.9175ZM857.637 38.6601C857.364 37.6473 856.307 37.0584 855.328 37.3214L851.78 38.2872L852.794 42.0443L856.33 41.0824C857.313 40.8155 857.906 39.673 857.637 38.6601ZM903.999 39.6456L900.521 38.4639L899.281 42.1542L902.763 43.3359C903.722 43.6618 904.849 43.0415 905.176 42.0482C905.516 41.055 904.962 39.9714 903.999 39.6456ZM838.425 47.9175L838.406 47.9293L838.675 52.4441L842.005 50.6696L838.425 47.9175ZM857.637 38.6601C857.364 37.6473 856.307 37.0584 855.328 37.3214L851.78 38.2872L852.794 42.0443L856.33 41.0824C857.313 40.8155 857.906 39.673 857.637 38.6601ZM903.999 39.6456L900.521 38.4639L899.281 42.1542L902.763 43.3359C903.722 43.6618 904.849 43.0415 905.176 42.0482C905.516 41.055 904.962 39.9714 903.999 39.6456ZM838.425 47.9175L838.406 47.9293L838.675 52.4441L842.005 50.6696L838.425 47.9175ZM857.637 38.6601C857.364 37.6473 856.307 37.0584 855.328 37.3214L851.78 38.2872L852.794 42.0443L856.33 41.0824C857.313 40.8155 857.906 39.673 857.637 38.6601ZM903.999 39.6456L900.521 38.4639L899.281 42.1542L902.763 43.3359C903.722 43.6618 904.849 43.0415 905.176 42.0482C905.516 41.055 904.962 39.9714 903.999 39.6456ZM838.425 47.9175L838.406 47.9293L838.675 52.4441L842.005 50.6696L838.425 47.9175ZM857.637 38.6601C857.364 37.6473 856.307 37.0584 855.328 37.3214L851.78 38.2872L852.794 42.0443L856.33 41.0824C857.313 40.8155 857.906 39.673 857.637 38.6601ZM903.999 39.6456L900.521 38.4639L899.281 42.1542L902.763 43.3359C903.722 43.6618 904.849 43.0415 905.176 42.0482C905.516 41.055 904.962 39.9714 903.999 39.6456ZM838.425 47.9175L838.406 47.9293L838.675 52.4441L842.005 50.6696L838.425 47.9175ZM857.637 38.6601C857.364 37.6473 856.307 37.0584 855.328 37.3214L851.78 38.2872L852.794 42.0443L856.33 41.0824C857.313 40.8155 857.906 39.673 857.637 38.6601ZM903.999 39.6456L900.521 38.4639L899.281 42.1542L902.763 43.3359C903.722 43.6618 904.849 43.0415 905.176 42.0482C905.516 41.055 904.962 39.9714 903.999 39.6456ZM838.425 47.9175L838.406 47.9293L838.675 52.4441L842.005 50.6696L838.425 47.9175ZM857.637 38.6601C857.364 37.6473 856.307 37.0584 855.328 37.3214L851.78 38.2872L852.794 42.0443L856.33 41.0824C857.313 40.8155 857.906 39.673 857.637 38.6601ZM903.999 39.6456L900.521 38.4639L899.281 42.1542L902.763 43.3359C903.722 43.6618 904.849 43.0415 905.176 42.0482C905.516 41.055 904.962 39.9714 903.999 39.6456ZM838.425 47.9175L838.406 47.9293L838.675 52.4441L842.005 50.6696L838.425 47.9175ZM857.637 38.6601C857.364 37.6473 856.307 37.0584 855.328 37.3214L851.78 38.2872L852.794 42.0443L856.33 41.0824C857.313 40.8155 857.906 39.673 857.637 38.6601ZM903.999 39.6456L900.521 38.4639L899.281 42.1542L902.763 43.3359C903.722 43.6618 904.849 43.0415 905.176 42.0482C905.516 41.055 904.962 39.9714 903.999 39.6456ZM949.589 118.886L949.495 121.281C949.394 124.1 951.519 126.228 954.342 126.338C957.138 126.444 959.423 124.485 959.532 121.666L959.618 119.271L949.589 118.886ZM949.589 118.886L949.495 121.281C949.394 124.1 951.519 126.228 954.342 126.338C957.138 126.444 959.423 124.485 959.532 121.666L959.618 119.271L949.589 118.886ZM838.425 47.9175L838.406 47.9293L838.675 52.4441L842.005 50.6696L838.425 47.9175ZM857.637 38.6601C857.364 37.6473 856.307 37.0584 855.328 37.3214L851.78 38.2872L852.794 42.0443L856.33 41.0824C857.313 40.8155 857.906 39.673 857.637 38.6601ZM903.999 39.6456L900.521 38.4639L899.281 42.1542L902.763 43.3359C903.722 43.6618 904.849 43.0415 905.176 42.0482C905.516 41.055 904.962 39.9714 903.999 39.6456ZM941.876 51.5843C924.236 33.8273 900.79 24.0479 875.85 24.0479C850.91 24.0479 827.464 33.8273 809.824 51.5843C792.188 69.3413 782.479 92.9518 782.479 118.062C782.479 143.172 792.188 166.783 809.824 184.54C827.464 202.297 850.91 212.076 875.85 212.076C900.79 212.076 924.236 202.297 941.876 184.54C959.512 166.783 969.222 143.172 969.222 118.062C969.222 92.9518 959.512 69.3413 941.876 51.5843ZM960.943 98.6444L962.796 108.809C962.838 109.079 962.659 109.315 962.413 109.362L959.758 109.849C959.512 109.896 959.259 109.739 959.204 109.468L957.976 102.668L954.95 103.226L955.964 108.824C956.011 109.068 955.832 109.331 955.59 109.374L952.927 109.865C952.658 109.916 952.424 109.727 952.381 109.484L951.367 103.885L948.076 104.49L949.304 111.294C949.359 111.561 949.175 111.8 948.93 111.843L946.267 112.334C946.029 112.377 945.771 112.224 945.721 111.953L943.876 101.789C943.83 101.518 944.013 101.283 944.259 101.235L960.401 98.2636C960.643 98.2204 960.901 98.3735 960.943 98.6444ZM955.508 82.5873L959.438 92.94C959.536 93.1952 959.395 93.4621 959.161 93.5524L956.643 94.5221C956.413 94.6124 956.132 94.5064 956.034 94.2513L954.767 90.9142L942.402 95.6764C942.169 95.7667 941.884 95.6371 941.794 95.4015L940.734 92.6063C940.64 92.3707 940.769 92.0802 941.007 91.9938L953.367 87.2317L952.104 83.8986C952.006 83.6434 952.143 83.3764 952.377 83.2861L954.896 82.3125C955.13 82.2261 955.41 82.3321 955.508 82.5873ZM951.577 75.2694L953.024 77.888C953.145 78.1078 953.055 78.4141 952.837 78.5318L938.484 86.5407C938.269 86.6624 937.969 86.5761 937.848 86.3562L936.405 83.7376C936.281 83.5178 936.37 83.2115 936.589 83.0898L950.942 75.0849C951.156 74.9632 951.464 75.0496 951.577 75.2694ZM937.872 117.057V119.067C937.766 125.851 936.577 132.38 934.475 138.481L933.793 140.365C931.422 146.588 928.092 152.331 923.982 157.419L922.703 158.958C918.41 163.933 913.353 168.22 907.719 171.631L905.991 172.636C900.341 175.812 894.153 178.125 887.602 179.393L885.637 179.742C882.448 180.253 879.18 180.523 875.846 180.523C872.512 180.523 869.249 180.253 866.059 179.742L864.094 179.393C857.543 178.125 851.351 175.812 845.705 172.636L843.978 171.631C838.343 168.22 833.282 163.933 828.993 158.958L827.714 157.419C823.604 152.331 820.274 146.588 817.903 140.365L817.217 138.481C815.115 132.38 813.93 125.851 813.825 119.067V117.057C814.359 83.0781 841.973 55.6005 875.846 55.6005C909.719 55.6005 937.337 83.0781 937.872 117.057ZM938.987 57.6106L939.384 58.0935L938.336 71.8735L938.355 71.8931L945.136 66.2516C945.331 66.0945 945.623 66.1063 945.803 66.3183L947.694 68.6267C947.854 68.8191 947.822 69.1371 947.631 69.2941L934.764 79.9844C934.577 80.1415 934.276 80.0983 934.12 79.9059L933.871 79.5958C933.82 79.5369 933.754 79.3367 933.762 79.266L935.119 65.3564L935.103 65.3368L927.971 71.265C927.776 71.422 927.484 71.4102 927.305 71.1982L925.433 68.9094C925.273 68.717 925.304 68.399 925.495 68.242L938.343 57.5321C938.531 57.375 938.831 57.4182 938.987 57.6106ZM915.443 52.6914L921.495 44.3802C921.639 44.1761 921.955 44.129 922.15 44.2781L924.614 46.0919C924.832 46.2529 924.864 46.5552 924.715 46.7554L918.773 54.9056C917.748 56.315 917.97 58.2113 919.389 59.2556C920.832 60.3195 922.711 59.974 923.737 58.5646L929.671 50.4144C929.82 50.2141 930.112 50.1513 930.33 50.3123L932.791 52.1261C932.99 52.2753 933.036 52.5893 932.892 52.7896L926.837 61.1047C924.61 64.163 920.2 64.8107 917.046 62.4787C913.907 60.1624 913.217 55.7497 915.443 52.6914ZM892.57 49.9354L897.818 34.2788C897.896 34.0433 898.158 33.8941 898.415 33.9804L905.438 36.3674C908.257 37.3253 909.789 40.4033 908.846 43.2181C908.116 45.3931 906.097 46.6573 903.776 46.7868L904.981 53.8888C905.04 54.2539 904.751 54.5758 904.35 54.4384L901.226 53.3784C901.035 53.3156 900.938 53.1468 900.922 53.0369L899.897 45.7072L898.279 45.1576L896.255 51.1878C896.177 51.4233 895.892 51.5647 895.658 51.4861L892.862 50.5361C892.601 50.4458 892.488 50.171 892.57 49.9354ZM880.814 31.6759C880.841 31.4286 881.063 31.2284 881.336 31.2598L891.529 32.4454C891.802 32.4768 891.97 32.7241 891.942 32.9715L891.634 35.6725C891.603 35.9238 891.381 36.124 891.108 36.0926L884.292 35.2956L883.933 38.3696L889.548 39.0253C889.798 39.0527 889.993 39.3001 889.961 39.5513L889.653 42.2524C889.622 42.5233 889.377 42.696 889.135 42.6685L883.52 42.0168L883.13 45.3617L889.954 46.1547C890.227 46.1861 890.398 46.4335 890.367 46.6808L890.059 49.3818C890.032 49.6331 889.809 49.8333 889.533 49.8019L879.344 48.6124C879.075 48.581 878.903 48.3376 878.93 48.0902L880.814 31.6759ZM864.534 31.7741L875.511 31.0439C875.788 31.0242 875.998 31.2362 876.014 31.4836L876.193 34.1964C876.209 34.4476 876.029 34.6832 875.753 34.7028L872.22 34.9384L873.089 48.2355C873.105 48.4828 872.902 48.7223 872.653 48.738L869.685 48.9382C869.44 48.9539 869.198 48.7419 869.186 48.4946L868.313 35.1975L864.772 35.433C864.503 35.4527 864.293 35.2407 864.273 34.9933L864.098 32.2766C864.078 32.0293 864.265 31.7898 864.534 31.7741ZM847.557 35.7353L854.716 33.792C857.586 33.0107 860.561 34.7107 861.325 37.5805C861.918 39.7987 860.935 41.9776 859.083 43.387L864.004 48.6163C864.25 48.8833 864.187 49.3151 863.786 49.425L860.596 50.2887C860.409 50.3437 860.23 50.2613 860.156 50.1788L855.266 44.655L853.609 45.1065L855.258 51.2506C855.324 51.4901 855.168 51.7649 854.927 51.8316L852.08 52.605C851.815 52.6757 851.562 52.5108 851.503 52.2713L847.226 36.3164C847.159 36.0769 847.296 35.8099 847.557 35.7353ZM834.779 41.2473L834.998 41.1335C835.154 41.051 835.364 41.0785 835.501 41.1767L850.166 52.3616C850.45 52.5775 850.423 52.9584 850.092 53.1311L847.662 54.4306C847.265 54.6387 847.027 54.5994 846.606 54.2853L844.902 52.9662L838.94 56.1462L839.084 58.329C839.115 58.651 839.014 59.0436 838.573 59.2791L836.167 60.5629C835.836 60.7396 835.512 60.5472 835.493 60.1899L834.537 41.691C834.537 41.5221 834.623 41.3298 834.779 41.2473ZM817.287 53.6768L825.908 46.7907C826.127 46.618 826.419 46.669 826.575 46.8653L828.248 48.9971C828.408 49.1934 828.392 49.4918 828.174 49.6645L825.401 51.8827L833.625 62.3256C833.781 62.518 833.746 62.836 833.551 62.9891L831.223 64.8539C831.028 65.007 830.708 64.9717 830.556 64.7754L822.325 54.3324L819.553 56.5506C819.338 56.7233 819.046 56.6723 818.89 56.476L817.213 54.3442C817.053 54.1479 817.077 53.8496 817.287 53.6768ZM810.194 60.7788C811.906 58.8355 814.203 58.2152 815.107 58.0189C815.431 57.909 815.735 58.2466 815.798 58.435L816.39 60.661C816.48 60.9751 816.351 61.4619 816.074 61.513C815.833 61.5993 813.606 62.0547 812.608 63.1933C812.019 63.8685 812.019 64.7675 812.518 65.2151C813.209 65.8275 814.222 65.7294 816.113 64.7833C817.97 63.8371 821.136 62.5258 823.662 64.7754C825.577 66.4793 826.041 69.8634 823.631 72.6115C821.494 75.0417 819.307 75.4932 818.504 75.5442C818.157 75.5638 818.032 75.556 817.903 75.1752L817.131 72.9217C817.026 72.5566 817.373 72.2347 817.58 72.1875C817.685 72.1444 819.845 71.6772 820.933 70.4444C821.592 69.6946 821.6 68.7406 820.956 68.1596C820.177 67.4647 819.007 67.5903 817.389 68.4147C815.345 69.459 812.323 70.3738 810.097 68.3873C808.26 66.7501 807.668 63.6565 810.194 60.7788ZM797.257 80.3378L798.703 77.8056C798.867 77.5268 799.238 77.4247 799.514 77.5857L805.168 80.8521L801.951 72.6037C801.897 72.4584 801.897 72.1993 801.975 72.0698L803.531 69.3413C803.765 68.933 804.361 68.9879 804.544 69.4119L807.956 78.1196L818.239 76.722C818.703 76.671 819.042 77.1813 818.8 77.5935L817.104 80.5812C817.018 80.7304 816.819 80.8756 816.73 80.8835L807.126 81.9827L813.536 85.6849C813.817 85.8458 813.918 86.2227 813.754 86.5015L812.312 89.0337C812.14 89.3399 811.781 89.4184 811.497 89.2575L797.483 81.1583C797.202 80.9973 797.085 80.644 797.257 80.3378ZM792.468 92.0684C793.186 89.6815 794.453 88.1386 796.418 86.9647C796.672 86.8077 796.956 86.8941 797.085 87.1414L798.442 89.5951C798.563 89.811 798.485 90.0741 798.267 90.1918C797.218 90.8357 796.438 91.8721 796.087 93.046C795.268 95.7431 796.902 98.4049 799.557 99.2175C802.189 100.026 804.973 98.6875 805.792 95.9865C806.127 94.8637 806.096 93.525 805.617 92.4414C805.527 92.2294 805.617 91.9193 805.827 91.825L808.362 90.5648C808.58 90.451 808.88 90.5687 808.997 90.7847C810.07 92.889 810.183 95.166 809.539 97.2938C808.101 102.068 803.172 104.761 798.426 103.308C793.681 101.856 791.026 96.8424 792.468 92.0684ZM789.4 106.484C789.431 106.237 789.68 106.041 789.926 106.072L806.205 108.161C806.451 108.192 806.646 108.443 806.611 108.691L806.237 111.663C806.205 111.91 805.952 112.102 805.71 112.071L789.431 109.986C789.185 109.955 788.99 109.704 789.025 109.456L789.4 106.484ZM788.791 128.285L788.686 125.368C788.671 125.042 788.932 124.76 789.255 124.748L795.771 124.493L788.694 119.224C788.565 119.13 788.433 118.91 788.429 118.761L788.304 115.616C788.288 115.141 788.827 114.87 789.209 115.133L796.687 120.685L804.665 114.003C805.028 113.712 805.585 113.967 805.601 114.442L805.738 117.881C805.738 118.058 805.648 118.286 805.582 118.337L798.025 124.402L805.406 124.116C805.726 124.104 806.007 124.367 806.022 124.689L806.135 127.61C806.151 127.959 805.886 128.218 805.566 128.23L789.415 128.862C789.092 128.874 788.807 128.635 788.791 128.285ZM875.85 197.699C839.369 197.699 808.588 172.715 799.471 138.854H800.684C809.765 172.059 840.024 196.522 875.85 196.522C911.676 196.522 941.935 172.059 951.016 138.854H952.229C943.112 172.715 912.331 197.699 875.85 197.699ZM954.19 130.476C949.386 130.295 945.639 126.204 945.826 121.391L946.056 115.306C946.064 115.055 946.298 114.866 946.544 114.874L962.944 115.502C963.186 115.51 963.408 115.718 963.396 115.969L963.162 122.055C962.983 126.868 958.947 130.66 954.19 130.476ZM949.499 121.281C949.398 124.1 951.523 126.228 954.346 126.338C957.142 126.444 959.427 124.485 959.536 121.666L959.622 119.271L949.593 118.886L949.499 121.281ZM875.85 57.6106C843.077 57.6106 816.355 84.1852 815.821 117.057H935.883C935.345 84.1852 908.627 57.6106 875.85 57.6106ZM912.698 87.0864L903.667 89.5009L898.009 95.6371C898.06 95.802 898.126 95.959 898.158 96.1278C898.403 97.2899 898.181 98.4716 897.526 99.4609C896.688 100.745 895.3 101.447 893.876 101.447C893.771 101.447 893.674 101.436 893.568 101.428C893.537 102.068 893.35 102.692 892.983 103.246C892.094 104.616 890.578 105.377 889.033 105.377C889.01 105.377 888.994 105.373 888.975 105.373C888.987 106.147 888.753 106.916 888.296 107.548C887.443 108.875 886.015 109.609 884.541 109.609C884.397 109.609 884.257 109.598 884.113 109.582C882.627 111.062 880.658 111.887 878.587 111.887C878.182 111.887 877.776 111.855 877.371 111.792L871.366 110.866C870.66 111.784 869.603 112.299 868.504 112.299C868.036 112.299 867.556 112.205 867.1 112.016C866.309 111.686 865.677 111.097 865.283 110.355C864.729 110.626 864.129 110.772 863.521 110.772C862.869 110.772 862.218 110.615 861.61 110.285C860.764 109.825 860.124 109.064 859.789 108.165C859.578 108.239 859.36 108.31 859.142 108.349C858.896 108.396 858.654 108.416 858.409 108.416C857.59 108.416 856.794 108.165 856.112 107.678C855.001 106.893 854.404 105.633 854.412 104.357C853.609 104.345 852.837 104.094 852.178 103.619L852.107 103.567C850.341 102.299 849.912 99.8104 851.156 98.0201L852.466 96.1318L847.76 89.8817L838.951 87.0668C838.296 86.8587 837.938 86.1599 838.144 85.5043C838.351 84.8526 839.045 84.4835 839.692 84.6955L848.879 87.6282C849.125 87.7067 849.335 87.8559 849.491 88.0601L853.999 94.051C855.281 92.7987 857.282 92.5396 858.853 93.5171C859.368 93.839 859.781 94.2552 860.093 94.7341C861.325 92.9635 863.77 92.4807 865.568 93.6624C866.484 94.2591 867.104 95.1817 867.318 96.2574C867.385 96.5911 867.396 96.9209 867.377 97.2507C868.239 97.2821 869.085 97.5844 869.759 98.1379C871.042 99.1822 871.514 100.894 871.073 102.421C871.635 102.547 872.169 102.786 872.618 103.159C872.633 103.171 872.649 103.179 872.66 103.191C874.088 104.408 874.372 106.555 873.3 108.102L872.957 108.593L877.745 109.331C879.051 109.531 880.346 109.244 881.426 108.565L876.127 105.856C875.519 105.546 875.277 104.796 875.585 104.184C875.893 103.571 876.642 103.328 877.25 103.638L883.617 106.893C884.549 107.368 885.672 107.062 886.234 106.174C886.249 106.151 886.273 106.127 886.288 106.1C886.476 105.841 886.55 105.523 886.491 105.205C886.429 104.887 886.245 104.62 885.973 104.451L884.51 103.552L878.564 100.289C877.963 99.9635 877.749 99.2058 878.077 98.6012C878.404 97.9966 879.157 97.7767 879.749 98.1026L887.981 102.617C888.994 103.175 890.285 102.849 890.921 101.879C891.104 101.597 891.162 101.263 891.092 100.937C891.018 100.607 890.815 100.333 890.531 100.16L889.517 99.5513L881.098 94.4789C880.514 94.1217 880.319 93.3601 880.673 92.7712C881.024 92.1784 881.781 91.986 882.366 92.3393L892.894 98.6797C893.771 99.2097 894.902 98.9506 895.467 98.0908C895.748 97.659 895.849 97.1447 895.736 96.6382C895.639 96.1318 895.339 95.6999 894.91 95.4173L875.452 82.7208C875.175 82.5441 874.828 82.5245 874.544 82.6776L865.501 87.4358C864.347 88.0444 862.936 87.9227 861.895 87.1375C861.177 86.5839 860.709 85.783 860.592 84.8801C860.471 83.9732 860.709 83.0781 861.259 82.3557L864.495 78.1118L861.294 77.6014C860.935 77.5425 860.592 77.4287 860.269 77.2598C860.191 77.2206 860.124 77.1735 860.058 77.1224L849.776 68.7249C849.245 68.2891 849.164 67.5039 849.596 66.9739C850.025 66.4361 850.805 66.3575 851.335 66.7894L861.497 75.0927C861.555 75.1163 861.618 75.132 861.68 75.1398L866.332 75.8858C867.334 74.9436 868.586 74.2997 869.954 74.0445L874.942 73.1101C878.022 72.533 881.134 72.5684 884.194 73.2161L889.505 74.339C889.642 74.3664 889.782 74.3664 889.915 74.3311L900.318 66.7462C900.872 66.3418 901.648 66.4675 902.041 67.025C902.447 67.5824 902.318 68.3637 901.772 68.7641L891.217 76.455C891.131 76.5139 891.042 76.565 890.952 76.6042C890.328 76.8555 889.653 76.9144 888.994 76.777L883.684 75.6541C880.942 75.0731 878.155 75.0417 875.398 75.556L870.407 76.4904C869.241 76.7102 868.2 77.3501 867.478 78.2963L863.22 83.8711C863.072 84.0635 863.01 84.3069 863.041 84.5464C863.072 84.7898 863.197 85.0018 863.392 85.151C863.665 85.359 864.047 85.3944 864.355 85.2295L873.397 80.4713C874.478 79.902 875.78 79.9648 876.794 80.6322L896.255 93.3287C896.364 93.3954 896.45 93.4857 896.551 93.5642L902.1 87.5458C902.26 87.373 902.462 87.2474 902.689 87.1885L912.062 84.6798C912.717 84.5032 913.4 84.8958 913.575 85.5632C913.747 86.2267 913.357 86.9098 912.698 87.0864ZM932.608 137.794C934.631 131.909 935.774 125.612 935.883 119.067H881.504L932.608 137.794ZM922.454 156.128C926.416 151.22 929.629 145.677 931.917 139.678L880.822 120.951L922.454 156.128ZM906.724 169.892C912.16 166.598 917.038 162.464 921.179 157.667L879.543 122.49L906.724 169.892ZM905.176 42.0482C905.516 41.055 904.962 39.9714 903.999 39.6456L900.521 38.4639L899.281 42.1542L902.763 43.3359C903.722 43.6618 904.849 43.0415 905.176 42.0482ZM887.259 177.418C893.58 176.189 899.55 173.959 904.997 170.897L877.815 123.495L887.259 177.418ZM866.41 177.764C869.486 178.258 872.641 178.513 875.85 178.513C879.059 178.513 882.218 178.258 885.294 177.764L875.85 123.841L866.41 177.764ZM846.707 170.897C852.154 173.959 858.124 176.189 864.445 177.418L873.889 123.495L846.707 170.897ZM830.525 157.667C834.666 162.464 839.544 166.598 844.98 169.892L872.161 122.49L830.525 157.667ZM819.783 139.678C822.072 145.677 825.285 151.22 829.246 156.128L870.878 120.951L819.783 139.678ZM815.817 119.067C815.926 125.612 817.069 131.909 819.093 137.794L870.192 119.067H815.817ZM856.33 41.0824C857.313 40.8155 857.906 39.673 857.637 38.6601C857.364 37.6473 856.307 37.0584 855.328 37.3214L851.78 38.2872L852.794 42.0443L856.33 41.0824ZM842.008 50.6696L838.429 47.9175L838.409 47.9293L838.678 52.4441L842.008 50.6696ZM903.999 39.6456L900.521 38.4639L899.281 42.1542L902.763 43.3359C903.722 43.6618 904.849 43.0415 905.176 42.0482C905.516 41.055 904.962 39.9714 903.999 39.6456ZM857.637 38.6601C857.364 37.6473 856.307 37.0584 855.328 37.3214L851.78 38.2872L852.794 42.0443L856.33 41.0824C857.313 40.8155 857.906 39.673 857.637 38.6601ZM838.425 47.9175L838.406 47.9293L838.675 52.4441L842.005 50.6696L838.425 47.9175ZM903.999 39.6456L900.521 38.4639L899.281 42.1542L902.763 43.3359C903.722 43.6618 904.849 43.0415 905.176 42.0482C905.516 41.055 904.962 39.9714 903.999 39.6456ZM857.637 38.6601C857.364 37.6473 856.307 37.0584 855.328 37.3214L851.78 38.2872L852.794 42.0443L856.33 41.0824C857.313 40.8155 857.906 39.673 857.637 38.6601ZM838.425 47.9175L838.406 47.9293L838.675 52.4441L842.005 50.6696L838.425 47.9175ZM903.999 39.6456L900.521 38.4639L899.281 42.1542L902.763 43.3359C903.722 43.6618 904.849 43.0415 905.176 42.0482C905.516 41.055 904.962 39.9714 903.999 39.6456ZM857.637 38.6601C857.364 37.6473 856.307 37.0584 855.328 37.3214L851.78 38.2872L852.794 42.0443L856.33 41.0824C857.313 40.8155 857.906 39.673 857.637 38.6601ZM838.425 47.9175L838.406 47.9293L838.675 52.4441L842.005 50.6696L838.425 47.9175ZM903.999 39.6456L900.521 38.4639L899.281 42.1542L902.763 43.3359C903.722 43.6618 904.849 43.0415 905.176 42.0482C905.516 41.055 904.962 39.9714 903.999 39.6456ZM857.637 38.6601C857.364 37.6473 856.307 37.0584 855.328 37.3214L851.78 38.2872L852.794 42.0443L856.33 41.0824C857.313 40.8155 857.906 39.673 857.637 38.6601ZM838.425 47.9175L838.406 47.9293L838.675 52.4441L842.005 50.6696L838.425 47.9175ZM903.999 39.6456L900.521 38.4639L899.281 42.1542L902.763 43.3359C903.722 43.6618 904.849 43.0415 905.176 42.0482C905.516 41.055 904.962 39.9714 903.999 39.6456ZM857.637 38.6601C857.364 37.6473 856.307 37.0584 855.328 37.3214L851.78 38.2872L852.794 42.0443L856.33 41.0824C857.313 40.8155 857.906 39.673 857.637 38.6601ZM838.425 47.9175L838.406 47.9293L838.675 52.4441L842.005 50.6696L838.425 47.9175ZM903.999 39.6456L900.521 38.4639L899.281 42.1542L902.763 43.3359C903.722 43.6618 904.849 43.0415 905.176 42.0482C905.516 41.055 904.962 39.9714 903.999 39.6456ZM857.637 38.6601C857.364 37.6473 856.307 37.0584 855.328 37.3214L851.78 38.2872L852.794 42.0443L856.33 41.0824C857.313 40.8155 857.906 39.673 857.637 38.6601ZM838.425 47.9175L838.406 47.9293L838.675 52.4441L842.005 50.6696L838.425 47.9175ZM857.637 38.6601C857.364 37.6473 856.307 37.0584 855.328 37.3214L851.78 38.2872L852.794 42.0443L856.33 41.0824C857.313 40.8155 857.906 39.673 857.637 38.6601ZM838.425 47.9175L838.406 47.9293L838.675 52.4441L842.005 50.6696L838.425 47.9175ZM857.637 38.6601C857.364 37.6473 856.307 37.0584 855.328 37.3214L851.78 38.2872L852.794 42.0443L856.33 41.0824C857.313 40.8155 857.906 39.673 857.637 38.6601ZM838.425 47.9175L838.406 47.9293L838.675 52.4441L842.005 50.6696L838.425 47.9175ZM857.637 38.6601C857.364 37.6473 856.307 37.0584 855.328 37.3214L851.78 38.2872L852.794 42.0443L856.33 41.0824C857.313 40.8155 857.906 39.673 857.637 38.6601ZM838.425 47.9175L838.406 47.9293L838.675 52.4441L842.005 50.6696L838.425 47.9175ZM857.637 38.6601C857.364 37.6473 856.307 37.0584 855.328 37.3214L851.78 38.2872L852.794 42.0443L856.33 41.0824C857.313 40.8155 857.906 39.673 857.637 38.6601ZM838.425 47.9175L838.406 47.9293L838.675 52.4441L842.005 50.6696L838.425 47.9175Z" fill="#231F20"/>
<path d="M934.857 188.391L930.931 193.019V188.391H934.857Z" fill="white"/>
<path d="M940.247 182.812L944.918 194.621H931.855L937.139 188.394V171.002H944.918L940.247 182.812Z" fill="white"/>
<path d="M822.712 188.391V193.019L818.785 188.391H822.712Z" fill="white"/>
<path d="M808.725 194.621L813.388 182.812L808.725 171.002H816.5V188.39H816.519L816.504 188.406L821.787 194.621H808.725Z" fill="white"/>
<path d="M935.649 161.828H817.989V186.891H935.649V161.828Z" fill="white"/>
<path d="M947.113 169.507H937.143V160.332H816.5V169.507H806.529L811.789 182.816L806.529 196.125H824.201V188.395H929.445V196.125H947.117L941.857 182.816L947.117 169.507H947.113ZM808.725 194.621L813.392 182.812L808.725 171.003H816.504V188.387H816.523L816.507 188.402L821.787 194.617H808.725V194.621ZM822.711 193.019L818.785 188.391H822.711V193.019ZM817.989 186.891V161.828H935.649V186.891H817.989ZM930.931 188.391H934.858L930.931 193.019V188.391ZM944.918 194.621H931.855L937.143 188.395V171.003H944.922L940.25 182.812L944.922 194.621H944.918Z" fill="#231F20"/>
<path d="M838.473 167.273C842.442 167.273 845.62 170.492 845.62 174.489C845.62 178.485 842.446 181.665 838.473 181.665C834.499 181.665 831.345 178.489 831.345 174.489C831.345 170.488 834.499 167.273 838.473 167.273ZM838.473 178.462C840.656 178.462 842.442 176.664 842.442 174.485C842.442 172.306 840.656 170.469 838.473 170.469C836.289 170.469 834.523 172.286 834.523 174.485C834.523 176.683 836.308 178.462 838.473 178.462Z" fill="#231F20"/>
<path d="M848.021 167.85C848.021 167.65 848.181 167.469 848.4 167.469H853.184C855.625 167.469 857.629 169.468 857.629 171.886C857.629 174.304 855.625 176.381 853.204 176.381H851.117V181.076C851.117 181.277 850.938 181.457 850.739 181.457H848.396C848.177 181.457 848.018 181.277 848.018 181.076V167.846L848.021 167.85ZM853.005 173.468C853.859 173.468 854.572 172.789 854.572 171.89C854.572 171.05 853.859 170.41 853.005 170.41H851.117V173.468H853.005Z" fill="#231F20"/>
<path d="M859.656 167.85C859.656 167.65 859.816 167.469 860.034 167.469H868.254C868.472 167.469 868.632 167.65 868.632 167.85V170.029C868.632 170.229 868.472 170.41 868.254 170.41H862.756V172.887H867.283C867.482 172.887 867.661 173.068 867.661 173.268V175.447C867.661 175.667 867.482 175.828 867.283 175.828H862.756V178.525H868.254C868.472 178.525 868.632 178.705 868.632 178.905V181.084C868.632 181.285 868.472 181.465 868.254 181.465H860.034C859.816 181.465 859.656 181.285 859.656 181.084V167.854V167.85Z" fill="#231F20"/>
<path d="M871.292 167.85C871.292 167.65 871.471 167.469 871.67 167.469H874.053C874.252 167.469 874.431 167.65 874.431 167.85V181.08C874.431 181.281 874.252 181.461 874.053 181.461H871.67C871.471 181.461 871.292 181.281 871.292 181.08V167.85Z" fill="#231F20"/>
<path d="M877.644 167.85C877.644 167.65 877.823 167.469 878.022 167.469H880.463C880.681 167.469 880.841 167.65 880.841 167.85V175.945C880.841 177.343 881.874 178.462 883.282 178.462C884.69 178.462 885.762 177.343 885.762 175.945V167.85C885.762 167.65 885.922 167.469 886.14 167.469H888.581C888.78 167.469 888.959 167.65 888.959 167.85V176.102C888.959 179.141 886.417 181.658 883.282 181.658C880.147 181.658 877.644 179.141 877.644 176.102V167.85Z" fill="#231F20"/>
<path d="M897.596 172.086H895.689C895.49 172.086 895.334 171.905 895.334 171.705V170.445C895.334 170.367 895.392 170.206 895.451 170.147L898.348 167.87H900.173C900.372 167.87 900.532 168.05 900.532 168.25V181.08C900.532 181.281 900.372 181.461 900.173 181.461H897.97C897.752 181.461 897.592 181.281 897.592 181.08V172.086H897.596Z" fill="#231F20"/>
<path d="M903.255 179.322L904.506 178.081C904.627 177.959 904.822 177.92 904.982 178.022C904.982 178.022 906.39 178.98 907.345 178.98C908.417 178.98 909.232 178.179 909.232 177.08C909.232 175.981 908.48 175.14 907.189 175.14H904.132C903.734 175.14 903.516 174.76 903.516 174.442V168.247C903.516 168.046 903.676 167.866 903.894 167.866H910.285C910.503 167.866 910.663 168.046 910.663 168.247V170.005C910.663 170.206 910.503 170.386 910.285 170.386H906.195V172.526H907.602C910.344 172.526 912.129 174.465 912.129 177.084C912.129 179.702 910.004 181.661 907.228 181.661C905.165 181.661 903.793 180.601 903.298 180.001C903.04 179.702 903.021 179.561 903.259 179.322H903.255Z" fill="#231F20"/>
<path d="M913.342 179.384L914.594 178.124C914.734 177.983 914.933 177.963 915.089 178.085C915.089 178.085 916.321 179.004 917.272 179.004C918.126 179.004 919 178.285 919 177.406C919 176.526 918.107 175.788 916.637 175.788H915.525C915.327 175.788 915.147 175.608 915.147 175.407V173.747C915.147 173.527 915.327 173.366 915.525 173.366H916.637C918.025 173.366 918.762 172.687 918.762 171.827C918.762 170.967 918.029 170.327 917.175 170.327C916.321 170.327 915.744 170.787 915.447 171.128C915.307 171.289 915.069 171.289 914.913 171.148L913.701 169.95C913.541 169.809 913.56 169.57 913.701 169.432C913.701 169.432 915.327 167.673 917.491 167.673C919.795 167.673 921.78 169.091 921.78 171.332C921.78 172.871 920.63 174.01 919.737 174.43V174.489C920.669 174.889 922.139 176.126 922.139 177.845C922.139 180.024 920.251 181.661 917.514 181.661C915.015 181.661 913.743 180.421 913.326 179.883C913.205 179.742 913.229 179.522 913.346 179.384H913.342Z" fill="#231F20"/>
</svg>
