<?xml version="1.0" encoding="UTF-8" standalone="no"?>
<svg
   xmlns:dc="http://purl.org/dc/elements/1.1/"
   xmlns:cc="http://creativecommons.org/ns#"
   xmlns:rdf="http://www.w3.org/1999/02/22-rdf-syntax-ns#"
   xmlns:svg="http://www.w3.org/2000/svg"
   xmlns="http://www.w3.org/2000/svg"
   xmlns:sodipodi="http://sodipodi.sourceforge.net/DTD/sodipodi-0.dtd"
   xmlns:inkscape="http://www.inkscape.org/namespaces/inkscape"
   viewBox="0 0 682.16663 682.16797"
   height="682.16797"
   width="682.16663"
   xml:space="preserve"
   id="svg2"
   version="1.1"
   sodipodi:docname="logo.svg"
   inkscape:version="0.92.2 5c3e80d, 2017-08-06"><sodipodi:namedview
     pagecolor="#ffffff"
     bordercolor="#666666"
     borderopacity="1"
     objecttolerance="10"
     gridtolerance="10"
     guidetolerance="10"
     inkscape:pageopacity="0"
     inkscape:pageshadow="2"
     inkscape:window-width="1782"
     inkscape:window-height="1403"
     id="namedview3917"
     showgrid="false"
     inkscape:zoom="0.70269229"
     inkscape:cx="239.52097"
     inkscape:cy="310.77392"
     inkscape:window-x="0"
     inkscape:window-y="0"
     inkscape:window-maximized="0"
     inkscape:current-layer="g10" /><metadata
     id="metadata8"><rdf:RDF><cc:Work
         rdf:about=""><dc:format>image/svg+xml</dc:format><dc:type
           rdf:resource="http://purl.org/dc/dcmitype/StillImage" /></cc:Work></rdf:RDF></metadata><defs
     id="defs6"><inkscape:perspective
       sodipodi:type="inkscape:persp3d"
       inkscape:vp_x="0 : 433.33335 : 1"
       inkscape:vp_y="0 : 1000 : 0"
       inkscape:vp_z="866.66669 : 433.33335 : 1"
       inkscape:persp3d-origin="433.33335 : 288.8889 : 1"
       id="perspective3919" /><clipPath
       id="clipPath38"
       clipPathUnits="userSpaceOnUse"><path
         id="path36"
         d="M 0,650 H 650 V 0 H 0 Z"
         inkscape:connector-curvature="0" /></clipPath></defs><g
     transform="matrix(1.3333333,0,0,-1.3333333,-94.113731,774.41771)"
     id="g10"><g
       id="g4003"><g
         id="g14"
         transform="translate(443.3235,89.701)"><path
           d="M 0,0 -7.91,-9.26 V 0 Z"
           style="fill:#ffffff;fill-opacity:1;fill-rule:nonzero;stroke:none"
           id="path16"
           inkscape:connector-curvature="0" /></g><g
         id="g18"
         transform="translate(454.1834,100.8611)"><path
           d="m 0,0 9.41,-23.63 h -26.32 l 10.65,12.46 v 34.8 H 9.41 Z"
           style="fill:#ffffff;fill-opacity:1;fill-rule:nonzero;stroke:none"
           id="path20"
           inkscape:connector-curvature="0" /></g><g
         id="g22"
         transform="translate(217.3734,89.701)"><path
           d="M 0,0 V -9.26 L -7.91,0 Z"
           style="fill:#ffffff;fill-opacity:1;fill-rule:nonzero;stroke:none"
           id="path24"
           inkscape:connector-curvature="0" /></g><g
         id="g26"
         transform="translate(189.1937,77.2313)"><path
           d="M 0,0 9.4,23.63 0,47.26 H 15.67 V 12.47 h 0.04 L 15.68,12.439 26.32,0 Z"
           style="fill:#ffffff;fill-opacity:1;fill-rule:nonzero;stroke:none"
           id="path28"
           inkscape:connector-curvature="0" /></g><path
         d="m 444.924,92.701 h -237.06 v 50.15 h 237.06 z"
         style="fill:#ffffff;fill-opacity:1;fill-rule:nonzero;stroke:none"
         id="path30"
         inkscape:connector-curvature="0" /><g
         id="g32"><g
           id="g34"
           clip-path="url(#clipPath38)"><g
             id="g40"
             transform="translate(273.7625,530.66)"><path
               d="M 0,0 C 2.51,0.67 5.22,-0.83 5.92,-3.41 6.61,-5.99 5.09,-8.9 2.57,-9.58 l -9.07,-2.45 -2.6,9.57 z m -9.81,-38.08 c 0.15,-0.609 0.8,-1.03 1.48,-0.85 l 7.3,1.97 c 0.62,0.17 1.02,0.87 0.85,1.481 l -4.23,15.649 4.25,1.15 12.54,-14.07 c 0.19,-0.21 0.65,-0.42 1.13,-0.28 l 8.18,2.2 c 1.03,0.28 1.19,1.38 0.56,2.06 L 9.63,-15.45 c 4.75,3.59 7.27,9.14 5.75,14.79 C 13.42,6.65 5.79,10.98 -1.57,8.99 L -19.93,4.04 C -20.6,3.85 -20.95,3.17 -20.78,2.561 Z"
               style="fill:#000000;fill-opacity:1;fill-rule:nonzero;stroke:none"
               id="path42"
               inkscape:connector-curvature="0" /></g><g
             id="g44"
             transform="translate(297.9822,535.4705)"><path
               d="m 0,0 9.08,0.6 2.24,-33.871 c 0.03,-0.629 0.65,-1.169 1.28,-1.129 l 7.61,0.509 c 0.64,0.04 1.16,0.651 1.12,1.281 L 19.1,1.26 28.16,1.859 c 0.71,0.05 1.17,0.651 1.13,1.29 l -0.46,6.911 c -0.04,0.629 -0.58,1.169 -1.29,1.12 L -0.61,9.319 C -1.3,9.279 -1.78,8.67 -1.729,8.039 L -1.28,1.119 C -1.229,0.489 -0.689,-0.051 0,0"
               style="fill:#000000;fill-opacity:1;fill-rule:nonzero;stroke:none"
               id="path46"
               inkscape:connector-curvature="0" /></g><g
             id="g48"
             transform="translate(230.4227,503.6697)"><path
               d="m 0,0 9.18,-7.01 -8.54,-4.519 -0.69,11.5 z m -5.8,-32.21 6.17,3.271 c 1.13,0.599 1.39,1.599 1.31,2.419 l -0.37,5.56 15.29,8.101 4.37,-3.361 c 1.08,-0.8 1.69,-0.9 2.71,-0.37 l 6.23,3.311 c 0.85,0.439 0.92,1.409 0.19,1.96 L -7.51,17.17 c -0.35,0.25 -0.89,0.32 -1.29,0.11 l -0.56,-0.29 c -0.4,-0.21 -0.63,-0.7 -0.62,-1.13 l 2.45,-47.12 c 0.05,-0.91 0.88,-1.4 1.73,-0.95"
               style="fill:#000000;fill-opacity:1;fill-rule:nonzero;stroke:none"
               id="path50"
               inkscape:connector-curvature="0" /></g><g
             id="g52"
             transform="translate(180.3123,481.8699)"><path
               d="m 0,0 c 0.4,-0.5 1.15,-0.63 1.7,-0.189 l 7.11,5.649 21.11,-26.6 c 0.39,-0.5 1.21,-0.589 1.71,-0.2 l 5.97,4.75 c 0.5,0.39 0.59,1.2 0.19,1.691 L 16.7,11.7 l 7.11,5.651 c 0.56,0.439 0.6,1.199 0.19,1.699 l -4.29,5.43 c -0.4,0.5 -1.15,0.63 -1.71,0.19 L -4.11,7.13 C -4.65,6.69 -4.71,5.93 -4.3,5.43 Z"
               style="fill:#000000;fill-opacity:1;fill-rule:nonzero;stroke:none"
               id="path54"
               inkscape:connector-curvature="0" /></g><g
             id="g56"
             transform="translate(157.7723,451.5301)"><path
               d="m 0,0 c 5.71,-5.06 13.46,-2.73 18.7,-0.07 4.15,2.1 7.15,2.42 9.15,0.65 1.65,-1.48 1.63,-3.91 -0.06,-5.82 -2.79,-3.14 -8.33,-4.33 -8.6,-4.44 -0.53,-0.12 -1.419,-0.94 -1.15,-1.87 l 1.981,-5.74 c 0.329,-0.97 0.649,-0.99 1.539,-0.94 2.06,0.13 7.67,1.28 13.15,7.47 6.18,7 4.99,15.62 0.08,19.96 C 28.31,14.93 20.19,11.59 15.43,9.18 10.58,6.77 7.98,6.52 6.21,8.08 4.93,9.22 4.93,11.51 6.44,13.229 9,16.13 14.71,17.29 15.33,17.51 c 0.71,0.13 1.04,1.37 0.81,2.17 l -1.52,5.67 c -0.16,0.48 -0.94,1.34 -1.77,1.06 C 10.53,25.91 4.64,24.33 0.25,19.38 -6.229,12.05 -4.71,4.17 0,0"
               style="fill:#000000;fill-opacity:1;fill-rule:nonzero;stroke:none"
               id="path58"
               inkscape:connector-curvature="0" /></g><g
             id="g60"
             transform="translate(432.0526,466.5799)"><path
               d="m 0,0 c 8.09,-5.939 19.4,-4.29 25.11,3.5 l 15.53,21.18 c 0.37,0.51 0.25,1.31 -0.26,1.69 l -6.31,4.62 c -0.56,0.41 -1.31,0.25 -1.69,-0.26 L 17.16,9.97 C 14.53,6.38 9.71,5.5 6.01,8.21 2.37,10.87 1.8,15.7 4.43,19.29 l 15.24,20.76 c 0.38,0.511 0.3,1.28 -0.26,1.69 l -6.32,4.62 c -0.5,0.38 -1.31,0.26 -1.68,-0.259 L -4.11,24.93 C -9.82,17.141 -8.05,5.9 0,0"
               style="fill:#000000;fill-opacity:1;fill-rule:nonzero;stroke:none"
               id="path62"
               inkscape:connector-curvature="0" /></g><g
             id="g64"
             transform="translate(389.6624,527.7498)"><path
               d="m 0,0 8.92,-3.01 c 2.47,-0.83 3.89,-3.59 3.02,-6.12 -0.84,-2.53 -3.73,-4.11 -6.19,-3.28 l -8.93,3.011 z m -19.64,-30.75 7.17,-2.42 c 0.6,-0.2 1.33,0.16 1.53,0.76 l 5.19,15.36 4.15,-1.4 2.63,-18.67 c 0.04,-0.279 0.29,-0.71 0.78,-0.87 l 8.01,-2.699 c 1.03,-0.351 1.77,0.469 1.62,1.399 L 8.35,-21.2 c 5.95,0.33 11.13,3.551 13,9.091 C 23.77,-4.939 19.84,2.9 12.61,5.34 L -5.4,11.42 c -0.66,0.221 -1.33,-0.16 -1.53,-0.76 l -13.46,-39.88 c -0.21,-0.599 0.08,-1.3 0.75,-1.53"
               style="fill:#000000;fill-opacity:1;fill-rule:nonzero;stroke:none"
               id="path66"
               inkscape:connector-curvature="0" /></g><g
             id="g68"
             transform="translate(127.8324,362.5799)"><path
               d="m 0,0 c 12.17,-3.7 24.81,3.16 28.5,15.32 1.65,5.42 1.36,11.22 -1.39,16.58 -0.3,0.55 -1.07,0.85 -1.63,0.56 l -6.5,-3.21 c -0.54,-0.24 -0.77,-1.03 -0.54,-1.57 1.23,-2.76 1.31,-6.17 0.45,-9.03 C 16.79,11.771 9.65,8.36 2.9,10.42 c -6.81,2.07 -11,8.851 -8.9,15.721 0.9,2.989 2.9,5.63 5.59,7.269 0.56,0.3 0.76,0.97 0.45,1.52 l -3.48,6.25 c -0.33,0.631 -1.06,0.85 -1.71,0.45 -5.04,-2.989 -8.29,-6.92 -10.13,-13 C -18.98,16.47 -12.17,3.7 0,0"
               style="fill:#000000;fill-opacity:1;fill-rule:nonzero;stroke:none"
               id="path70"
               inkscape:connector-curvature="0" /></g><g
             id="g72"
             transform="translate(335.3524,501.9002)"><path
               d="m 0,0 26.13,-3.03 c 0.71,-0.08 1.28,0.429 1.35,1.07 l 0.79,6.88 c 0.08,0.63 -0.36,1.26 -1.06,1.34 l -17.5,2.02 1,8.52 14.4,-1.66 c 0.62,-0.07 1.25,0.37 1.33,1.06 l 0.79,6.88 c 0.08,0.64 -0.42,1.27 -1.06,1.34 l -14.4,1.67 0.92,7.83 17.48,-2.03 c 0.7,-0.08 1.27,0.43 1.35,1.07 l 0.79,6.88 c 0.07,0.63 -0.36,1.26 -1.06,1.34 L 5.11,44.2 C 4.41,44.28 3.84,43.77 3.77,43.14 L -1.06,1.33 C -1.13,0.7 -0.69,0.08 0,0"
               style="fill:#000000;fill-opacity:1;fill-rule:nonzero;stroke:none"
               id="path74"
               inkscape:connector-curvature="0" /></g><g
             id="g76"
             transform="translate(486.6424,442.6502)"><path
               d="m 0,0 2.69,35.1 -1.02,1.23 c -0.4,0.49 -1.17,0.6 -1.65,0.2 L -32.93,9.25 c -0.49,-0.4 -0.57,-1.21 -0.16,-1.7 l 4.8,-5.83 c 0.46,-0.54 1.21,-0.571 1.71,-0.17 l 18.29,15.099 0.04,-0.049 -3.48,-35.43 c -0.02,-0.18 0.15,-0.691 0.28,-0.84 l 0.64,-0.79 c 0.4,-0.49 1.17,-0.601 1.65,-0.2 l 33,27.23 c 0.49,0.4 0.57,1.21 0.16,1.7 l -4.85,5.879 c -0.46,0.54 -1.21,0.571 -1.71,0.171 L 0.05,-0.05 Z"
               style="fill:#000000;fill-opacity:1;fill-rule:nonzero;stroke:none"
               id="path78"
               inkscape:connector-curvature="0" /></g><g
             id="g80"
             transform="translate(104.7723,345.5701)"><path
               d="m 0,0 41.75,-5.311 c 0.62,-0.079 1.271,0.411 1.35,1.04 L 44.06,3.3 c 0.09,0.63 -0.41,1.27 -1.039,1.35 L 1.271,9.97 C 0.64,10.05 0,9.55 -0.08,8.92 L -1.04,1.35 C -1.13,0.72 -0.63,0.08 0,0"
               style="fill:#000000;fill-opacity:1;fill-rule:nonzero;stroke:none"
               id="path82"
               inkscape:connector-curvature="0" /></g><g
             id="g84"
             transform="translate(147.6024,300.6805)"><path
               d="M 0,0 -0.29,7.439 C -0.33,8.26 -1.05,8.93 -1.87,8.899 L -20.8,8.17 -1.42,23.619 c 0.17,0.131 0.4,0.71 0.4,1.16 l -0.35,8.761 c -0.04,1.21 -1.47,1.859 -2.4,1.119 L -24.23,17.64 -43.41,31.779 c -0.98,0.67 -2.36,-0.019 -2.32,-1.229 l 0.32,-8.01 c 0.01,-0.381 0.35,-0.94 0.68,-1.181 L -26.58,7.939 -43.29,7.29 c -0.83,-0.03 -1.5,-0.75 -1.46,-1.58 l 0.27,-7.431 c 0.04,-0.889 0.77,-1.5 1.6,-1.469 l 41.42,1.61 C -0.64,-1.551 0.04,-0.891 0,0"
               style="fill:#000000;fill-opacity:1;fill-rule:nonzero;stroke:none"
               id="path86"
               inkscape:connector-curvature="0" /></g><g
             id="g88"
             transform="translate(326.3924,125.1502)"><path
               d="m 0,0 c -91.88,0 -169.48,62.31 -192.77,146.89 h -3.11 C -172.5,60.64 -93.56,-3 0,-3 93.56,-3 172.5,60.64 195.88,146.89 h -3.11 C 169.48,62.31 91.88,0 0,0"
               style="fill:#000000;fill-opacity:1;fill-rule:nonzero;stroke:none"
               id="path90"
               inkscape:connector-curvature="0" /></g><g
             id="g92"
             transform="translate(125.4124,418.9998)"><path
               d="m 0,0 35.94,-20.63 c 0.73,-0.41 1.65,-0.21 2.09,0.57 l 3.7,6.451 c 0.42,0.71 0.16,1.67 -0.56,2.08 L 24.73,-2.1 49.36,0.7 c 0.23,0.021 0.74,0.39 0.96,0.771 l 4.35,7.609 c 0.62,1.05 -0.25,2.351 -1.44,2.22 L 26.86,7.74 18.11,29.92 c -0.47,1.08 -2,1.221 -2.6,0.181 L 11.52,23.15 c -0.2,-0.33 -0.2,-0.99 -0.06,-1.36 L 19.71,0.78 5.21,9.101 C 4.5,9.51 3.55,9.25 3.13,8.54 L -0.58,2.09 C -1.02,1.311 -0.72,0.41 0,0"
               style="fill:#000000;fill-opacity:1;fill-rule:nonzero;stroke:none"
               id="path94"
               inkscape:connector-curvature="0" /></g><g
             id="g96"
             transform="translate(172.4427,327.5604)"><path
               d="M 0,0 C 1.37,83.729 69.9,151.42 153.95,151.42 238.01,151.42 306.53,83.729 307.91,0 Z m 299.51,-52.82 -131.06,47.7 h 139.46 c -0.28,-16.67 -3.21,-32.71 -8.4,-47.7 M 273.48,-99.521 166.71,-9.92 297.75,-57.62 c -5.87,-15.28 -14.11,-29.401 -24.27,-41.901 m -40.35,-35.059 -69.71,120.74 106.78,-89.6 c -10.62,-12.22 -23.13,-22.75 -37.07,-31.14 m -49.92,-19.17 -24.22,137.35 69.71,-120.741 c -13.97,-7.799 -29.28,-13.479 -45.49,-16.609 m -29.26,-2.79 c -8.23,0 -16.32,0.649 -24.21,1.91 l 24.21,137.35 24.22,-137.35 c -7.89,-1.261 -15.98,-1.91 -24.22,-1.91 m -29.25,2.79 c -16.21,3.13 -31.52,8.81 -45.49,16.609 L 148.92,-16.4 Z m -49.92,19.17 c -13.94,8.39 -26.45,18.92 -37.07,31.14 l 106.78,89.6 z M 10.16,-57.62 141.2,-9.92 34.43,-99.521 C 24.27,-87.021 16.03,-72.9 10.16,-57.62 M 0,-5.12 H 139.45 L 8.4,-52.82 C 3.21,-37.83 0.28,-21.79 0,-5.12 M 153.95,156.54 C 67.08,156.54 -3.74,86.55 -5.11,0 v -5.12 c 0.27,-17.28 3.31,-33.91 8.7,-49.45 l 1.76,-4.8 c 6.08,-15.851 14.62,-30.481 25.16,-43.441 l 3.28,-3.919 c 11,-12.67 23.98,-23.59 38.43,-32.281 l 4.43,-2.559 c 14.48,-8.09 30.36,-13.98 47.16,-17.21 l 5.04,-0.89 c 8.18,-1.301 16.56,-1.99 25.1,-1.99 8.55,0 16.93,0.689 25.11,1.99 l 5.04,0.89 c 16.8,3.23 32.67,9.12 47.16,17.21 l 4.43,2.559 c 14.45,8.691 27.42,19.611 38.43,32.281 l 3.28,3.919 c 10.54,12.96 19.08,27.59 25.16,43.441 l 1.75,4.8 c 5.39,15.54 8.44,32.17 8.71,49.45 V 0 c -1.37,86.55 -72.19,156.54 -159.07,156.54"
               style="fill:#000000;fill-opacity:1;fill-rule:nonzero;stroke:none"
               id="path98"
               inkscape:connector-curvature="0" /></g><g
             id="g100"
             transform="translate(314.6424,353.9901)"><path
               d="m 0,0 -4.64,-6.66 c -0.82,-1.17 -2.31,-1.61 -3.63,-1.06 -0.85,0.35 -1.49,1.06 -1.75,1.94 -0.19,0.65 -0.16,1.32 0.08,1.94 l 5.21,7.57 c 0.47,0.54 1.11,0.9 1.84,1 0.14,0.02 0.28,0.03 0.42,0.03 0.67,0 1.32,-0.22 1.85,-0.64 C -0.6,4.1 -0.58,4.08 -0.56,4.07 0.65,3.07 0.9,1.29 0,0 m -14.81,0.42 c -0.16,-0.23 -0.25,-0.48 -0.39,-0.72 l -1.41,-2.06 c -1.15,-1.66 -3.36,-2.2 -5.15,-1.24 -1,0.54 -1.7,1.45 -1.97,2.56 -0.2,0.82 -0.13,1.66 0.18,2.42 l 10.08,14.77 c 0.63,0.83 1.53,1.37 2.56,1.52 0.2,0.03 0.39,0.04 0.58,0.04 0.9,0 1.77,-0.3 2.48,-0.88 1.6,-1.29 1.94,-3.63 0.77,-5.32 L -9.95,7.34 C -10.01,7.25 -10.1,7.18 -10.16,7.09 Z m -13.55,5.31 c -0.17,-0.25 -0.28,-0.52 -0.43,-0.78 l -0.89,-1.3 c -0.6,-0.88 -1.51,-1.47 -2.56,-1.66 -1.05,-0.19 -2.11,0.04 -2.99,0.66 -1.76,1.24 -2.21,3.69 -1,5.47 l 1.3,1.9 c 0.09,0.12 0.19,0.21 0.27,0.33 1.88,2.73 4.09,5.99 5.97,8.76 0.05,0.07 0.07,0.15 0.12,0.22 l 5.07,7.43 c 0.76,1.11 2.02,1.72 3.29,1.72 0.74,0 1.48,-0.21 2.14,-0.63 0.9,-0.59 1.51,-1.49 1.72,-2.55 0.21,-1.05 0,-2.12 -0.61,-3 l -1.73,-2.55 c -0.04,-0.06 -0.1,-0.1 -0.14,-0.15 z m -11.79,7.89 c -0.57,-0.68 -1.35,-1.14 -2.23,-1.3 -1.02,-0.18 -2.06,0.05 -2.9,0.65 l -0.18,0.12 c -1.71,1.22 -2.13,3.62 -0.92,5.34 l 6.04,8.63 c 0.73,1.06 1.91,1.63 3.13,1.63 0.71,0 1.44,-0.19 2.11,-0.6 0.9,-0.56 1.51,-1.44 1.74,-2.47 0.2,-0.95 0.03,-1.9 -0.46,-2.73 z M 108.5,53.79 c -0.45,1.7 -2.2,2.7 -3.88,2.25 L 80.58,49.65 C 80,49.5 79.48,49.18 79.07,48.74 L 64.84,33.41 c -0.26,0.2 -0.48,0.43 -0.76,0.6 L 14.17,66.35 c -2.6,1.7 -5.94,1.86 -8.71,0.41 L -17.73,54.64 c -0.79,-0.42 -1.77,-0.33 -2.47,0.2 -0.5,0.38 -0.82,0.92 -0.9,1.54 -0.08,0.61 0.08,1.23 0.46,1.72 l 10.92,14.2 c 1.85,2.41 4.52,4.04 7.51,4.6 l 12.8,2.38 c 7.07,1.31 14.22,1.23 21.25,-0.25 l 13.62,-2.86 c 1.69,-0.35 3.42,-0.2 5.02,0.44 0.23,0.1 0.46,0.23 0.68,0.38 l 27.07,19.59 c 1.4,1.02 1.73,3.01 0.69,4.43 -1.01,1.42 -3,1.74 -4.42,0.71 L 47.82,82.4 c -0.34,-0.09 -0.7,-0.09 -1.05,-0.02 L 33.15,85.24 C 25.3,86.89 17.32,86.98 9.42,85.51 L -3.37,83.13 c -3.51,-0.65 -6.72,-2.29 -9.29,-4.69 l -11.93,1.9 c -0.16,0.02 -0.32,0.06 -0.47,0.12 l -26.06,21.15 c -1.36,1.1 -3.36,0.9 -4.46,-0.47 -1.11,-1.35 -0.9,-3.35 0.46,-4.46 l 26.37,-21.39 c 0.17,-0.13 0.34,-0.25 0.54,-0.35 0.83,-0.43 1.71,-0.72 2.63,-0.87 l 8.21,-1.3 -8.3,-10.81 c -1.41,-1.84 -2.02,-4.12 -1.71,-6.43 0.3,-2.3 1.5,-4.34 3.34,-5.75 2.67,-2 6.29,-2.31 9.25,-0.76 L 8.4,61.14 c 0.73,0.39 1.62,0.34 2.33,-0.11 l 49.9,-32.34 c 1.1,-0.72 1.87,-1.82 2.12,-3.11 0.29,-1.29 0.03,-2.6 -0.69,-3.7 -1.45,-2.19 -4.35,-2.85 -6.6,-1.5 l -27,16.15 c -1.5,0.9 -3.44,0.41 -4.34,-1.1 -0.91,-1.5 -0.41,-3.44 1.09,-4.35 L 46.8,18.17 v -0.01 l 2.6,-1.55 c 0.73,-0.44 1.25,-1.14 1.44,-1.98 0.18,-0.83 0.03,-1.68 -0.44,-2.4 -1.63,-2.47 -4.94,-3.3 -7.54,-1.88 l -21.11,11.5 c -1.52,0.83 -3.45,0.27 -4.29,-1.27 -0.84,-1.54 -0.29,-3.47 1.25,-4.3 L 33.96,7.97 37.71,5.68 C 38.41,5.25 38.88,4.57 39.04,3.76 39.19,2.95 39,2.14 38.52,1.48 38.48,1.41 38.42,1.35 38.38,1.29 36.94,-0.97 34.06,-1.75 31.67,-0.54 L 15.34,7.75 C 13.78,8.54 11.86,7.92 11.07,6.36 10.28,4.8 10.9,2.89 12.46,2.1 L 26.05,-4.8 C 23.28,-6.53 19.96,-7.26 16.61,-6.75 L 4.33,-4.87 5.21,-3.62 C 7.96,0.32 7.23,5.79 3.57,8.89 3.54,8.92 3.5,8.94 3.46,8.97 2.31,9.92 0.94,10.53 -0.5,10.85 c 1.13,3.89 -0.08,8.25 -3.37,10.91 -1.73,1.41 -3.9,2.18 -6.11,2.26 0.05,0.84 0.02,1.68 -0.15,2.53 -0.55,2.74 -2.14,5.09 -4.49,6.61 -4.61,3.01 -10.88,1.78 -14.04,-2.73 -0.8,1.22 -1.86,2.28 -3.18,3.1 -4.03,2.49 -9.16,1.83 -12.45,-1.36 l -11.56,15.26 c -0.4,0.52 -0.94,0.9 -1.57,1.1 L -80.98,56 c -1.66,0.54 -3.44,-0.4 -3.97,-2.06 -0.53,-1.67 0.39,-3.45 2.07,-3.98 l 22.59,-7.17 12.07,-15.92 -3.36,-4.81 c -3.19,-4.56 -2.09,-10.9 2.44,-14.13 l 0.18,-0.13 c 1.69,-1.21 3.67,-1.85 5.73,-1.88 -0.02,-3.25 1.51,-6.46 4.36,-8.46 1.75,-1.24 3.79,-1.88 5.89,-1.88 0.63,0 1.25,0.05 1.88,0.17 0.56,0.1 1.12,0.28 1.66,0.47 0.86,-2.29 2.5,-4.23 4.67,-5.4 1.56,-0.84 3.23,-1.24 4.9,-1.24 1.56,0 3.1,0.37 4.52,1.06 1.01,-1.89 2.63,-3.39 4.66,-4.23 1.17,-0.48 2.4,-0.72 3.6,-0.72 2.82,0 5.53,1.31 7.34,3.65 l 15.4,-2.36 c 1.04,-0.16 2.08,-0.24 3.12,-0.24 5.31,0 10.36,2.1 14.17,5.87 0.37,-0.04 0.73,-0.07 1.1,-0.07 3.78,0 7.44,1.87 9.63,5.25 1.17,1.61 1.77,3.57 1.74,5.54 0.05,0 0.09,-0.01 0.15,-0.01 3.96,0 7.85,1.94 10.13,5.43 0.94,1.41 1.42,3 1.5,4.63 0.27,-0.02 0.52,-0.05 0.79,-0.05 3.65,0 7.21,1.79 9.36,5.06 1.68,2.52 2.25,5.53 1.62,8.49 -0.08,0.43 -0.25,0.83 -0.38,1.25 l 14.51,15.63 23.16,6.15 c 1.69,0.45 2.69,2.19 2.25,3.88"
               style="fill:#000000;fill-opacity:1;fill-rule:nonzero;stroke:none"
               id="path102"
               inkscape:connector-curvature="0" /></g><g
             id="g104"
             transform="translate(481.6927,412.4305)"><path
               d="M 0,0 3.7,-6.671 C 4.01,-7.23 4.78,-7.45 5.33,-7.141 L 42.14,13.26 c 0.56,0.3 0.79,1.08 0.48,1.639 l -3.71,6.67 C 38.62,22.13 37.83,22.35 37.28,22.04 L 0.47,1.649 C -0.09,1.34 -0.32,0.56 0,0"
               style="fill:#000000;fill-opacity:1;fill-rule:nonzero;stroke:none"
               id="path106"
               inkscape:connector-curvature="0" /></g><g
             id="g108"
             transform="translate(521.9627,412.0203)"><path
               d="m 0,0 3.24,-8.49 -31.7,-12.13 c -0.61,-0.22 -0.94,-0.96 -0.7,-1.561 l 2.72,-7.119 c 0.23,-0.6 0.96,-0.93 1.56,-0.7 l 31.71,12.13 3.25,-8.5 c 0.25,-0.651 0.97,-0.92 1.56,-0.691 l 6.46,2.471 c 0.6,0.23 0.96,0.909 0.71,1.56 L 8.73,3.34 C 8.48,3.989 7.76,4.26 7.16,4.04 L 0.7,1.56 C 0.1,1.33 -0.25,0.649 0,0"
               style="fill:#000000;fill-opacity:1;fill-rule:nonzero;stroke:none"
               id="path110"
               inkscape:connector-curvature="0" /></g><g
             id="g112"
             transform="translate(500.8524,366.45)"><path
               d="m 0,0 4.73,-25.89 c 0.13,-0.69 0.79,-1.08 1.4,-0.97 l 6.83,1.25 c 0.63,0.11 1.1,0.72 0.96,1.4 l -3.15,17.33 8.44,1.54 2.6,-14.26 c 0.11,-0.62 0.71,-1.1 1.4,-0.97 l 6.83,1.25 c 0.62,0.11 1.08,0.78 0.96,1.4 l -2.6,14.26 7.76,1.42 3.15,-17.32 c 0.14,-0.69 0.79,-1.09 1.42,-0.97 l 6.81,1.24 c 0.63,0.12 1.09,0.72 0.98,1.41 L 43.77,8.01 C 43.66,8.7 43,9.09 42.38,8.98 L 0.98,1.41 C 0.35,1.29 -0.12,0.69 0,0"
               style="fill:#000000;fill-opacity:1;fill-rule:nonzero;stroke:none"
               id="path114"
               inkscape:connector-curvature="0" /></g><g
             id="g116"
             transform="translate(495.7225,155.6697)"><path
               d="m 0,0 c -45.24,-45.229 -105.37,-70.14 -169.33,-70.14 -63.96,0 -124.09,24.911 -169.33,70.14 -45.23,45.23 -70.13,105.37 -70.13,169.33 0,63.96 24.9,124.101 70.13,169.33 45.24,45.231 105.37,70.141 169.33,70.141 63.96,0 124.09,-24.91 169.33,-70.141 C 45.23,293.431 70.13,233.29 70.13,169.33 70.13,105.37 45.23,45.23 0,0 m 4.25,342.9 c -46.37,46.361 -108.01,71.901 -173.58,71.901 -65.56,0 -127.2,-25.54 -173.57,-71.901 -46.36,-46.36 -71.89,-108 -71.89,-173.57 0,-65.569 25.53,-127.21 71.89,-173.569 46.37,-46.361 108.01,-71.901 173.57,-71.901 65.57,0 127.21,25.54 173.58,71.901 46.36,46.359 71.89,108 71.89,173.569 0,65.57 -25.53,127.21 -71.89,173.57"
               style="fill:#000000;fill-opacity:1;fill-rule:nonzero;stroke:none"
               id="path118"
               inkscape:connector-curvature="0" /></g><g
             id="g120"
             transform="translate(541.0125,315.8201)"><path
               d="M 0,0 C -0.28,-7.18 -6.14,-12.17 -13.31,-11.9 -20.55,-11.62 -26,-6.2 -25.74,0.979 L -25.5,7.08 0.22,6.1 Z m 8.74,15.7 -42.06,1.6 c -0.63,0.02 -1.23,-0.46 -1.25,-1.1 L -35.16,0.7 c -0.48,-12.26 9.13,-22.68 21.45,-23.14 12.2,-0.47 22.55,9.19 23.01,21.45 l 0.6,15.5 c 0.03,0.64 -0.54,1.17 -1.16,1.19"
               style="fill:#000000;fill-opacity:1;fill-rule:nonzero;stroke:none"
               id="path122"
               inkscape:connector-curvature="0" /></g><g
             id="g124"
             transform="translate(326.3973,574.8133)"><path
               d="m 0,0 c -66.728,0 -129.461,-25.985 -176.644,-73.169 -47.183,-47.184 -73.168,-109.917 -73.168,-176.644 0,-66.728 25.985,-129.461 73.168,-176.645 47.183,-47.183 109.916,-73.168 176.644,-73.168 66.728,0 129.461,25.985 176.645,73.168 47.183,47.184 73.168,109.917 73.168,176.645 0,66.727 -25.985,129.46 -73.168,176.644 C 129.461,-25.985 66.728,0 0,0 m 0,-505.626 c -68.33,0 -132.57,26.609 -180.887,74.926 -48.316,48.316 -74.925,112.556 -74.925,180.887 0,68.33 26.609,132.57 74.925,180.887 C -132.57,-20.609 -68.33,6 0,6 c 68.33,0 132.57,-26.609 180.888,-74.926 48.316,-48.317 74.925,-112.557 74.925,-180.887 0,-68.331 -26.609,-132.571 -74.925,-180.887 C 132.57,-479.017 68.33,-505.626 0,-505.626"
               style="fill:#000000;fill-opacity:1;fill-rule:nonzero;stroke:none"
               id="path126"
               inkscape:connector-curvature="0" /></g><g
             id="g128"
             transform="translate(443.3275,97.701)"><path
               d="M 0,0 -7.91,-9.26 V 0 Z"
               style="fill:#ffffff;fill-opacity:1;fill-rule:nonzero;stroke:none"
               id="path130"
               inkscape:connector-curvature="0" /></g><g
             id="g132"
             transform="translate(454.1873,108.8611)"><path
               d="m 0,0 9.41,-23.63 h -26.32 l 10.65,12.46 v 34.8 H 9.41 Z"
               style="fill:#ffffff;fill-opacity:1;fill-rule:nonzero;stroke:none"
               id="path134"
               inkscape:connector-curvature="0" /></g><g
             id="g136"
             transform="translate(217.3773,97.701)"><path
               d="M 0,0 V -9.26 L -7.91,0 Z"
               style="fill:#ffffff;fill-opacity:1;fill-rule:nonzero;stroke:none"
               id="path138"
               inkscape:connector-curvature="0" /></g><g
             id="g140"
             transform="translate(189.1976,85.2313)"><path
               d="M 0,0 9.4,23.63 0,47.26 H 15.67 V 12.47 h 0.04 L 15.68,12.439 26.32,0 Z"
               style="fill:#ffffff;fill-opacity:1;fill-rule:nonzero;stroke:none"
               id="path142"
               inkscape:connector-curvature="0" /></g><path
             d="m 444.928,100.701 h -237.06 v 50.15 h 237.06 z"
             style="fill:#ffffff;fill-opacity:1;fill-rule:nonzero;stroke:none"
             id="path144"
             inkscape:connector-curvature="0" /><g
             id="g146"
             transform="translate(463.5936,85.2313)"><path
               d="m 0,0 h -26.32 l 10.65,12.46 v 34.8 H 0 L -9.41,23.63 Z m -28.18,12.47 h 7.91 L -28.18,3.21 Z M -255.73,65.62 H -18.67 V 15.47 h -237.06 z m 9.51,-62.41 -7.91,9.26 h 7.91 z M -274.4,0 l 9.4,23.63 -9.4,23.63 h 15.67 V 12.47 h 0.04 L -258.72,12.439 -248.08,0 Z M 4.42,50.26 H -15.67 V 68.62 H -258.73 V 50.26 h -20.09 l 10.6,-26.63 -10.6,-26.63 h 35.6 V 12.47 H -31.18 V -3 h 35.6 l -10.6,26.63 z"
               style="fill:#000000;fill-opacity:1;fill-rule:nonzero;stroke:none"
               id="path148"
               inkscape:connector-curvature="0" /></g><g
             id="g150"
             transform="translate(249.1322,117.5652)"><path
               d="m 0,0 c 4.399,0 7.999,3.6 7.999,7.959 0,4.399 -3.6,8.038 -7.999,8.038 -4.359,0 -7.958,-3.639 -7.958,-8.038 C -7.958,3.6 -4.359,0 0,0 m 0,22.396 c 7.999,0 14.397,-6.438 14.397,-14.437 C 14.397,-0.04 7.999,-6.398 0,-6.398 c -7.999,0 -14.357,6.358 -14.357,14.357 0,7.999 6.358,14.437 14.357,14.437"
               style="fill:#000000;fill-opacity:1;fill-rule:nonzero;stroke:none"
               id="path152"
               inkscape:connector-curvature="0" /></g><g
             id="g154"
             transform="translate(278.4124,127.5643)"><path
               d="M 0,0 C 1.719,0 3.159,1.359 3.159,3.159 3.159,4.839 1.719,6.118 0,6.118 H -3.8 V 0 Z m -10.039,11.237 c 0,0.401 0.32,0.76 0.76,0.76 h 9.638 c 4.92,0 8.959,-3.999 8.959,-8.838 C 9.318,-1.8 5.279,-5.84 0.399,-5.84 H -3.8 v -9.398 c 0,-0.4 -0.36,-0.76 -0.76,-0.76 h -4.719 c -0.44,0 -0.76,0.36 -0.76,0.76 z"
               style="fill:#000000;fill-opacity:1;fill-rule:nonzero;stroke:none"
               id="path156"
               inkscape:connector-curvature="0" /></g><g
             id="g158"
             transform="translate(291.8138,138.8016)"><path
               d="m 0,0 c 0,0.4 0.319,0.76 0.76,0.76 h 16.557 c 0.44,0 0.76,-0.36 0.76,-0.76 v -4.359 c 0,-0.4 -0.32,-0.76 -0.76,-0.76 H 6.239 v -4.959 h 9.118 c 0.4,0 0.76,-0.36 0.76,-0.76 v -4.359 c 0,-0.44 -0.36,-0.76 -0.76,-0.76 H 6.239 v -5.399 h 11.078 c 0.44,0 0.76,-0.36 0.76,-0.76 v -4.36 c 0,-0.399 -0.32,-0.759 -0.76,-0.759 H 0.76 c -0.441,0 -0.76,0.36 -0.76,0.759 z"
               style="fill:#000000;fill-opacity:1;fill-rule:nonzero;stroke:none"
               id="path160"
               inkscape:connector-curvature="0" /></g><g
             id="g162"
             transform="translate(315.2542,138.8016)"><path
               d="M 0,0 C 0,0.4 0.359,0.76 0.76,0.76 H 5.559 C 5.959,0.76 6.318,0.4 6.318,0 v -26.476 c 0,-0.399 -0.359,-0.759 -0.759,-0.759 H 0.76 c -0.401,0 -0.76,0.36 -0.76,0.759 z"
               style="fill:#000000;fill-opacity:1;fill-rule:nonzero;stroke:none"
               id="path164"
               inkscape:connector-curvature="0" /></g><g
             id="g166"
             transform="translate(328.053,138.8016)"><path
               d="M 0,0 C 0,0.4 0.359,0.76 0.76,0.76 H 5.68 C 6.119,0.76 6.439,0.4 6.439,0 v -16.197 c 0,-2.799 2.08,-5.039 4.918,-5.039 2.881,0 5,2.24 5,5.039 V 0 c 0,0.4 0.321,0.76 0.76,0.76 h 4.919 c 0.4,0 0.76,-0.36 0.76,-0.76 v -16.517 c 0,-6.079 -5.119,-11.118 -11.439,-11.118 C 5.079,-27.635 0,-22.596 0,-16.517 Z"
               style="fill:#000000;fill-opacity:1;fill-rule:nonzero;stroke:none"
               id="path168"
               inkscape:connector-curvature="0" /></g><g
             id="g170"
             transform="translate(368.2523,130.3231)"><path
               d="m 0,0 h -3.84 c -0.399,0 -0.719,0.36 -0.719,0.76 v 2.519 c 0,0.16 0.12,0.481 0.24,0.601 L 1.52,8.438 h 3.679 c 0.401,0 0.72,-0.359 0.72,-0.759 v -25.676 c 0,-0.399 -0.319,-0.76 -0.72,-0.76 H 0.76 c -0.44,0 -0.76,0.361 -0.76,0.76 z"
               style="fill:#000000;fill-opacity:1;fill-rule:nonzero;stroke:none"
               id="path172"
               inkscape:connector-curvature="0" /></g><g
             id="g174"
             transform="translate(379.6526,115.8455)"><path
               d="M 0,0 2.52,2.479 C 2.76,2.72 3.159,2.8 3.479,2.6 c 0,0 2.839,-1.92 4.759,-1.92 2.16,0 3.799,1.6 3.799,3.799 0,2.16 -1.519,3.879 -4.119,3.879 H 1.76 c -0.801,0 -1.24,0.761 -1.24,1.401 v 12.397 c 0,0.401 0.32,0.76 0.759,0.76 h 12.878 c 0.441,0 0.76,-0.359 0.76,-0.76 v -3.519 c 0,-0.4 -0.319,-0.76 -0.76,-0.76 H 5.918 v -4.279 h 2.84 c 5.519,0 9.119,-3.879 9.119,-9.119 0,-4.999 -4.279,-9.158 -9.879,-9.158 -4.159,0 -6.918,2.119 -7.918,3.32 C -0.44,-0.76 -0.48,-0.479 0,0"
               style="fill:#000000;fill-opacity:1;fill-rule:nonzero;stroke:none"
               id="path176"
               inkscape:connector-curvature="0" /></g><g
             id="g178"
             transform="translate(399.972,115.7254)"><path
               d="m 0,0 2.52,2.52 c 0.28,0.28 0.68,0.32 1,0.08 0,0 2.479,-1.84 4.399,-1.84 1.719,0 3.478,1.44 3.478,3.2 0,1.76 -1.798,3.239 -4.757,3.239 H 4.399 c -0.4,0 -0.759,0.361 -0.759,0.76 v 3.319 c 0,0.441 0.359,0.76 0.759,0.76 H 6.64 c 2.798,0 4.279,1.36 4.279,3.08 0,1.72 -1.481,2.999 -3.2,2.999 -1.76,0 -2.88,-0.92 -3.48,-1.599 -0.279,-0.321 -0.76,-0.321 -1.08,-0.04 L 0.72,18.877 c -0.321,0.28 -0.28,0.76 0,1.04 0,0 3.279,3.52 7.638,3.52 4.64,0 8.639,-2.84 8.639,-7.32 0,-3.079 -2.319,-5.358 -4.119,-6.198 v -0.12 c 1.879,-0.8 4.84,-3.279 4.84,-6.719 0,-4.359 -3.801,-7.639 -9.32,-7.639 -5.039,0 -7.598,2.48 -8.438,3.56 C -0.28,-0.72 -0.239,-0.279 0,0"
               style="fill:#000000;fill-opacity:1;fill-rule:nonzero;stroke:none"
               id="path180"
               inkscape:connector-curvature="0" /></g></g></g></g></g></svg>