<svg width="593" height="593" viewBox="0 0 593 593" fill="none" xmlns="http://www.w3.org/2000/svg">
<path fill-rule="evenodd" clip-rule="evenodd" d="M297.639 39C439.013 39 553.619 153.607 553.619 294.98V297.54C553.619 374.088 520.018 442.787 466.763 489.696L479.129 520.771C460.324 520.865 441.519 520.944 422.715 520.944C385.737 541.684 343.052 553.521 297.639 553.521H295.079C249.527 553.521 206.755 541.621 169.7 520.763C152.66 520.763 135.619 520.771 118.579 520.771L129.667 492.904C74.2653 445.949 39.0986 375.851 39.0986 297.54V294.98C39.0986 153.607 153.705 39 295.079 39H297.639Z" fill="#231F20"/>
<path d="M297.639 0C460.552 0 592.619 132.068 592.619 294.98V297.54C592.619 375.681 562.194 446.753 512.638 499.497L515.365 506.351C520.133 518.331 518.671 531.894 511.459 542.583C504.247 553.272 492.218 559.706 479.324 559.771C463.766 559.848 448.16 559.912 432.534 559.934C392.076 580.762 346.164 592.521 297.639 592.521H295.079C246.414 592.521 200.409 580.704 159.87 559.765C154.63 559.765 149.39 559.766 144.147 559.767C135.628 559.768 127.104 559.771 118.579 559.771C105.65 559.771 93.5625 553.363 86.3047 542.664C79.0468 531.965 77.563 518.364 82.3428 506.352L83.6025 503.184C31.9685 450.087 0.0986328 377.52 0.0986328 297.54V294.98C0.0986328 132.068 132.166 1.90109e-05 295.079 0H297.639ZM295.079 39C153.705 39 39.0986 153.607 39.0986 294.98V297.54C39.0986 375.851 74.2653 445.949 129.667 492.904L118.579 520.771C135.619 520.771 152.66 520.763 169.7 520.763C206.755 541.621 249.527 553.521 295.079 553.521H297.639C343.052 553.521 385.737 541.684 422.715 520.944C441.519 520.944 460.324 520.865 479.129 520.771L466.763 489.696C520.018 442.787 553.619 374.088 553.619 297.54V294.98C553.619 153.607 439.013 39 297.639 39H295.079Z" fill="#231F20"/>
<path d="M297.64 37.364H295.08C153.706 37.364 39.0996 151.97 39.0996 293.344V295.904C39.0996 437.278 153.706 551.884 295.08 551.884H297.64C439.013 551.884 553.62 437.278 553.62 295.904V293.344C553.62 151.97 439.013 37.364 297.64 37.364Z" fill="white"/>
<path d="M296.359 42.2336C156.969 42.2336 43.9785 155.234 43.9785 294.624C43.9785 434.014 156.969 547.014 296.359 547.014C435.749 547.014 548.749 434.014 548.749 294.624C548.749 155.234 435.749 42.2336 296.359 42.2336ZM469.939 468.194C423.569 514.554 361.929 540.094 296.359 540.094C230.789 540.094 169.159 514.554 122.789 468.194C76.4285 421.834 50.8985 360.194 50.8985 294.624C50.8985 229.054 76.4285 167.414 122.789 121.054C169.159 74.6936 230.799 49.1536 296.359 49.1536C361.919 49.1536 423.569 74.6936 469.939 121.054C516.299 167.414 541.828 229.054 541.828 294.624C541.828 360.194 516.299 421.834 469.939 468.194Z" fill="#231F20"/>
<path d="M250.78 242.744L244.449 252.014C243.879 252.694 243.099 253.154 242.219 253.314C241.199 253.494 240.159 253.264 239.319 252.664L239.139 252.544C237.429 251.324 237.009 248.924 238.219 247.204L244.259 238.574C244.989 237.514 246.169 236.944 247.389 236.944C248.099 236.944 248.83 237.134 249.5 237.544C250.4 238.104 251.01 238.984 251.24 240.014C251.44 240.964 251.27 241.914 250.78 242.744Z" fill="#231F20"/>
<path d="M265.769 246.034L256.239 259.904C256.069 260.154 255.959 260.424 255.809 260.684L254.919 261.984C254.319 262.864 253.409 263.454 252.359 263.644C251.309 263.834 250.249 263.604 249.369 262.984C247.609 261.744 247.159 259.294 248.369 257.514L249.669 255.614C249.759 255.494 249.859 255.404 249.939 255.284C251.819 252.554 254.029 249.294 255.909 246.524C255.959 246.454 255.979 246.374 256.029 246.304L261.099 238.874C261.859 237.764 263.119 237.154 264.389 237.154C265.129 237.154 265.869 237.364 266.529 237.784C267.429 238.374 268.039 239.274 268.249 240.334C268.459 241.384 268.249 242.454 267.639 243.334L265.909 245.884C265.869 245.944 265.809 245.984 265.769 246.034Z" fill="#231F20"/>
<path d="M274.649 258.294C274.589 258.384 274.499 258.454 274.439 258.544L269.789 265.214C269.629 265.444 269.539 265.694 269.399 265.934L267.989 267.994C266.839 269.654 264.629 270.194 262.839 269.234C261.839 268.694 261.139 267.784 260.869 266.674C260.669 265.854 260.739 265.014 261.049 264.254L271.129 249.484C271.759 248.654 272.659 248.114 273.689 247.964C273.889 247.934 274.079 247.924 274.269 247.924C275.169 247.924 276.039 248.224 276.749 248.804C278.349 250.094 278.689 252.434 277.519 254.124L274.649 258.294Z" fill="#231F20"/>
<path d="M284.039 261.564C285.249 262.564 285.499 264.344 284.599 265.634L279.959 272.294C279.139 273.464 277.649 273.904 276.329 273.354C275.479 273.004 274.839 272.294 274.579 271.414C274.389 270.764 274.419 270.094 274.659 269.474L279.869 261.904C280.339 261.364 280.979 261.004 281.709 260.904C281.849 260.884 281.989 260.874 282.129 260.874C282.799 260.874 283.449 261.094 283.979 261.514C283.999 261.534 284.019 261.554 284.039 261.564Z" fill="#231F20"/>
<path d="M200.379 115.954L200.329 115.984L201.019 127.484L209.559 122.964L200.379 115.954ZM200.379 115.954L200.329 115.984L201.019 127.484L209.559 122.964L200.379 115.954ZM200.379 115.954L200.329 115.984L201.019 127.484L209.559 122.964L200.379 115.954ZM249.649 92.3736C248.949 89.7936 246.239 88.2936 243.729 88.9636L234.629 91.4236L237.229 100.994L246.299 98.5436C248.819 97.8636 250.339 94.9536 249.649 92.3736ZM200.379 115.954L200.329 115.984L201.019 127.484L209.559 122.964L200.379 115.954ZM249.649 92.3736C248.949 89.7936 246.239 88.2936 243.729 88.9636L234.629 91.4236L237.229 100.994L246.299 98.5436C248.819 97.8636 250.339 94.9536 249.649 92.3736ZM200.379 115.954L200.329 115.984L201.019 127.484L209.559 122.964L200.379 115.954ZM249.649 92.3736C248.949 89.7936 246.239 88.2936 243.729 88.9636L234.629 91.4236L237.229 100.994L246.299 98.5436C248.819 97.8636 250.339 94.9536 249.649 92.3736ZM368.549 94.8836L359.629 91.8736L356.449 101.274L365.379 104.284C367.839 105.114 370.729 103.534 371.569 101.004C372.439 98.4736 371.019 95.7136 368.549 94.8836ZM200.379 115.954L200.329 115.984L201.019 127.484L209.559 122.964L200.379 115.954ZM249.649 92.3736C248.949 89.7936 246.239 88.2936 243.729 88.9636L234.629 91.4236L237.229 100.994L246.299 98.5436C248.819 97.8636 250.339 94.9536 249.649 92.3736ZM368.549 94.8836L359.629 91.8736L356.449 101.274L365.379 104.284C367.839 105.114 370.729 103.534 371.569 101.004C372.439 98.4736 371.019 95.7136 368.549 94.8836ZM200.379 115.954L200.329 115.984L201.019 127.484L209.559 122.964L200.379 115.954ZM249.649 92.3736C248.949 89.7936 246.239 88.2936 243.729 88.9636L234.629 91.4236L237.229 100.994L246.299 98.5436C248.819 97.8636 250.339 94.9536 249.649 92.3736ZM368.549 94.8836L359.629 91.8736L356.449 101.274L365.379 104.284C367.839 105.114 370.729 103.534 371.569 101.004C372.439 98.4736 371.019 95.7136 368.549 94.8836ZM200.379 115.954L200.329 115.984L201.019 127.484L209.559 122.964L200.379 115.954ZM249.649 92.3736C248.949 89.7936 246.239 88.2936 243.729 88.9636L234.629 91.4236L237.229 100.994L246.299 98.5436C248.819 97.8636 250.339 94.9536 249.649 92.3736ZM368.549 94.8836L359.629 91.8736L356.449 101.274L365.379 104.284C367.839 105.114 370.729 103.534 371.569 101.004C372.439 98.4736 371.019 95.7136 368.549 94.8836ZM200.379 115.954L200.329 115.984L201.019 127.484L209.559 122.964L200.379 115.954ZM249.649 92.3736C248.949 89.7936 246.239 88.2936 243.729 88.9636L234.629 91.4236L237.229 100.994L246.299 98.5436C248.819 97.8636 250.339 94.9536 249.649 92.3736ZM368.549 94.8836L359.629 91.8736L356.449 101.274L365.379 104.284C367.839 105.114 370.729 103.534 371.569 101.004C372.439 98.4736 371.019 95.7136 368.549 94.8836ZM200.379 115.954L200.329 115.984L201.019 127.484L209.559 122.964L200.379 115.954ZM249.649 92.3736C248.949 89.7936 246.239 88.2936 243.729 88.9636L234.629 91.4236L237.229 100.994L246.299 98.5436C248.819 97.8636 250.339 94.9536 249.649 92.3736ZM368.549 94.8836L359.629 91.8736L356.449 101.274L365.379 104.284C367.839 105.114 370.729 103.534 371.569 101.004C372.439 98.4736 371.019 95.7136 368.549 94.8836ZM200.379 115.954L200.329 115.984L201.019 127.484L209.559 122.964L200.379 115.954ZM249.649 92.3736C248.949 89.7936 246.239 88.2936 243.729 88.9636L234.629 91.4236L237.229 100.994L246.299 98.5436C248.819 97.8636 250.339 94.9536 249.649 92.3736ZM368.549 94.8836L359.629 91.8736L356.449 101.274L365.379 104.284C367.839 105.114 370.729 103.534 371.569 101.004C372.439 98.4736 371.019 95.7136 368.549 94.8836ZM485.469 296.724L485.229 302.824C484.969 310.004 490.419 315.424 497.659 315.704C504.829 315.974 510.689 310.984 510.969 303.804L511.189 297.704L485.469 296.724ZM485.469 296.724L485.229 302.824C484.969 310.004 490.419 315.424 497.659 315.704C504.829 315.974 510.689 310.984 510.969 303.804L511.189 297.704L485.469 296.724ZM200.379 115.954L200.329 115.984L201.019 127.484L209.559 122.964L200.379 115.954ZM249.649 92.3736C248.949 89.7936 246.239 88.2936 243.729 88.9636L234.629 91.4236L237.229 100.994L246.299 98.5436C248.819 97.8636 250.339 94.9536 249.649 92.3736ZM368.549 94.8836L359.629 91.8736L356.449 101.274L365.379 104.284C367.839 105.114 370.729 103.534 371.569 101.004C372.439 98.4736 371.019 95.7136 368.549 94.8836ZM465.689 125.294C420.449 80.0636 360.319 55.1536 296.359 55.1536C232.399 55.1536 172.269 80.0636 127.029 125.294C81.7994 170.524 56.8994 230.664 56.8994 294.624C56.8994 358.584 81.7994 418.724 127.029 463.954C172.269 509.184 232.399 534.094 296.359 534.094C360.319 534.094 420.449 509.184 465.689 463.954C510.919 418.724 535.819 358.584 535.819 294.624C535.819 230.664 510.919 170.524 465.689 125.294ZM514.589 245.164L519.339 271.054C519.449 271.744 518.989 272.344 518.359 272.464L511.549 273.704C510.919 273.824 510.269 273.424 510.129 272.734L506.979 255.414L499.219 256.834L501.819 271.094C501.939 271.714 501.479 272.384 500.859 272.494L494.029 273.744C493.339 273.874 492.739 273.394 492.629 272.774L490.029 258.514L481.589 260.054L484.739 277.384C484.879 278.064 484.409 278.674 483.779 278.784L476.949 280.034C476.339 280.144 475.679 279.754 475.549 279.064L470.819 253.174C470.699 252.484 471.169 251.884 471.799 251.764L513.199 244.194C513.819 244.084 514.479 244.474 514.589 245.164ZM500.649 204.264L510.729 230.634C510.979 231.284 510.619 231.964 510.019 232.194L503.559 234.664C502.969 234.894 502.249 234.624 501.999 233.974L498.749 225.474L467.039 237.604C466.439 237.834 465.709 237.504 465.479 236.904L462.759 229.784C462.519 229.184 462.849 228.444 463.459 228.224L495.159 216.094L491.919 207.604C491.669 206.954 492.019 206.274 492.619 206.044L499.079 203.564C499.679 203.344 500.399 203.614 500.649 204.264ZM490.569 185.624L494.279 192.294C494.589 192.854 494.359 193.634 493.799 193.934L456.989 214.334C456.439 214.644 455.669 214.424 455.359 213.864L451.659 207.194C451.339 206.634 451.569 205.854 452.129 205.544L488.939 185.154C489.489 184.844 490.279 185.064 490.569 185.624ZM455.419 292.064V297.184C455.149 314.464 452.099 331.094 446.709 346.634L444.959 351.434C438.879 367.284 430.339 381.914 419.799 394.874L416.519 398.794C405.509 411.464 392.539 422.384 378.089 431.074L373.659 433.634C359.169 441.724 343.299 447.614 326.499 450.844L321.459 451.734C313.279 453.034 304.899 453.724 296.349 453.724C287.799 453.724 279.429 453.034 271.249 451.734L266.209 450.844C249.409 447.614 233.529 441.724 219.049 433.634L214.619 431.074C200.169 422.384 187.189 411.464 176.189 398.794L172.909 394.874C162.369 381.914 153.829 367.284 147.749 351.434L145.989 346.634C140.599 331.094 137.559 314.464 137.289 297.184V292.064C138.659 205.514 209.479 135.524 296.349 135.524C383.219 135.524 454.049 205.514 455.419 292.064ZM458.279 140.644L459.299 141.874L456.609 176.974L456.659 177.024L474.049 162.654C474.549 162.254 475.299 162.284 475.759 162.824L480.609 168.704C481.019 169.194 480.939 170.004 480.449 170.404L447.449 197.634C446.969 198.034 446.199 197.924 445.799 197.434L445.159 196.644C445.029 196.494 444.859 195.984 444.879 195.804L448.359 160.374L448.319 160.324L430.029 175.424C429.529 175.824 428.779 175.794 428.319 175.254L423.519 169.424C423.109 168.934 423.189 168.124 423.679 167.724L456.629 140.444C457.109 140.044 457.879 140.154 458.279 140.644ZM397.899 128.114L413.419 106.944C413.789 106.424 414.599 106.304 415.099 106.684L421.419 111.304C421.979 111.714 422.059 112.484 421.679 112.994L406.439 133.754C403.809 137.344 404.379 142.174 408.019 144.834C411.719 147.544 416.539 146.664 419.169 143.074L434.389 122.314C434.769 121.804 435.519 121.644 436.079 122.054L442.389 126.674C442.899 127.054 443.019 127.854 442.649 128.364L427.119 149.544C421.409 157.334 410.099 158.984 402.009 153.044C393.959 147.144 392.189 135.904 397.899 128.114ZM339.239 121.094L352.699 81.2136C352.899 80.6136 353.569 80.2336 354.229 80.4536L372.239 86.5336C379.469 88.9736 383.399 96.8136 380.979 103.984C379.109 109.524 373.929 112.744 367.979 113.074L371.069 131.164C371.219 132.094 370.479 132.914 369.449 132.564L361.439 129.864C360.949 129.704 360.699 129.274 360.659 128.994L358.029 110.324L353.879 108.924L348.689 124.284C348.489 124.884 347.759 125.244 347.159 125.044L339.989 122.624C339.319 122.394 339.029 121.694 339.239 121.094ZM309.089 74.5836C309.159 73.9536 309.729 73.4436 310.429 73.5236L336.569 76.5436C337.269 76.6236 337.699 77.2536 337.629 77.8836L336.839 84.7636C336.759 85.4036 336.189 85.9136 335.489 85.8336L318.009 83.8036L317.089 91.6336L331.489 93.3036C332.129 93.3736 332.629 94.0036 332.549 94.6436L331.759 101.524C331.679 102.214 331.049 102.654 330.429 102.584L316.029 100.924L315.029 109.444L332.529 111.464C333.229 111.544 333.669 112.174 333.589 112.804L332.799 119.684C332.729 120.324 332.159 120.834 331.449 120.754L305.319 117.724C304.629 117.644 304.189 117.024 304.259 116.394L309.089 74.5836ZM267.339 74.8336L295.489 72.9736C296.199 72.9236 296.739 73.4636 296.779 74.0936L297.239 81.0036C297.279 81.6436 296.819 82.2436 296.109 82.2936L287.049 82.8936L289.279 116.764C289.319 117.394 288.799 118.004 288.159 118.044L280.549 118.554C279.919 118.594 279.299 118.054 279.269 117.424L277.029 83.5536L267.949 84.1536C267.259 84.2036 266.719 83.6636 266.669 83.0336L266.219 76.1136C266.169 75.4836 266.649 74.8736 267.339 74.8336ZM223.799 84.9236L242.159 79.9736C249.519 77.9836 257.149 82.3136 259.109 89.6236C260.629 95.2736 258.109 100.824 253.359 104.414L265.979 117.734C266.609 118.414 266.449 119.514 265.419 119.794L257.239 121.994C256.759 122.134 256.299 121.924 256.109 121.714L243.569 107.644L239.319 108.794L243.549 124.444C243.719 125.054 243.319 125.754 242.699 125.924L235.399 127.894C234.719 128.074 234.069 127.654 233.919 127.044L222.949 86.4036C222.779 85.7936 223.129 85.1136 223.799 84.9236ZM191.029 98.9636L191.589 98.6736C191.989 98.4636 192.529 98.5336 192.879 98.7836L230.489 127.274C231.219 127.824 231.149 128.794 230.299 129.234L224.069 132.544C223.049 133.074 222.439 132.974 221.359 132.174L216.989 128.814L201.699 136.914L202.069 142.474C202.149 143.294 201.889 144.294 200.759 144.894L194.589 148.164C193.739 148.614 192.909 148.124 192.859 147.214L190.409 100.094C190.409 99.6636 190.629 99.1736 191.029 98.9636ZM146.169 130.624L168.279 113.084C168.839 112.644 169.589 112.774 169.989 113.274L174.279 118.704C174.689 119.204 174.649 119.964 174.089 120.404L166.979 126.054L188.069 152.654C188.469 153.144 188.379 153.954 187.879 154.344L181.909 159.094C181.409 159.484 180.589 159.394 180.199 158.894L159.089 132.294L151.979 137.944C151.429 138.384 150.679 138.254 150.279 137.754L145.979 132.324C145.569 131.824 145.629 131.064 146.169 130.624ZM127.979 148.714C132.369 143.764 138.259 142.184 140.579 141.684C141.409 141.404 142.189 142.264 142.349 142.744L143.869 148.414C144.099 149.214 143.769 150.454 143.059 150.584C142.439 150.804 136.729 151.964 134.169 154.864C132.659 156.584 132.659 158.874 133.939 160.014C135.709 161.574 138.309 161.324 143.159 158.914C147.919 156.504 156.039 153.164 162.519 158.894C167.429 163.234 168.619 171.854 162.439 178.854C156.959 185.044 151.349 186.194 149.289 186.324C148.399 186.374 148.079 186.354 147.749 185.384L145.769 179.644C145.499 178.714 146.389 177.894 146.919 177.774C147.189 177.664 152.729 176.474 155.519 173.334C157.209 171.424 157.229 168.994 155.579 167.514C153.579 165.744 150.579 166.064 146.429 168.164C141.189 170.824 133.439 173.154 127.729 168.094C123.019 163.924 121.499 156.044 127.979 148.714ZM94.7994 198.534L98.5094 192.084C98.9294 191.374 99.8794 191.114 100.589 191.524L115.089 199.844L106.839 178.834C106.699 178.464 106.699 177.804 106.899 177.474L110.889 170.524C111.489 169.484 113.019 169.624 113.489 170.704L122.239 192.884L148.609 189.324C149.799 189.194 150.669 190.494 150.049 191.544L145.699 199.154C145.479 199.534 144.969 199.904 144.739 199.924L120.109 202.724L136.549 212.154C137.269 212.564 137.529 213.524 137.109 214.234L133.409 220.684C132.969 221.464 132.049 221.664 131.319 221.254L95.3794 200.624C94.6594 200.214 94.3594 199.314 94.7994 198.534ZM82.5194 228.414C84.3594 222.334 87.6094 218.404 92.6494 215.414C93.2994 215.014 94.0294 215.234 94.3594 215.864L97.8394 222.114C98.1494 222.664 97.9494 223.334 97.3894 223.634C94.6994 225.274 92.6994 227.914 91.7994 230.904C89.6994 237.774 93.8894 244.554 100.699 246.624C107.449 248.684 114.589 245.274 116.689 238.394C117.549 235.534 117.469 232.124 116.239 229.364C116.009 228.824 116.239 228.034 116.779 227.794L123.279 224.584C123.839 224.294 124.609 224.594 124.909 225.144C127.659 230.504 127.949 236.304 126.299 241.724C122.609 253.884 109.969 260.744 97.7994 257.044C85.6294 253.344 78.8194 240.574 82.5194 228.414ZM74.6494 265.134C74.7294 264.504 75.3694 264.004 75.9994 264.084L117.749 269.404C118.379 269.484 118.879 270.124 118.789 270.754L117.829 278.324C117.749 278.954 117.099 279.444 116.479 279.364L74.7294 274.054C74.0994 273.974 73.5994 273.334 73.6894 272.704L74.6494 265.134ZM73.0894 320.664L72.8194 313.234C72.7794 312.404 73.4494 311.684 74.2794 311.654L90.9894 311.004L72.8394 297.584C72.5094 297.344 72.1694 296.784 72.1594 296.404L71.8394 288.394C71.7994 287.184 73.1794 286.494 74.1594 287.164L93.3394 301.304L113.799 284.284C114.729 283.544 116.159 284.194 116.199 285.404L116.549 294.164C116.549 294.614 116.319 295.194 116.149 295.324L96.7694 310.774L115.699 310.044C116.519 310.014 117.239 310.684 117.279 311.504L117.569 318.944C117.609 319.834 116.929 320.494 116.109 320.524L74.6894 322.134C73.8594 322.164 73.1294 321.554 73.0894 320.664ZM296.359 497.474C202.799 497.474 123.859 433.834 100.479 347.584H103.589C126.879 432.164 204.479 494.474 296.359 494.474C388.239 494.474 465.839 432.164 489.129 347.584H492.239C468.859 433.834 389.919 497.474 296.359 497.474ZM497.269 326.244C484.949 325.784 475.339 315.364 475.819 303.104L476.409 287.604C476.429 286.964 477.029 286.484 477.659 286.504L519.719 288.104C520.339 288.124 520.909 288.654 520.879 289.294L520.279 304.794C519.819 317.054 509.469 326.714 497.269 326.244ZM485.239 302.824C484.979 310.004 490.429 315.424 497.669 315.704C504.839 315.974 510.699 310.984 510.979 303.804L511.199 297.704L485.479 296.724L485.239 302.824ZM296.359 140.644C212.309 140.644 143.779 208.334 142.409 292.064H450.319C448.939 208.334 380.419 140.644 296.359 140.644ZM390.859 215.724L367.699 221.874L353.189 237.504C353.319 237.924 353.489 238.324 353.569 238.754C354.199 241.714 353.629 244.724 351.949 247.244C349.799 250.514 346.239 252.304 342.589 252.304C342.319 252.304 342.069 252.274 341.799 252.254C341.719 253.884 341.239 255.474 340.299 256.884C338.019 260.374 334.129 262.314 330.169 262.314C330.109 262.314 330.069 262.304 330.019 262.304C330.049 264.274 329.449 266.234 328.279 267.844C326.089 271.224 322.429 273.094 318.649 273.094C318.279 273.094 317.919 273.064 317.549 273.024C313.739 276.794 308.689 278.894 303.379 278.894C302.339 278.894 301.299 278.814 300.259 278.654L284.859 276.294C283.049 278.634 280.339 279.944 277.519 279.944C276.319 279.944 275.089 279.704 273.919 279.224C271.889 278.384 270.269 276.884 269.259 274.994C267.839 275.684 266.299 276.054 264.739 276.054C263.069 276.054 261.399 275.654 259.839 274.814C257.669 273.644 256.029 271.704 255.169 269.414C254.629 269.604 254.069 269.784 253.509 269.884C252.879 270.004 252.259 270.054 251.629 270.054C249.529 270.054 247.489 269.414 245.739 268.174C242.889 266.174 241.359 262.964 241.379 259.714C239.319 259.684 237.339 259.044 235.649 257.834L235.469 257.704C230.939 254.474 229.839 248.134 233.029 243.574L236.389 238.764L224.319 222.844L201.729 215.674C200.049 215.144 199.129 213.364 199.659 211.694C200.189 210.034 201.969 209.094 203.629 209.634L227.189 217.104C227.819 217.304 228.359 217.684 228.759 218.204L240.319 233.464C243.609 230.274 248.739 229.614 252.769 232.104C254.089 232.924 255.149 233.984 255.949 235.204C259.109 230.694 265.379 229.464 269.989 232.474C272.339 233.994 273.929 236.344 274.479 239.084C274.649 239.934 274.679 240.774 274.629 241.614C276.839 241.694 279.009 242.464 280.739 243.874C284.029 246.534 285.239 250.894 284.109 254.784C285.549 255.104 286.919 255.714 288.069 256.664C288.109 256.694 288.149 256.714 288.179 256.744C291.839 259.844 292.569 265.314 289.819 269.254L288.939 270.504L301.219 272.384C304.569 272.894 307.889 272.164 310.659 270.434L297.069 263.534C295.509 262.744 294.889 260.834 295.679 259.274C296.469 257.714 298.389 257.094 299.949 257.884L316.279 266.174C318.669 267.384 321.549 266.604 322.989 264.344C323.029 264.284 323.089 264.224 323.129 264.154C323.609 263.494 323.799 262.684 323.649 261.874C323.489 261.064 323.019 260.384 322.319 259.954L318.569 257.664L303.319 249.354C301.779 248.524 301.229 246.594 302.069 245.054C302.909 243.514 304.839 242.954 306.359 243.784L327.469 255.284C330.069 256.704 333.379 255.874 335.009 253.404C335.479 252.684 335.629 251.834 335.449 251.004C335.259 250.164 334.739 249.464 334.009 249.024L331.409 247.474L309.819 234.554C308.319 233.644 307.819 231.704 308.729 230.204C309.629 228.694 311.569 228.204 313.069 229.104L340.069 245.254C342.319 246.604 345.219 245.944 346.669 243.754C347.389 242.654 347.649 241.344 347.359 240.054C347.109 238.764 346.339 237.664 345.239 236.944L295.339 204.604C294.629 204.154 293.739 204.104 293.009 204.494L269.819 216.614C266.859 218.164 263.239 217.854 260.569 215.854C258.729 214.444 257.529 212.404 257.229 210.104C256.919 207.794 257.529 205.514 258.939 203.674L267.239 192.864L259.029 191.564C258.109 191.414 257.229 191.124 256.399 190.694C256.199 190.594 256.029 190.474 255.859 190.344L229.489 168.954C228.129 167.844 227.919 165.844 229.029 164.494C230.129 163.124 232.129 162.924 233.489 164.024L259.549 185.174C259.699 185.234 259.859 185.274 260.019 185.294L271.949 187.194C274.519 184.794 277.729 183.154 281.239 182.504L294.029 180.124C301.929 178.654 309.909 178.744 317.759 180.394L331.379 183.254C331.729 183.324 332.089 183.324 332.429 183.234L359.109 163.914C360.529 162.884 362.519 163.204 363.529 164.624C364.569 166.044 364.239 168.034 362.839 169.054L335.769 188.644C335.549 188.794 335.319 188.924 335.089 189.024C333.489 189.664 331.759 189.814 330.069 189.464L316.449 186.604C309.419 185.124 302.269 185.044 295.199 186.354L282.399 188.734C279.409 189.294 276.739 190.924 274.889 193.334L263.969 207.534C263.589 208.024 263.429 208.644 263.509 209.254C263.589 209.874 263.909 210.414 264.409 210.794C265.109 211.324 266.089 211.414 266.879 210.994L290.069 198.874C292.839 197.424 296.179 197.584 298.779 199.284L348.689 231.624C348.969 231.794 349.189 232.024 349.449 232.224L363.679 216.894C364.089 216.454 364.609 216.134 365.189 215.984L389.229 209.594C390.909 209.144 392.659 210.144 393.109 211.844C393.549 213.534 392.549 215.274 390.859 215.724ZM441.919 344.884C447.109 329.894 450.039 313.854 450.319 297.184H310.859L441.919 344.884ZM415.879 391.584C426.039 379.084 434.279 364.964 440.149 349.684L309.109 301.984L415.879 391.584ZM375.539 426.644C389.479 418.254 401.989 407.724 412.609 395.504L305.829 305.904L375.539 426.644ZM371.569 101.004C372.439 98.4736 371.019 95.7136 368.549 94.8836L359.629 91.8736L356.449 101.274L365.379 104.284C367.839 105.114 370.729 103.534 371.569 101.004ZM325.619 445.814C341.829 442.684 357.139 437.004 371.109 429.204L301.399 308.464L325.619 445.814ZM272.149 446.694C280.039 447.954 288.129 448.604 296.359 448.604C304.589 448.604 312.689 447.954 320.579 446.694L296.359 309.344L272.149 446.694ZM221.619 429.204C235.589 437.004 250.899 442.684 267.109 445.814L291.329 308.464L221.619 429.204ZM180.119 395.504C190.739 407.724 203.249 418.254 217.189 426.644L286.899 305.904L180.119 395.504ZM152.569 349.684C158.439 364.964 166.679 379.084 176.839 391.584L283.609 301.984L152.569 349.684ZM142.399 297.184C142.679 313.854 145.609 329.894 150.799 344.884L281.849 297.184H142.399ZM246.299 98.5436C248.819 97.8636 250.339 94.9536 249.649 92.3736C248.949 89.7936 246.239 88.2936 243.729 88.9636L234.629 91.4236L237.229 100.994L246.299 98.5436ZM209.569 122.964L200.389 115.954L200.339 115.984L201.029 127.484L209.569 122.964ZM368.549 94.8836L359.629 91.8736L356.449 101.274L365.379 104.284C367.839 105.114 370.729 103.534 371.569 101.004C372.439 98.4736 371.019 95.7136 368.549 94.8836ZM249.649 92.3736C248.949 89.7936 246.239 88.2936 243.729 88.9636L234.629 91.4236L237.229 100.994L246.299 98.5436C248.819 97.8636 250.339 94.9536 249.649 92.3736ZM200.379 115.954L200.329 115.984L201.019 127.484L209.559 122.964L200.379 115.954ZM368.549 94.8836L359.629 91.8736L356.449 101.274L365.379 104.284C367.839 105.114 370.729 103.534 371.569 101.004C372.439 98.4736 371.019 95.7136 368.549 94.8836ZM249.649 92.3736C248.949 89.7936 246.239 88.2936 243.729 88.9636L234.629 91.4236L237.229 100.994L246.299 98.5436C248.819 97.8636 250.339 94.9536 249.649 92.3736ZM200.379 115.954L200.329 115.984L201.019 127.484L209.559 122.964L200.379 115.954ZM368.549 94.8836L359.629 91.8736L356.449 101.274L365.379 104.284C367.839 105.114 370.729 103.534 371.569 101.004C372.439 98.4736 371.019 95.7136 368.549 94.8836ZM249.649 92.3736C248.949 89.7936 246.239 88.2936 243.729 88.9636L234.629 91.4236L237.229 100.994L246.299 98.5436C248.819 97.8636 250.339 94.9536 249.649 92.3736ZM200.379 115.954L200.329 115.984L201.019 127.484L209.559 122.964L200.379 115.954ZM368.549 94.8836L359.629 91.8736L356.449 101.274L365.379 104.284C367.839 105.114 370.729 103.534 371.569 101.004C372.439 98.4736 371.019 95.7136 368.549 94.8836ZM249.649 92.3736C248.949 89.7936 246.239 88.2936 243.729 88.9636L234.629 91.4236L237.229 100.994L246.299 98.5436C248.819 97.8636 250.339 94.9536 249.649 92.3736ZM200.379 115.954L200.329 115.984L201.019 127.484L209.559 122.964L200.379 115.954ZM368.549 94.8836L359.629 91.8736L356.449 101.274L365.379 104.284C367.839 105.114 370.729 103.534 371.569 101.004C372.439 98.4736 371.019 95.7136 368.549 94.8836ZM249.649 92.3736C248.949 89.7936 246.239 88.2936 243.729 88.9636L234.629 91.4236L237.229 100.994L246.299 98.5436C248.819 97.8636 250.339 94.9536 249.649 92.3736ZM200.379 115.954L200.329 115.984L201.019 127.484L209.559 122.964L200.379 115.954ZM368.549 94.8836L359.629 91.8736L356.449 101.274L365.379 104.284C367.839 105.114 370.729 103.534 371.569 101.004C372.439 98.4736 371.019 95.7136 368.549 94.8836ZM249.649 92.3736C248.949 89.7936 246.239 88.2936 243.729 88.9636L234.629 91.4236L237.229 100.994L246.299 98.5436C248.819 97.8636 250.339 94.9536 249.649 92.3736ZM200.379 115.954L200.329 115.984L201.019 127.484L209.559 122.964L200.379 115.954ZM249.649 92.3736C248.949 89.7936 246.239 88.2936 243.729 88.9636L234.629 91.4236L237.229 100.994L246.299 98.5436C248.819 97.8636 250.339 94.9536 249.649 92.3736ZM200.379 115.954L200.329 115.984L201.019 127.484L209.559 122.964L200.379 115.954ZM249.649 92.3736C248.949 89.7936 246.239 88.2936 243.729 88.9636L234.629 91.4236L237.229 100.994L246.299 98.5436C248.819 97.8636 250.339 94.9536 249.649 92.3736ZM200.379 115.954L200.329 115.984L201.019 127.484L209.559 122.964L200.379 115.954ZM249.649 92.3736C248.949 89.7936 246.239 88.2936 243.729 88.9636L234.629 91.4236L237.229 100.994L246.299 98.5436C248.819 97.8636 250.339 94.9536 249.649 92.3736ZM200.379 115.954L200.329 115.984L201.019 127.484L209.559 122.964L200.379 115.954ZM249.649 92.3736C248.949 89.7936 246.239 88.2936 243.729 88.9636L234.629 91.4236L237.229 100.994L246.299 98.5436C248.819 97.8636 250.339 94.9536 249.649 92.3736ZM200.379 115.954L200.329 115.984L201.019 127.484L209.559 122.964L200.379 115.954Z" fill="#231F20"/>
<path d="M447.689 499.434L437.619 511.224V499.434H447.689Z" fill="white"/>
<path d="M461.509 485.224L473.489 515.304H439.989L453.539 499.444V455.144H473.489L461.509 485.224Z" fill="white"/>
<path d="M160.08 499.434V511.224L150.01 499.434H160.08Z" fill="white"/>
<path d="M124.209 515.304L136.169 485.224L124.209 455.144H144.149V499.434H144.199L144.159 499.474L157.709 515.304H124.209Z" fill="white"/>
<path d="M449.719 431.774H147.969V495.614H449.719V431.774Z" fill="white"/>
<path d="M479.119 451.334H453.549V427.964H144.149V451.334H118.579L132.069 485.234L118.579 519.134H163.899V499.444H433.809V519.134H479.129L465.639 485.234L479.129 451.334H479.119ZM124.209 515.304L136.179 485.224L124.209 455.144H144.159V499.424H144.209L144.169 499.464L157.709 515.294H124.209V515.304ZM160.079 511.224L150.009 499.434H160.079V511.224ZM147.969 495.614V431.774H449.719V495.614H147.969ZM437.619 499.434H447.689L437.619 511.224V499.434ZM473.489 515.304H439.989L453.549 499.444V455.144H473.499L461.519 485.224L473.499 515.304H473.489Z" fill="#231F20"/>
<path d="M200.499 445.644C210.679 445.644 218.829 453.844 218.829 464.024C218.829 474.204 210.689 482.304 200.499 482.304C190.309 482.304 182.219 474.214 182.219 464.024C182.219 453.834 190.309 445.644 200.499 445.644ZM200.499 474.144C206.099 474.144 210.679 469.564 210.679 464.014C210.679 458.464 206.099 453.784 200.499 453.784C194.899 453.784 190.369 458.414 190.369 464.014C190.369 469.614 194.949 474.144 200.499 474.144Z" fill="#231F20"/>
<path d="M224.989 447.114C224.989 446.604 225.399 446.144 225.959 446.144H238.229C244.489 446.144 249.629 451.234 249.629 457.394C249.629 463.554 244.489 468.844 238.279 468.844H232.929V480.804C232.929 481.314 232.469 481.774 231.959 481.774H225.949C225.389 481.774 224.979 481.314 224.979 480.804V447.104L224.989 447.114ZM237.769 461.424C239.959 461.424 241.789 459.694 241.789 457.404C241.789 455.264 239.959 453.634 237.769 453.634H232.929V461.424H237.769Z" fill="#231F20"/>
<path d="M254.829 447.114C254.829 446.604 255.239 446.144 255.799 446.144H276.879C277.439 446.144 277.849 446.604 277.849 447.114V452.664C277.849 453.174 277.439 453.634 276.879 453.634H262.779V459.944H274.389C274.899 459.944 275.359 460.404 275.359 460.914V466.464C275.359 467.024 274.899 467.434 274.389 467.434H262.779V474.304H276.879C277.439 474.304 277.849 474.764 277.849 475.274V480.824C277.849 481.334 277.439 481.794 276.879 481.794H255.799C255.239 481.794 254.829 481.334 254.829 480.824V447.124V447.114Z" fill="#231F20"/>
<path d="M284.669 447.114C284.669 446.604 285.129 446.144 285.639 446.144H291.749C292.259 446.144 292.719 446.604 292.719 447.114V480.814C292.719 481.324 292.259 481.784 291.749 481.784H285.639C285.129 481.784 284.669 481.324 284.669 480.814V447.114Z" fill="#231F20"/>
<path d="M300.959 447.114C300.959 446.604 301.419 446.144 301.929 446.144H308.189C308.749 446.144 309.159 446.604 309.159 447.114V467.734C309.159 471.294 311.809 474.144 315.419 474.144C319.029 474.144 321.779 471.294 321.779 467.734V447.114C321.779 446.604 322.189 446.144 322.749 446.144H329.009C329.519 446.144 329.979 446.604 329.979 447.114V468.134C329.979 475.874 323.459 482.284 315.419 482.284C307.379 482.284 300.959 475.874 300.959 468.134V447.114Z" fill="#231F20"/>
<path d="M352.129 457.904H347.239C346.729 457.904 346.329 457.444 346.329 456.934V453.724C346.329 453.524 346.479 453.114 346.629 452.964L354.059 447.164H358.739C359.249 447.164 359.659 447.624 359.659 448.134V480.814C359.659 481.324 359.249 481.784 358.739 481.784H353.089C352.529 481.784 352.119 481.324 352.119 480.814V457.904H352.129Z" fill="#231F20"/>
<path d="M366.639 476.334L369.849 473.174C370.159 472.864 370.659 472.764 371.069 473.024C371.069 473.024 374.679 475.464 377.129 475.464C379.879 475.464 381.969 473.424 381.969 470.624C381.969 467.824 380.039 465.684 376.729 465.684H368.889C367.869 465.684 367.309 464.714 367.309 463.904V448.124C367.309 447.614 367.719 447.154 368.279 447.154H384.669C385.229 447.154 385.639 447.614 385.639 448.124V452.604C385.639 453.114 385.229 453.574 384.669 453.574H374.179V459.024H377.789C384.819 459.024 389.399 463.964 389.399 470.634C389.399 477.304 383.949 482.294 376.829 482.294C371.539 482.294 368.019 479.594 366.749 478.064C366.089 477.304 366.039 476.944 366.649 476.334H366.639Z" fill="#231F20"/>
<path d="M392.509 476.494L395.719 473.284C396.079 472.924 396.589 472.874 396.989 473.184C396.989 473.184 400.149 475.524 402.589 475.524C404.779 475.524 407.019 473.694 407.019 471.454C407.019 469.214 404.729 467.334 400.959 467.334H398.109C397.599 467.334 397.139 466.874 397.139 466.364V462.134C397.139 461.574 397.599 461.164 398.109 461.164H400.959C404.519 461.164 406.409 459.434 406.409 457.244C406.409 455.054 404.529 453.424 402.339 453.424C400.149 453.424 398.669 454.594 397.909 455.464C397.549 455.874 396.939 455.874 396.539 455.514L393.429 452.464C393.019 452.104 393.069 451.494 393.429 451.144C393.429 451.144 397.599 446.664 403.149 446.664C409.059 446.664 414.149 450.274 414.149 455.984C414.149 459.904 411.199 462.804 408.909 463.874V464.024C411.299 465.044 415.069 468.194 415.069 472.574C415.069 478.124 410.229 482.294 403.209 482.294C396.799 482.294 393.539 479.134 392.469 477.764C392.159 477.404 392.219 476.844 392.519 476.494H392.509Z" fill="#231F20"/>
</svg>
