<svg width="1104" height="241" viewBox="0 0 1104 241" fill="none" xmlns="http://www.w3.org/2000/svg">
<path d="M1103.45 240.773H45.3418C27.4854 240.773 17.7766 219.901 29.2803 206.244L92.0498 131.725C97.3802 125.397 97.3802 116.149 92.0498 109.821L29.2803 35.3022C17.7766 21.6451 27.4854 0.773113 45.3418 0.772949H1103.45V240.773Z" fill="#222222"/>
<path d="M1103.45 240.773H45.3418C27.4854 240.773 17.7766 219.901 29.2803 206.244L92.0498 131.725C97.3802 125.397 97.3802 116.149 92.0498 109.821L29.2803 35.3022C17.7766 21.6451 27.4854 0.773113 45.3418 0.772949H1103.45V240.773Z" stroke="white"/>
<path d="M145.342 128.024V82.1815C145.342 81.0715 146.341 80.0725 147.451 80.0725H161.104C162.325 80.0725 163.213 81.0715 163.213 82.1815V127.136C163.213 134.906 168.985 141.122 176.866 141.122C184.858 141.122 190.741 134.906 190.741 127.136V82.1815C190.741 81.0715 191.629 80.0725 192.85 80.0725H206.503C207.613 80.0725 208.612 81.0715 208.612 82.1815V128.024C208.612 144.896 194.404 158.882 176.866 158.882C159.439 158.882 145.342 144.896 145.342 128.024ZM226.45 155.663L226.339 80.9605C226.339 79.8505 227.338 78.9625 228.448 78.9625H231.223L275.512 121.586H275.623V82.1815C275.623 81.0715 276.511 80.0725 277.732 80.0725H291.052C292.162 80.0725 293.161 81.0715 293.161 82.1815V156.884C293.161 157.994 292.162 158.882 291.052 158.882H289.276C288.943 158.882 288.055 158.549 287.833 158.327L243.988 114.26H243.877V155.663C243.877 156.773 242.989 157.772 241.768 157.772H228.559C227.449 157.772 226.45 156.773 226.45 155.663ZM312.302 155.663V82.1815C312.302 81.0715 313.301 80.0725 314.411 80.0725H327.731C328.841 80.0725 329.84 81.0715 329.84 82.1815V155.663C329.84 156.773 328.841 157.772 327.731 157.772H314.411C313.301 157.772 312.302 156.773 312.302 155.663ZM358.931 155.663V96.3895H343.058C341.837 96.3895 340.949 95.3905 340.949 94.2805V82.1815C340.949 81.0715 341.837 80.0725 343.058 80.0725H392.342C393.563 80.0725 394.451 81.0715 394.451 82.1815V94.2805C394.451 95.3905 393.563 96.3895 392.342 96.3895H376.469V155.663C376.469 156.773 375.47 157.772 374.36 157.772H361.04C359.93 157.772 358.931 156.773 358.931 155.663ZM405.525 155.663V82.1815C405.525 81.0715 406.413 80.0725 407.634 80.0725H453.588C454.809 80.0725 455.697 81.0715 455.697 82.1815V94.2805C455.697 95.3905 454.809 96.3895 453.588 96.3895H422.841V110.153H448.149C449.259 110.153 450.258 111.152 450.258 112.262V124.361C450.258 125.582 449.259 126.47 448.149 126.47H422.841V141.455H453.588C454.809 141.455 455.697 142.454 455.697 143.564V155.663C455.697 156.773 454.809 157.772 453.588 157.772H407.634C406.413 157.772 405.525 156.773 405.525 155.663ZM470.564 155.663V82.1815C470.564 81.0715 471.452 80.0725 472.562 80.0725H499.646C521.069 80.0725 538.607 97.4995 538.607 118.811C538.607 140.345 521.069 157.772 499.646 157.772H472.562C471.452 157.772 470.564 156.773 470.564 155.663ZM487.88 141.344H498.536C511.079 141.344 520.181 131.465 520.181 118.811C520.181 106.268 511.079 96.3895 498.536 96.3895H487.88V141.344ZM590.783 157.328L569.804 82.7365C569.36 81.1825 570.248 80.0725 571.802 80.0725H584.789C585.677 80.0725 586.565 80.8495 586.787 81.6265L596.333 119.255H596.777L613.982 80.1835C614.315 79.5175 614.981 78.9625 615.869 78.9625H617.867C618.866 78.9625 619.532 79.5175 619.754 80.1835L636.959 119.255H637.403L646.949 81.6265C647.171 80.8495 648.059 80.0725 648.947 80.0725H661.934C663.488 80.0725 664.376 81.1825 663.932 82.7365L642.953 157.328C642.731 158.216 641.843 158.882 640.955 158.882H639.179C638.402 158.882 637.625 158.327 637.292 157.661L616.979 112.262H616.646L596.444 157.661C596.111 158.327 595.334 158.882 594.557 158.882H592.781C591.893 158.882 591.005 158.216 590.783 157.328ZM675.87 155.663V82.1815C675.87 81.0715 676.869 80.0725 677.979 80.0725H691.299C692.409 80.0725 693.408 81.0715 693.408 82.1815V155.663C693.408 156.773 692.409 157.772 691.299 157.772H677.979C676.869 157.772 675.87 156.773 675.87 155.663ZM722.499 155.663V96.3895H706.626C705.405 96.3895 704.517 95.3905 704.517 94.2805V82.1815C704.517 81.0715 705.405 80.0725 706.626 80.0725H755.91C757.131 80.0725 758.019 81.0715 758.019 82.1815V94.2805C758.019 95.3905 757.131 96.3895 755.91 96.3895H740.037V155.663C740.037 156.773 739.038 157.772 737.928 157.772H724.608C723.498 157.772 722.499 156.773 722.499 155.663ZM769.093 155.663V82.1815C769.093 81.0715 770.092 80.0725 771.202 80.0725H784.411C785.632 80.0725 786.52 81.0715 786.52 82.1815V110.153H818.266V82.1815C818.266 81.0715 819.154 80.0725 820.375 80.0725H833.584C834.694 80.0725 835.693 81.0715 835.693 82.1815V155.663C835.693 156.773 834.694 157.772 833.584 157.772H820.375C819.154 157.772 818.266 156.773 818.266 155.663V126.47H786.52V155.663C786.52 156.773 785.632 157.772 784.411 157.772H771.202C770.092 157.772 769.093 156.773 769.093 155.663Z" fill="white"/>
<path d="M982.256 18.811H981.257C926.132 18.811 881.444 63.8046 881.444 119.307V120.312C881.444 175.814 926.132 220.808 981.257 220.808H982.256C1037.38 220.808 1082.07 175.814 1082.07 120.312V119.307C1082.07 63.8046 1037.38 18.811 982.256 18.811Z" fill="white"/>
<path d="M981.757 20.7231C927.405 20.7231 883.348 65.0861 883.348 119.81C883.348 174.533 927.405 218.896 981.757 218.896C1036.11 218.896 1080.17 174.533 1080.17 119.81C1080.17 65.0861 1036.11 20.7231 981.757 20.7231ZM1049.44 187.952C1031.36 206.152 1007.32 216.179 981.757 216.179C956.19 216.179 932.159 206.152 914.078 187.952C896.001 169.751 886.046 145.552 886.046 119.81C886.046 94.0673 896.001 69.8679 914.078 51.6673C932.159 33.4667 956.194 23.4399 981.757 23.4399C1007.32 23.4399 1031.36 33.4667 1049.44 51.6673C1067.52 69.8679 1077.47 94.0673 1077.47 119.81C1077.47 145.552 1067.52 169.751 1049.44 187.952Z" fill="#231F20"/>
<path d="M963.984 99.4416L961.516 103.081C961.293 103.348 960.989 103.528 960.646 103.591C960.248 103.662 959.843 103.572 959.515 103.336L959.445 103.289C958.778 102.81 958.614 101.868 959.086 101.193L961.441 97.8045C961.726 97.3883 962.186 97.1646 962.662 97.1646C962.939 97.1646 963.223 97.2391 963.485 97.4001C963.836 97.62 964.073 97.9654 964.163 98.3698C964.241 98.7428 964.175 99.1157 963.984 99.4416Z" fill="#231F20"/>
<path d="M969.828 100.733L966.112 106.179C966.046 106.277 966.003 106.383 965.944 106.485L965.597 106.995C965.363 107.341 965.008 107.572 964.599 107.647C964.19 107.721 963.776 107.631 963.433 107.388C962.747 106.901 962.571 105.939 963.043 105.24L963.55 104.494C963.585 104.447 963.624 104.412 963.655 104.365C964.389 103.293 965.25 102.013 965.983 100.926C966.003 100.898 966.011 100.867 966.03 100.839L968.007 97.9223C968.303 97.4866 968.795 97.2471 969.29 97.2471C969.578 97.2471 969.867 97.3295 970.124 97.4944C970.475 97.726 970.713 98.0794 970.795 98.4955C970.877 98.9077 970.795 99.3278 970.557 99.6733L969.883 100.674C969.867 100.698 969.844 100.714 969.828 100.733Z" fill="#231F20"/>
<path d="M973.291 105.547C973.268 105.582 973.233 105.61 973.209 105.645L971.396 108.264C971.334 108.354 971.299 108.452 971.244 108.546L970.694 109.355C970.246 110.007 969.384 110.219 968.686 109.842C968.296 109.63 968.023 109.272 967.918 108.837C967.84 108.515 967.867 108.185 967.988 107.887L971.919 102.088C972.164 101.762 972.515 101.55 972.917 101.491C972.995 101.48 973.069 101.476 973.143 101.476C973.494 101.476 973.833 101.593 974.11 101.821C974.734 102.328 974.866 103.246 974.41 103.91L973.291 105.547Z" fill="#231F20"/>
<path d="M976.953 106.83C977.425 107.223 977.522 107.922 977.171 108.428L975.362 111.043C975.042 111.502 974.461 111.675 973.946 111.459C973.615 111.322 973.366 111.043 973.264 110.697C973.19 110.442 973.202 110.179 973.295 109.936L975.327 106.964C975.51 106.752 975.76 106.611 976.044 106.571C976.099 106.563 976.153 106.56 976.208 106.56C976.469 106.56 976.723 106.646 976.929 106.811C976.937 106.819 976.945 106.827 976.953 106.83Z" fill="#231F20"/>
<path d="M944.331 49.665L944.312 49.6768L944.581 54.1916L947.911 52.4171L944.331 49.665ZM944.331 49.665L944.312 49.6768L944.581 54.1916L947.911 52.4171L944.331 49.665ZM944.331 49.665L944.312 49.6768L944.581 54.1916L947.911 52.4171L944.331 49.665ZM963.543 40.4077C963.27 39.3948 962.213 38.8059 961.235 39.069L957.686 40.0347L958.7 43.7919L962.237 42.83C963.219 42.563 963.812 41.4206 963.543 40.4077ZM944.331 49.665L944.312 49.6768L944.581 54.1916L947.911 52.4171L944.331 49.665ZM963.543 40.4077C963.27 39.3948 962.213 38.8059 961.235 39.069L957.686 40.0347L958.7 43.7919L962.237 42.83C963.219 42.563 963.812 41.4206 963.543 40.4077ZM944.331 49.665L944.312 49.6768L944.581 54.1916L947.911 52.4171L944.331 49.665ZM963.543 40.4077C963.27 39.3948 962.213 38.8059 961.235 39.069L957.686 40.0347L958.7 43.7919L962.237 42.83C963.219 42.563 963.812 41.4206 963.543 40.4077ZM1009.91 41.3931L1006.43 40.2114L1005.19 43.9018L1008.67 45.0835C1009.63 45.4093 1010.76 44.789 1011.08 43.7958C1011.42 42.8025 1010.87 41.719 1009.91 41.3931ZM944.331 49.665L944.312 49.6768L944.581 54.1916L947.911 52.4171L944.331 49.665ZM963.543 40.4077C963.27 39.3948 962.213 38.8059 961.235 39.069L957.686 40.0347L958.7 43.7919L962.237 42.83C963.219 42.563 963.812 41.4206 963.543 40.4077ZM1009.91 41.3931L1006.43 40.2114L1005.19 43.9018L1008.67 45.0835C1009.63 45.4093 1010.76 44.789 1011.08 43.7958C1011.42 42.8025 1010.87 41.719 1009.91 41.3931ZM944.331 49.665L944.312 49.6768L944.581 54.1916L947.911 52.4171L944.331 49.665ZM963.543 40.4077C963.27 39.3948 962.213 38.8059 961.235 39.069L957.686 40.0347L958.7 43.7919L962.237 42.83C963.219 42.563 963.812 41.4206 963.543 40.4077ZM1009.91 41.3931L1006.43 40.2114L1005.19 43.9018L1008.67 45.0835C1009.63 45.4093 1010.76 44.789 1011.08 43.7958C1011.42 42.8025 1010.87 41.719 1009.91 41.3931ZM944.331 49.665L944.312 49.6768L944.581 54.1916L947.911 52.4171L944.331 49.665ZM963.543 40.4077C963.27 39.3948 962.213 38.8059 961.235 39.069L957.686 40.0347L958.7 43.7919L962.237 42.83C963.219 42.563 963.812 41.4206 963.543 40.4077ZM1009.91 41.3931L1006.43 40.2114L1005.19 43.9018L1008.67 45.0835C1009.63 45.4093 1010.76 44.789 1011.08 43.7958C1011.42 42.8025 1010.87 41.719 1009.91 41.3931ZM944.331 49.665L944.312 49.6768L944.581 54.1916L947.911 52.4171L944.331 49.665ZM963.543 40.4077C963.27 39.3948 962.213 38.8059 961.235 39.069L957.686 40.0347L958.7 43.7919L962.237 42.83C963.219 42.563 963.812 41.4206 963.543 40.4077ZM1009.91 41.3931L1006.43 40.2114L1005.19 43.9018L1008.67 45.0835C1009.63 45.4093 1010.76 44.789 1011.08 43.7958C1011.42 42.8025 1010.87 41.719 1009.91 41.3931ZM944.331 49.665L944.312 49.6768L944.581 54.1916L947.911 52.4171L944.331 49.665ZM963.543 40.4077C963.27 39.3948 962.213 38.8059 961.235 39.069L957.686 40.0347L958.7 43.7919L962.237 42.83C963.219 42.563 963.812 41.4206 963.543 40.4077ZM1009.91 41.3931L1006.43 40.2114L1005.19 43.9018L1008.67 45.0835C1009.63 45.4093 1010.76 44.789 1011.08 43.7958C1011.42 42.8025 1010.87 41.719 1009.91 41.3931ZM944.331 49.665L944.312 49.6768L944.581 54.1916L947.911 52.4171L944.331 49.665ZM963.543 40.4077C963.27 39.3948 962.213 38.8059 961.235 39.069L957.686 40.0347L958.7 43.7919L962.237 42.83C963.219 42.563 963.812 41.4206 963.543 40.4077ZM1009.91 41.3931L1006.43 40.2114L1005.19 43.9018L1008.67 45.0835C1009.63 45.4093 1010.76 44.789 1011.08 43.7958C1011.42 42.8025 1010.87 41.719 1009.91 41.3931ZM1055.5 120.634L1055.4 123.029C1055.3 125.848 1057.43 127.975 1060.25 128.085C1063.04 128.191 1065.33 126.232 1065.44 123.414L1065.52 121.019L1055.5 120.634ZM1055.5 120.634L1055.4 123.029C1055.3 125.848 1057.43 127.975 1060.25 128.085C1063.04 128.191 1065.33 126.232 1065.44 123.414L1065.52 121.019L1055.5 120.634ZM944.331 49.665L944.312 49.6768L944.581 54.1916L947.911 52.4171L944.331 49.665ZM963.543 40.4077C963.27 39.3948 962.213 38.8059 961.235 39.069L957.686 40.0347L958.7 43.7919L962.237 42.83C963.219 42.563 963.812 41.4206 963.543 40.4077ZM1009.91 41.3931L1006.43 40.2114L1005.19 43.9018L1008.67 45.0835C1009.63 45.4093 1010.76 44.789 1011.08 43.7958C1011.42 42.8025 1010.87 41.719 1009.91 41.3931ZM1047.78 53.3319C1030.14 35.5749 1006.7 25.7954 981.756 25.7954C956.817 25.7954 933.37 35.5749 915.73 53.3319C898.094 71.0888 888.385 94.6993 888.385 119.81C888.385 144.92 898.094 168.53 915.73 186.287C933.37 204.044 956.817 213.824 981.756 213.824C1006.7 213.824 1030.14 204.044 1047.78 186.287C1065.42 168.53 1075.13 144.92 1075.13 119.81C1075.13 94.6993 1065.42 71.0888 1047.78 53.3319ZM1066.85 100.392L1068.7 110.556C1068.74 110.827 1068.57 111.063 1068.32 111.11L1065.66 111.597C1065.42 111.644 1065.17 111.487 1065.11 111.216L1063.88 104.416L1060.86 104.973L1061.87 110.572C1061.92 110.815 1061.74 111.078 1061.5 111.121L1058.83 111.612C1058.56 111.663 1058.33 111.475 1058.29 111.231L1057.27 105.633L1053.98 106.238L1055.21 113.041C1055.27 113.308 1055.08 113.548 1054.84 113.591L1052.17 114.082C1051.94 114.125 1051.68 113.972 1051.63 113.701L1049.78 103.537C1049.74 103.266 1049.92 103.03 1050.16 102.983L1066.31 100.011C1066.55 99.9679 1066.81 100.121 1066.85 100.392ZM1061.41 84.3349L1065.34 94.6876C1065.44 94.9427 1065.3 95.2097 1065.07 95.3L1062.55 96.2697C1062.32 96.36 1062.04 96.254 1061.94 95.9988L1060.67 92.6618L1048.31 97.4239C1048.07 97.5142 1047.79 97.3847 1047.7 97.1491L1046.64 94.3538C1046.55 94.1183 1046.67 93.8278 1046.91 93.7414L1059.27 88.9793L1058.01 85.6461C1057.91 85.391 1058.05 85.124 1058.28 85.0337L1060.8 84.0601C1061.04 83.9737 1061.32 84.0797 1061.41 84.3349ZM1057.48 77.017L1058.93 79.6356C1059.05 79.8554 1058.96 80.1616 1058.74 80.2794L1044.39 88.2883C1044.18 88.41 1043.88 88.3236 1043.75 88.1038L1042.31 85.4852C1042.19 85.2653 1042.28 84.9591 1042.49 84.8374L1056.85 76.8324C1057.06 76.7107 1057.37 76.7971 1057.48 77.017ZM1043.78 118.805V120.815C1043.67 127.599 1042.48 134.127 1040.38 140.228L1039.7 142.113C1037.33 148.335 1034 154.079 1029.89 159.167L1028.61 160.706C1024.32 165.68 1019.26 169.967 1013.62 173.379L1011.9 174.384C1006.25 177.56 1000.06 179.872 993.509 181.14L991.543 181.49C988.354 182 985.086 182.271 981.752 182.271C978.419 182.271 975.155 182 971.965 181.49L970 181.14C963.449 179.872 957.257 177.56 951.611 174.384L949.884 173.379C944.249 169.967 939.188 165.68 934.899 160.706L933.62 159.167C929.51 154.079 926.18 148.335 923.809 142.113L923.123 140.228C921.022 134.127 919.836 127.599 919.731 120.815V118.805C920.265 84.8256 947.88 57.3481 981.752 57.3481C1015.63 57.3481 1043.24 84.8256 1043.78 118.805ZM1044.89 59.3581L1045.29 59.841L1044.24 73.621L1044.26 73.6407L1051.04 67.9991C1051.24 67.8421 1051.53 67.8539 1051.71 68.0659L1053.6 70.3743C1053.76 70.5667 1053.73 70.8847 1053.54 71.0417L1040.67 81.732C1040.48 81.889 1040.18 81.8458 1040.03 81.6535L1039.78 81.3433C1039.73 81.2844 1039.66 81.0842 1039.67 81.0136L1041.02 67.104L1041.01 67.0844L1033.88 73.0125C1033.68 73.1696 1033.39 73.1578 1033.21 72.9458L1031.34 70.657C1031.18 70.4646 1031.21 70.1466 1031.4 69.9896L1044.25 59.2796C1044.44 59.1226 1044.74 59.1658 1044.89 59.3581ZM1021.35 54.439L1027.4 46.1278C1027.55 45.9236 1027.86 45.8765 1028.06 46.0257L1030.52 47.8395C1030.74 48.0004 1030.77 48.3027 1030.62 48.503L1024.68 56.6532C1023.65 58.0626 1023.88 59.9588 1025.3 61.0031C1026.74 62.067 1028.62 61.7216 1029.64 60.3121L1035.58 52.1619C1035.73 51.9617 1036.02 51.8989 1036.24 52.0598L1038.7 53.8736C1038.9 54.0228 1038.94 54.3369 1038.8 54.5371L1032.74 62.8522C1030.52 65.9105 1026.11 66.5583 1022.95 64.2263C1019.81 61.91 1019.12 57.4973 1021.35 54.439ZM998.476 51.683L1003.72 36.0264C1003.8 35.7908 1004.06 35.6416 1004.32 35.728L1011.34 38.115C1014.16 39.0729 1015.7 42.1508 1014.75 44.9657C1014.02 47.1407 1012 48.4048 1009.68 48.5344L1010.89 55.6364C1010.95 56.0015 1010.66 56.3234 1010.26 56.186L1007.13 55.126C1006.94 55.0632 1006.84 54.8944 1006.83 54.7844L1005.8 47.4547L1004.18 46.9051L1002.16 52.9353C1002.08 53.1709 1001.8 53.3122 1001.56 53.2337L998.769 52.2836C998.507 52.1933 998.394 51.9185 998.476 51.683ZM986.72 33.4235C986.747 33.1762 986.97 32.9759 987.243 33.0073L997.435 34.193C997.708 34.2244 997.876 34.4717 997.849 34.719L997.54 37.4201C997.509 37.6713 997.287 37.8716 997.014 37.8401L990.198 37.0432L989.839 40.1172L995.454 40.7728C995.704 40.8003 995.899 41.0476 995.868 41.2989L995.56 43.9999C995.528 44.2708 995.283 44.4436 995.041 44.4161L989.426 43.7644L989.036 47.1093L995.86 47.9023C996.133 47.9337 996.304 48.181 996.273 48.4284L995.965 51.1294C995.938 51.3807 995.716 51.5809 995.439 51.5495L985.25 50.3599C984.981 50.3285 984.809 50.0851 984.837 49.8378L986.72 33.4235ZM970.441 33.5216L981.417 32.7914C981.694 32.7718 981.904 32.9838 981.92 33.2311L982.099 35.9439C982.115 36.1952 981.936 36.4307 981.659 36.4504L978.126 36.6859L978.996 49.983C979.011 50.2304 978.808 50.4699 978.559 50.4856L975.592 50.6858C975.346 50.7015 975.104 50.4895 975.092 50.2421L974.219 36.945L970.679 37.1806C970.409 37.2002 970.199 36.9882 970.179 36.7409L970.004 34.0241C969.984 33.7768 970.172 33.5373 970.441 33.5216ZM953.463 37.4829L960.622 35.5396C963.492 34.7583 966.467 36.4582 967.232 39.3281C967.824 41.5462 966.842 43.7251 964.99 45.1345L969.91 50.3639C970.156 50.6308 970.094 51.0627 969.692 51.1726L966.502 52.0363C966.315 52.0913 966.136 52.0088 966.062 51.9264L961.172 46.4026L959.515 46.8541L961.164 52.9982C961.231 53.2376 961.075 53.5124 960.833 53.5792L957.986 54.3526C957.721 54.4233 957.468 54.2584 957.409 54.0189L953.132 38.0639C953.066 37.8244 953.202 37.5575 953.463 37.4829ZM940.685 42.9949L940.904 42.881C941.06 42.7986 941.27 42.8261 941.407 42.9242L956.072 54.1092C956.357 54.3251 956.329 54.7059 955.998 54.8787L953.569 56.1781C953.171 56.3862 952.933 56.347 952.512 56.0329L950.808 54.7138L944.846 57.8938L944.99 60.0766C945.021 60.3985 944.92 60.7911 944.479 61.0267L942.074 62.3104C941.742 62.4871 941.419 62.2947 941.399 61.9375L940.444 43.4385C940.444 43.2697 940.529 43.0773 940.685 42.9949ZM923.193 55.4244L931.815 48.5383C932.033 48.3656 932.325 48.4166 932.481 48.6129L934.154 50.7447C934.314 50.941 934.298 51.2393 934.08 51.4121L931.308 53.6302L939.531 64.0732C939.687 64.2656 939.652 64.5836 939.457 64.7367L937.129 66.6015C936.934 66.7546 936.615 66.7193 936.463 66.523L928.231 56.08L925.459 58.2981C925.244 58.4709 924.952 58.4199 924.796 58.2236L923.119 56.0918C922.959 55.8955 922.983 55.5971 923.193 55.4244ZM916.101 62.5264C917.812 60.583 920.109 59.9627 921.014 59.7664C921.337 59.6565 921.642 59.9941 921.704 60.1826L922.297 62.4086C922.386 62.7227 922.258 63.2095 921.981 63.2605C921.739 63.3469 919.513 63.8023 918.514 64.9408C917.926 65.6161 917.926 66.5151 918.425 66.9627C919.115 67.5751 920.129 67.477 922.02 66.5308C923.876 65.5847 927.042 64.2734 929.569 66.523C931.483 68.2268 931.947 71.611 929.537 74.3591C927.401 76.7893 925.213 77.2407 924.41 77.2918C924.063 77.3114 923.938 77.3036 923.809 76.9227L923.037 74.6693C922.932 74.3041 923.279 73.9822 923.486 73.9351C923.591 73.8919 925.751 73.4247 926.839 72.192C927.498 71.4422 927.506 70.4881 926.863 69.9071C926.083 69.2122 924.913 69.3378 923.295 70.1623C921.252 71.2066 918.23 72.1213 916.003 70.1348C914.167 68.4977 913.574 65.4041 916.101 62.5264ZM903.163 82.0853L904.61 79.5531C904.773 79.2744 905.144 79.1723 905.421 79.3333L911.075 82.5996L907.858 74.3513C907.803 74.206 907.803 73.9469 907.881 73.8173L909.437 71.0888C909.671 70.6805 910.267 70.7355 910.451 71.1595L913.862 79.8672L924.145 78.4696C924.609 78.4185 924.948 78.9289 924.706 79.3411L923.01 82.3287C922.924 82.4779 922.725 82.6232 922.636 82.631L913.032 83.7303L919.442 87.4324C919.723 87.5934 919.824 87.9703 919.661 88.249L918.218 90.7813C918.046 91.0875 917.688 91.166 917.403 91.005L903.389 82.9058C903.108 82.7449 902.991 82.3916 903.163 82.0853ZM898.375 93.816C899.092 91.429 900.359 89.8861 902.325 88.7123C902.578 88.5553 902.863 88.6416 902.991 88.889L904.348 91.3427C904.469 91.5586 904.391 91.8216 904.173 91.9394C903.124 92.5833 902.344 93.6197 901.993 94.7935C901.174 97.4907 902.808 100.152 905.463 100.965C908.095 101.774 910.88 100.435 911.698 97.7341C912.034 96.6113 912.003 95.2725 911.523 94.189C911.433 93.977 911.523 93.6668 911.733 93.5726L914.268 92.3124C914.486 92.1985 914.787 92.3163 914.904 92.5322C915.976 94.6365 916.089 96.9135 915.446 99.0414C914.007 103.815 909.078 106.509 904.333 105.056C899.587 103.603 896.932 98.5899 898.375 93.816ZM895.306 108.232C895.337 107.985 895.587 107.788 895.832 107.82L912.112 109.908C912.357 109.94 912.552 110.191 912.517 110.438L912.143 113.41C912.112 113.658 911.858 113.85 911.617 113.819L895.337 111.734C895.091 111.703 894.897 111.451 894.932 111.204L895.306 108.232ZM894.698 130.033L894.592 127.116C894.577 126.79 894.838 126.507 895.162 126.495L901.677 126.24L894.6 120.972C894.472 120.877 894.339 120.658 894.335 120.508L894.21 117.364C894.195 116.889 894.733 116.618 895.115 116.881L902.594 122.432L910.572 115.75C910.934 115.46 911.492 115.715 911.507 116.19L911.644 119.629C911.644 119.806 911.554 120.033 911.488 120.084L903.931 126.15L911.312 125.863C911.632 125.852 911.913 126.115 911.928 126.437L912.042 129.357C912.057 129.707 911.792 129.966 911.472 129.978L895.322 130.61C894.998 130.622 894.713 130.382 894.698 130.033ZM981.756 199.447C945.275 199.447 914.494 174.462 905.378 140.601H906.59C915.672 173.807 945.93 198.269 981.756 198.269C1017.58 198.269 1047.84 173.807 1056.92 140.601H1058.13C1049.02 174.462 1018.24 199.447 981.756 199.447ZM1060.1 132.223C1055.29 132.043 1051.55 127.952 1051.73 123.139L1051.96 117.054C1051.97 116.802 1052.2 116.614 1052.45 116.622L1068.85 117.25C1069.09 117.258 1069.31 117.466 1069.3 117.717L1069.07 123.802C1068.89 128.615 1064.85 132.408 1060.1 132.223ZM1055.41 123.029C1055.3 125.848 1057.43 127.975 1060.25 128.085C1063.05 128.191 1065.33 126.232 1065.44 123.414L1065.53 121.019L1055.5 120.634L1055.41 123.029ZM981.756 59.3581C948.983 59.3581 922.261 85.9327 921.727 118.805H1041.79C1041.25 85.9327 1014.53 59.3581 981.756 59.3581ZM1018.6 88.834L1009.57 91.2484L1003.92 97.3847C1003.97 97.5495 1004.03 97.7066 1004.06 97.8754C1004.31 99.0375 1004.09 100.219 1003.43 101.209C1002.59 102.492 1001.21 103.195 999.783 103.195C999.677 103.195 999.58 103.183 999.474 103.175C999.443 103.815 999.256 104.44 998.89 104.993C998.001 106.363 996.484 107.125 994.94 107.125C994.916 107.125 994.901 107.121 994.881 107.121C994.893 107.894 994.659 108.664 994.203 109.296C993.349 110.623 991.922 111.357 990.448 111.357C990.303 111.357 990.163 111.345 990.019 111.33C988.533 112.81 986.564 113.634 984.494 113.634C984.088 113.634 983.683 113.603 983.277 113.54L977.272 112.613C976.566 113.532 975.51 114.046 974.41 114.046C973.942 114.046 973.463 113.952 973.006 113.764C972.215 113.434 971.583 112.845 971.189 112.103C970.636 112.374 970.035 112.519 969.427 112.519C968.776 112.519 968.125 112.362 967.516 112.032C966.67 111.573 966.031 110.811 965.695 109.912C965.485 109.987 965.266 110.058 965.048 110.097C964.802 110.144 964.561 110.164 964.315 110.164C963.496 110.164 962.701 109.912 962.018 109.425C960.907 108.64 960.31 107.38 960.318 106.104C959.515 106.092 958.743 105.841 958.084 105.366L958.014 105.315C956.247 104.047 955.818 101.558 957.062 99.7677L958.372 97.8793L953.666 91.6293L944.858 88.8144C944.203 88.6063 943.844 87.9075 944.051 87.2519C944.257 86.6001 944.951 86.2311 945.599 86.4431L954.785 89.3758C955.031 89.4543 955.241 89.6035 955.397 89.8076L959.905 95.7986C961.188 94.5462 963.188 94.2871 964.759 95.2647C965.274 95.5866 965.687 96.0027 965.999 96.4817C967.232 94.7111 969.676 94.2282 971.474 95.4099C972.39 96.0067 973.01 96.9293 973.225 98.005C973.291 98.3387 973.303 98.6684 973.283 98.9982C974.145 99.0296 974.991 99.3319 975.666 99.8855C976.949 100.93 977.42 102.641 976.98 104.169C977.541 104.294 978.075 104.534 978.524 104.907C978.539 104.919 978.555 104.926 978.567 104.938C979.994 106.155 980.278 108.303 979.206 109.849L978.863 110.34L983.651 111.078C984.958 111.279 986.252 110.992 987.332 110.313L982.033 107.604C981.425 107.294 981.183 106.544 981.491 105.931C981.799 105.319 982.548 105.076 983.156 105.386L989.524 108.64C990.456 109.115 991.579 108.809 992.14 107.922C992.156 107.898 992.179 107.875 992.195 107.847C992.382 107.588 992.456 107.27 992.397 106.952C992.335 106.634 992.152 106.367 991.879 106.198L990.417 105.299L984.47 102.037C983.87 101.711 983.655 100.953 983.983 100.349C984.31 99.7441 985.063 99.5243 985.656 99.8501L993.887 104.365C994.901 104.922 996.191 104.597 996.827 103.627C997.01 103.344 997.069 103.011 996.998 102.685C996.924 102.355 996.722 102.08 996.437 101.907L995.423 101.299L987.005 96.2265C986.42 95.8692 986.225 95.1076 986.58 94.5187C986.931 93.9259 987.687 93.7336 988.272 94.0869L998.8 100.427C999.677 100.957 1000.81 100.698 1001.37 99.8384C1001.65 99.4065 1001.76 98.8922 1001.64 98.3858C1001.55 97.8793 1001.24 97.4475 1000.82 97.1648L981.359 84.4684C981.082 84.2917 980.735 84.2721 980.45 84.4252L971.408 89.1834C970.253 89.7919 968.842 89.6702 967.801 88.885C967.083 88.3315 966.615 87.5306 966.499 86.6276C966.378 85.7207 966.615 84.8256 967.165 84.1033L970.402 79.8593L967.2 79.349C966.842 79.2901 966.499 79.1762 966.175 79.0074C966.097 78.9681 966.031 78.921 965.964 78.87L955.682 70.4724C955.152 70.0367 955.07 69.2515 955.503 68.7215C955.932 68.1836 956.711 68.1051 957.242 68.537L967.403 76.8403C967.462 76.8639 967.524 76.8796 967.586 76.8874L972.238 77.6333C973.24 76.6911 974.492 76.0473 975.861 75.7921L980.848 74.8577C983.928 74.2806 987.04 74.3159 990.101 74.9637L995.411 76.0865C995.548 76.114 995.688 76.114 995.821 76.0787L1006.22 68.4938C1006.78 68.0894 1007.55 68.215 1007.95 68.7725C1008.35 69.33 1008.22 70.1113 1007.68 70.5117L997.123 78.2026C997.037 78.2615 996.948 78.3125 996.858 78.3518C996.234 78.603 995.56 78.6619 994.901 78.5245L989.59 77.4017C986.849 76.8207 984.061 76.7893 981.304 77.3036L976.313 78.2379C975.147 78.4578 974.106 79.0977 973.385 80.0439L969.127 85.6187C968.978 85.811 968.916 86.0544 968.947 86.2939C968.978 86.5373 969.103 86.7493 969.298 86.8985C969.571 87.1066 969.953 87.1419 970.261 86.977L979.304 82.2188C980.384 81.6496 981.686 81.7124 982.7 82.3798L1002.16 95.0762C1002.27 95.143 1002.36 95.2333 1002.46 95.3118L1008.01 89.2933C1008.17 89.1206 1008.37 88.995 1008.59 88.9361L1017.97 86.4274C1018.62 86.2507 1019.31 86.6433 1019.48 87.3107C1019.65 87.9742 1019.26 88.6573 1018.6 88.834ZM1038.51 139.541C1040.54 133.656 1041.68 127.359 1041.79 120.815H987.41L1038.51 139.541ZM1028.36 157.875C1032.32 152.968 1035.53 147.425 1037.82 141.426L986.728 122.699L1028.36 157.875ZM1012.63 171.64C1018.07 168.346 1022.94 164.212 1027.09 159.414L985.449 124.238L1012.63 171.64ZM1011.08 43.7958C1011.42 42.8025 1010.87 41.719 1009.91 41.3931L1006.43 40.2114L1005.19 43.9018L1008.67 45.0835C1009.63 45.4093 1010.76 44.789 1011.08 43.7958ZM993.166 179.166C999.486 177.937 1005.46 175.707 1010.9 172.645L983.722 125.243L993.166 179.166ZM972.316 179.511C975.393 180.006 978.547 180.261 981.756 180.261C984.965 180.261 988.124 180.006 991.2 179.511L981.756 125.589L972.316 179.511ZM952.613 172.645C958.061 175.707 964.03 177.937 970.351 179.166L979.795 125.243L952.613 172.645ZM936.431 159.414C940.572 164.212 945.45 168.346 950.886 171.64L978.068 124.238L936.431 159.414ZM925.689 141.426C927.978 147.425 931.191 152.968 935.152 157.875L976.785 122.699L925.689 141.426ZM921.723 120.815C921.833 127.359 922.975 133.656 924.999 139.541L976.098 120.815H921.723ZM962.237 42.83C963.219 42.563 963.812 41.4206 963.543 40.4077C963.27 39.3948 962.213 38.8059 961.235 39.069L957.686 40.0347L958.7 43.7919L962.237 42.83ZM947.915 52.4171L944.335 49.665L944.316 49.6768L944.585 54.1916L947.915 52.4171ZM1009.91 41.3931L1006.43 40.2114L1005.19 43.9018L1008.67 45.0835C1009.63 45.4093 1010.76 44.789 1011.08 43.7958C1011.42 42.8025 1010.87 41.719 1009.91 41.3931ZM963.543 40.4077C963.27 39.3948 962.213 38.8059 961.235 39.069L957.686 40.0347L958.7 43.7919L962.237 42.83C963.219 42.563 963.812 41.4206 963.543 40.4077ZM944.331 49.665L944.312 49.6768L944.581 54.1916L947.911 52.4171L944.331 49.665ZM1009.91 41.3931L1006.43 40.2114L1005.19 43.9018L1008.67 45.0835C1009.63 45.4093 1010.76 44.789 1011.08 43.7958C1011.42 42.8025 1010.87 41.719 1009.91 41.3931ZM963.543 40.4077C963.27 39.3948 962.213 38.8059 961.235 39.069L957.686 40.0347L958.7 43.7919L962.237 42.83C963.219 42.563 963.812 41.4206 963.543 40.4077ZM944.331 49.665L944.312 49.6768L944.581 54.1916L947.911 52.4171L944.331 49.665ZM1009.91 41.3931L1006.43 40.2114L1005.19 43.9018L1008.67 45.0835C1009.63 45.4093 1010.76 44.789 1011.08 43.7958C1011.42 42.8025 1010.87 41.719 1009.91 41.3931ZM963.543 40.4077C963.27 39.3948 962.213 38.8059 961.235 39.069L957.686 40.0347L958.7 43.7919L962.237 42.83C963.219 42.563 963.812 41.4206 963.543 40.4077ZM944.331 49.665L944.312 49.6768L944.581 54.1916L947.911 52.4171L944.331 49.665ZM1009.91 41.3931L1006.43 40.2114L1005.19 43.9018L1008.67 45.0835C1009.63 45.4093 1010.76 44.789 1011.08 43.7958C1011.42 42.8025 1010.87 41.719 1009.91 41.3931ZM963.543 40.4077C963.27 39.3948 962.213 38.8059 961.235 39.069L957.686 40.0347L958.7 43.7919L962.237 42.83C963.219 42.563 963.812 41.4206 963.543 40.4077ZM944.331 49.665L944.312 49.6768L944.581 54.1916L947.911 52.4171L944.331 49.665ZM1009.91 41.3931L1006.43 40.2114L1005.19 43.9018L1008.67 45.0835C1009.63 45.4093 1010.76 44.789 1011.08 43.7958C1011.42 42.8025 1010.87 41.719 1009.91 41.3931ZM963.543 40.4077C963.27 39.3948 962.213 38.8059 961.235 39.069L957.686 40.0347L958.7 43.7919L962.237 42.83C963.219 42.563 963.812 41.4206 963.543 40.4077ZM944.331 49.665L944.312 49.6768L944.581 54.1916L947.911 52.4171L944.331 49.665ZM1009.91 41.3931L1006.43 40.2114L1005.19 43.9018L1008.67 45.0835C1009.63 45.4093 1010.76 44.789 1011.08 43.7958C1011.42 42.8025 1010.87 41.719 1009.91 41.3931ZM963.543 40.4077C963.27 39.3948 962.213 38.8059 961.235 39.069L957.686 40.0347L958.7 43.7919L962.237 42.83C963.219 42.563 963.812 41.4206 963.543 40.4077ZM944.331 49.665L944.312 49.6768L944.581 54.1916L947.911 52.4171L944.331 49.665ZM963.543 40.4077C963.27 39.3948 962.213 38.8059 961.235 39.069L957.686 40.0347L958.7 43.7919L962.237 42.83C963.219 42.563 963.812 41.4206 963.543 40.4077ZM944.331 49.665L944.312 49.6768L944.581 54.1916L947.911 52.4171L944.331 49.665ZM963.543 40.4077C963.27 39.3948 962.213 38.8059 961.235 39.069L957.686 40.0347L958.7 43.7919L962.237 42.83C963.219 42.563 963.812 41.4206 963.543 40.4077ZM944.331 49.665L944.312 49.6768L944.581 54.1916L947.911 52.4171L944.331 49.665ZM963.543 40.4077C963.27 39.3948 962.213 38.8059 961.235 39.069L957.686 40.0347L958.7 43.7919L962.237 42.83C963.219 42.563 963.812 41.4206 963.543 40.4077ZM944.331 49.665L944.312 49.6768L944.581 54.1916L947.911 52.4171L944.331 49.665ZM963.543 40.4077C963.27 39.3948 962.213 38.8059 961.235 39.069L957.686 40.0347L958.7 43.7919L962.237 42.83C963.219 42.563 963.812 41.4206 963.543 40.4077ZM944.331 49.665L944.312 49.6768L944.581 54.1916L947.911 52.4171L944.331 49.665Z" fill="#231F20"/>
<path d="M1040.76 190.138L1036.84 194.767V190.138H1040.76Z" fill="white"/>
<path d="M1046.15 184.559L1050.82 196.368H1037.76L1043.05 190.142V172.75H1050.82L1046.15 184.559Z" fill="white"/>
<path d="M928.618 190.138V194.767L924.691 190.138H928.618Z" fill="white"/>
<path d="M914.631 196.368L919.294 184.559L914.631 172.75H922.406V190.138H922.425L922.41 190.154L927.693 196.368H914.631Z" fill="white"/>
<path d="M1041.56 163.575H923.896V188.638H1041.56V163.575Z" fill="white"/>
<path d="M1053.02 171.254H1043.05V162.08H922.406V171.254H912.436L917.696 184.563L912.436 197.872H930.107V190.142H1035.35V197.872H1053.02L1047.76 184.563L1053.02 171.254H1053.02ZM914.631 196.369L919.298 184.559L914.631 172.75H922.41V190.134H922.429L922.414 190.15L927.693 196.365H914.631V196.369ZM928.617 194.767L924.691 190.138H928.617V194.767ZM923.895 188.638V163.575H1041.56V188.638H923.895ZM1036.84 190.138H1040.76L1036.84 194.767V190.138ZM1050.82 196.369H1037.76L1043.05 190.142V172.75H1050.83L1046.16 184.559L1050.83 196.369H1050.82Z" fill="#231F20"/>
<path d="M944.379 169.021C948.348 169.021 951.526 172.24 951.526 176.236C951.526 180.233 948.352 183.413 944.379 183.413C940.405 183.413 937.251 180.237 937.251 176.236C937.251 172.236 940.405 169.021 944.379 169.021ZM944.379 180.209C946.562 180.209 948.348 178.411 948.348 176.232C948.348 174.054 946.562 172.216 944.379 172.216C942.195 172.216 940.429 174.034 940.429 176.232C940.429 178.431 942.215 180.209 944.379 180.209Z" fill="#231F20"/>
<path d="M953.928 169.598C953.928 169.397 954.088 169.217 954.306 169.217H959.09C961.531 169.217 963.535 171.215 963.535 173.633C963.535 176.052 961.531 178.129 959.11 178.129H957.024V182.824C957.024 183.024 956.844 183.205 956.646 183.205H954.302C954.084 183.205 953.924 183.024 953.924 182.824V169.594L953.928 169.598ZM958.911 175.216C959.765 175.216 960.478 174.536 960.478 173.637C960.478 172.797 959.765 172.157 958.911 172.157H957.024V175.216H958.911Z" fill="#231F20"/>
<path d="M965.562 169.598C965.562 169.397 965.722 169.217 965.941 169.217H974.16C974.379 169.217 974.539 169.397 974.539 169.598V171.777C974.539 171.977 974.379 172.157 974.16 172.157H968.662V174.635H973.189C973.388 174.635 973.568 174.815 973.568 175.015V177.194C973.568 177.414 973.388 177.575 973.189 177.575H968.662V180.272H974.16C974.379 180.272 974.539 180.453 974.539 180.653V182.832C974.539 183.032 974.379 183.213 974.16 183.213H965.941C965.722 183.213 965.562 183.032 965.562 182.832V169.602V169.598Z" fill="#231F20"/>
<path d="M977.198 169.598C977.198 169.397 977.378 169.217 977.576 169.217H979.959C980.158 169.217 980.337 169.397 980.337 169.598V182.828C980.337 183.028 980.158 183.209 979.959 183.209H977.576C977.378 183.209 977.198 183.028 977.198 182.828V169.598Z" fill="#231F20"/>
<path d="M983.55 169.598C983.55 169.397 983.729 169.217 983.928 169.217H986.369C986.587 169.217 986.747 169.397 986.747 169.598V177.693C986.747 179.09 987.78 180.209 989.188 180.209C990.596 180.209 991.668 179.09 991.668 177.693V169.598C991.668 169.397 991.828 169.217 992.046 169.217H994.487C994.686 169.217 994.865 169.397 994.865 169.598V177.85C994.865 180.889 992.323 183.405 989.188 183.405C986.053 183.405 983.55 180.889 983.55 177.85V169.598Z" fill="#231F20"/>
<path d="M1003.5 173.834H1001.6C1001.4 173.834 1001.24 173.653 1001.24 173.453V172.193C1001.24 172.114 1001.3 171.953 1001.36 171.894L1004.25 169.617H1006.08C1006.28 169.617 1006.44 169.798 1006.44 169.998V182.828C1006.44 183.028 1006.28 183.209 1006.08 183.209H1003.88C1003.66 183.209 1003.5 183.028 1003.5 182.828V173.834H1003.5Z" fill="#231F20"/>
<path d="M1009.16 181.069L1010.41 179.829C1010.53 179.707 1010.73 179.668 1010.89 179.77C1010.89 179.77 1012.3 180.728 1013.25 180.728C1014.32 180.728 1015.14 179.927 1015.14 178.827C1015.14 177.728 1014.39 176.888 1013.1 176.888H1010.04C1009.64 176.888 1009.42 176.507 1009.42 176.189V169.994C1009.42 169.794 1009.58 169.613 1009.8 169.613H1016.19C1016.41 169.613 1016.57 169.794 1016.57 169.994V171.753C1016.57 171.953 1016.41 172.134 1016.19 172.134H1012.1V174.273H1013.51C1016.25 174.273 1018.04 176.213 1018.04 178.831C1018.04 181.45 1015.91 183.409 1013.13 183.409C1011.07 183.409 1009.7 182.349 1009.2 181.748C1008.95 181.45 1008.93 181.309 1009.16 181.069H1009.16Z" fill="#231F20"/>
<path d="M1019.25 181.132L1020.5 179.872C1020.64 179.73 1020.84 179.711 1020.99 179.832C1020.99 179.832 1022.23 180.751 1023.18 180.751C1024.03 180.751 1024.91 180.033 1024.91 179.153C1024.91 178.274 1024.01 177.536 1022.54 177.536H1021.43C1021.23 177.536 1021.05 177.355 1021.05 177.155V175.494C1021.05 175.274 1021.23 175.113 1021.43 175.113H1022.54C1023.93 175.113 1024.67 174.434 1024.67 173.575C1024.67 172.715 1023.94 172.075 1023.08 172.075C1022.23 172.075 1021.65 172.534 1021.35 172.876C1021.21 173.037 1020.98 173.037 1020.82 172.895L1019.61 171.698C1019.45 171.557 1019.47 171.317 1019.61 171.18C1019.61 171.18 1021.23 169.421 1023.4 169.421C1025.7 169.421 1027.69 170.838 1027.69 173.08C1027.69 174.619 1026.54 175.757 1025.64 176.177V176.236C1026.57 176.637 1028.04 177.873 1028.04 179.593C1028.04 181.772 1026.16 183.409 1023.42 183.409C1020.92 183.409 1019.65 182.168 1019.23 181.631C1019.11 181.489 1019.14 181.269 1019.25 181.132H1019.25Z" fill="#231F20"/>
</svg>
